<?xml version="1.0" encoding="utf-8"?>
<!-- Generator: Adobe Illustrator 24.0.0, SVG Export Plug-In . SVG Version: 6.00 Build 0)  -->
<svg version="1.1" id="Layer_1" xmlns="http://www.w3.org/2000/svg" xmlns:xlink="http://www.w3.org/1999/xlink" x="0px" y="0px"
	 viewBox="0 0 135 40" style="enable-background:new 0 0 135 40;" xml:space="preserve">
<style type="text/css">
	.st0{fill:#FFFFFF;}
	.st1{fill:url(#SVGID_1_);}
	.st2{fill:url(#SVGID_2_);}
	.st3{fill:url(#SVGID_3_);}
	.st4{fill:url(#SVGID_4_);}
	.st5{fill:url(#SVGID_5_);}
	.st6{fill:url(#SVGID_6_);}
	.st7{fill:url(#SVGID_7_);}
	.st8{fill:url(#SVGID_8_);}
	.st9{fill:url(#SVGID_9_);}
	.st10{fill:#404040;}
	.st11{fill:url(#SVGID_10_);}
	.st12{fill:url(#SVGID_11_);}
	.st13{fill:url(#SVGID_12_);}
</style>
<g>
	<path class="st0" d="M115.8,39.2H19.2C8.6,39.2,0,30.6,0,20v0C0,9.4,8.6,0.8,19.2,0.8h96.6C126.4,0.8,135,9.4,135,20v0
		C135,30.6,126.4,39.2,115.8,39.2z"/>
</g>
<path d="M47.3,10.6c0,0.8-0.2,1.4-0.7,1.9c-0.6,0.6-1.3,0.9-2.2,0.9s-1.6-0.3-2.2-0.9c-0.6-0.6-0.9-1.3-0.9-2.1
	c0-0.9,0.3-1.6,0.9-2.1c0.6-0.6,1.3-0.9,2.2-0.9c0.4,0,0.8,0.1,1.2,0.2C46,7.8,46.3,8,46.5,8.3L46,8.8c-0.4-0.5-0.9-0.7-1.6-0.7
	c-0.6,0-1.2,0.2-1.6,0.6c-0.5,0.4-0.7,1-0.7,1.7s0.2,1.2,0.7,1.7c0.5,0.4,1,0.6,1.6,0.6c0.7,0,1.2-0.2,1.7-0.6
	c0.3-0.3,0.5-0.7,0.5-1.2h-2.2v-0.7h2.9C47.3,10.3,47.3,10.5,47.3,10.6z"/>
<path d="M47.3,10.6L47.3,10.6c-0.1,0.8-0.3,1.4-0.8,1.9l0,0l0,0c-0.5,0.5-1.2,0.8-2.1,0.8c-0.8,0-1.5-0.3-2.1-0.8
	c-0.6-0.6-0.9-1.2-0.9-2.1c0-0.8,0.3-1.5,0.9-2.1c0.6-0.6,1.3-0.8,2.1-0.8c0.4,0,0.8,0.1,1.2,0.2c0.4,0.2,0.7,0.4,0.9,0.6l0.1-0.1
	l-0.1-0.1L46,8.6l0,0.2l0.1-0.1c-0.4-0.5-1-0.7-1.7-0.7s-1.2,0.2-1.7,0.7c-0.5,0.4-0.7,1-0.7,1.7s0.2,1.3,0.7,1.7s1.1,0.7,1.7,0.7
	c0.7,0,1.3-0.2,1.7-0.7c0.3-0.3,0.5-0.7,0.5-1.2v-0.1h-2.2v-0.5h2.8v-0.1h-0.1C47.2,10.3,47.2,10.5,47.3,10.6L47.3,10.6L47.3,10.6
	c0.1-0.1,0.1-0.3,0.1-0.5V10h-3.1v0.8V11h2.3v-0.1h-0.1c0,0.5-0.2,0.8-0.5,1.1c-0.4,0.4-1,0.6-1.6,0.6s-1.1-0.2-1.6-0.6
	c-0.4-0.4-0.7-0.9-0.7-1.6c0-0.7,0.2-1.2,0.7-1.6c0.4-0.4,1-0.6,1.6-0.6c0.7,0,1.2,0.2,1.6,0.7v0l0.6-0.6l0.1-0.1l-0.1-0.1
	c-0.2-0.3-0.6-0.5-1-0.7s-0.8-0.2-1.3-0.2c-0.9,0-1.7,0.3-2.3,0.9c-0.6,0.6-0.9,1.3-0.9,2.2s0.3,1.6,0.9,2.2
	c0.6,0.6,1.4,0.9,2.3,0.9c0.9,0,1.7-0.3,2.3-0.9l-0.1-0.1l0.1,0.1c0.5-0.5,0.8-1.2,0.8-2h-0.1V10.6z"/>
<path d="M51.9,8.2h-2.7V10h2.5v0.7h-2.5v1.8h2.7v0.7h-3.5V7.5h3.5V8.2z"/>
<path d="M51.9,8.2L51.9,8.2l-2.8-0.1v2h2.5v0.5h-2.5v2h2.7v0.5h-3.3V7.6h3.3L51.9,8.2L51.9,8.2L51.9,8.2L51.9,8.2L51.9,8.2L52,7.5
	V7.4h-3.7v6H52v-0.8v-0.1h-2.7v-1.6h2.5V10V9.9h-2.5V8.3H52L51.9,8.2L51.9,8.2z"/>
<path d="M55.2,13.3h-0.8V8.2h-1.7V7.5h4.1v0.7h-1.7v5.1H55.2z"/>
<path d="M55.2,13.3L55.2,13.3l-0.7-0.1V8.1h-1.7V7.6h3.9v0.5H55L55.2,13.3L55.2,13.3L55.2,13.3L55.2,13.3L55.2,13.3l0.1-5H57V7.5
	V7.4h-4.3v0.8v0.1h1.7v5.1L55.2,13.3l0.1,0.1L55.2,13.3L55.2,13.3z"/>
<path d="M59.8,13.3V7.5h0.8v5.8H59.8z"/>
<path d="M59.8,13.3L59.8,13.3l0.1-5.7h0.6v5.6L59.8,13.3L59.8,13.3L59.8,13.3L59.8,13.3L59.8,13.3l0.8,0.1h0.1v-6h-0.9h-0.1
	L59.8,13.3L59.8,13.3L59.8,13.3z"/>
<path d="M64,13.3h-0.8V8.2h-1.7V7.5h4.1v0.7H64V13.3z"/>
<path d="M64,13.3L64,13.3l-0.7-0.1V8.1h-1.7V7.6h3.9v0.5h-1.7v5.2H64L64,13.3L64,13.3L64,13.3l0.1-5h1.7V7.5V7.4h-4.3v0.8v0.1h1.7
	v5.1L64,13.3L64,13.3L64,13.3L64,13.3z"/>
<path d="M69.7,12c0.4,0.4,1,0.6,1.6,0.6s1.2-0.2,1.6-0.6c0.4-0.4,0.7-1,0.7-1.7s-0.2-1.2-0.7-1.7c-0.4-0.4-1-0.6-1.6-0.6
	s-1.2,0.2-1.6,0.6C69.3,9,69,9.6,69,10.3C69,11.1,69.2,11.6,69.7,12z M73.5,12.5c-0.6,0.6-1.3,0.9-2.2,0.9c-0.9,0-1.6-0.3-2.2-0.9
	c-0.6-0.6-0.9-1.3-0.9-2.1s0.3-1.6,0.9-2.1c0.6-0.6,1.3-0.9,2.2-0.9c0.9,0,1.6,0.3,2.2,0.9s0.9,1.3,0.9,2.1S74.1,11.9,73.5,12.5z"/>
<path d="M69.7,12L69.7,12c0.4,0.5,1,0.7,1.6,0.7c0.7,0,1.2-0.2,1.7-0.7s0.7-1,0.7-1.7S73.5,9,73,8.6C72.6,8.2,72,8,71.3,8
	s-1.2,0.2-1.7,0.7s-0.7,1-0.7,1.7C68.9,11.1,69.2,11.7,69.7,12L69.7,12L69.7,12c-0.4-0.5-0.6-1-0.6-1.7s0.2-1.2,0.6-1.6
	c0.4-0.4,0.9-0.6,1.6-0.6c0.6,0,1.1,0.2,1.6,0.6c0.4,0.4,0.6,0.9,0.6,1.6c0,0.7-0.2,1.2-0.6,1.6c-0.4,0.4-0.9,0.6-1.6,0.6
	C70.7,12.6,70.2,12.4,69.7,12L69.7,12z M73.5,12.5L73.5,12.5c-0.6,0.5-1.3,0.8-2.2,0.8c-0.9,0-1.6-0.3-2.1-0.8l0,0l0,0
	c-0.6-0.6-0.9-1.3-0.9-2.1s0.3-1.5,0.9-2.1s1.3-0.8,2.1-0.8c0.8,0,1.5,0.3,2.1,0.9c0.6,0.6,0.9,1.3,0.9,2.1
	C74.3,11.2,74,11.9,73.5,12.5L73.5,12.5L73.5,12.5c0.7-0.5,1-1.3,1-2.1c0-0.9-0.3-1.6-0.9-2.2s-1.4-0.9-2.3-0.9S69.6,7.6,69,8.2l0,0
	c-0.6,0.6-0.9,1.3-0.9,2.2s0.3,1.6,0.9,2.2l0,0l0,0c0.6,0.6,1.4,0.9,2.3,0.9C72.2,13.5,73,13.2,73.5,12.5L73.5,12.5z"/>
<path d="M75.5,13.3V7.5h0.9l2.9,4.5l0,0v-1.1V7.5h0.8v5.8h-0.8l-3.1-4.7l0,0v1.1v3.6C76.2,13.3,75.5,13.3,75.5,13.3z"/>
<path d="M75.5,13.3L75.5,13.3l0.1-5.7h0.8l2.9,4.5h0.1h0.1v-1.2V7.6H80v5.6h-0.6l-3.1-4.7h-0.1h-0.1v1.2v3.5L75.5,13.3L75.5,13.3
	L75.5,13.3L75.5,13.3L75.5,13.3l0.8,0.1h0.1V9.7V8.6h-0.1v0.1l0,0V8.6l-0.1,0.1l3.1,4.8h0.9h0.1v-6h-0.9h-0.1V11v1.1h0.1V12l0,0v0
	l0.1-0.1l-2.9-4.5h-1h-0.1V13.3L75.5,13.3L75.5,13.3z"/>
<path d="M106.8,29.6h1.9v-12h-1.9V29.6z M123.7,21.9l-2.1,5.2h-0.1l-2.2-5.2h-2l3.3,7.3l-1.9,4.1h1.9l5.1-11.3L123.7,21.9
	L123.7,21.9z M113.1,28.3c-0.6,0-1.5-0.3-1.5-1c0-0.9,1.1-1.3,2-1.3c0.8,0,1.2,0.2,1.7,0.4C115.1,27.5,114.1,28.3,113.1,28.3z
	 M113.3,21.7c-1.4,0-2.8,0.6-3.3,1.8l1.7,0.7c0.4-0.7,1-0.9,1.7-0.9c1,0,1.9,0.6,2,1.5V25c-0.3-0.2-1.1-0.5-1.9-0.5
	c-1.8,0-3.6,0.9-3.6,2.7c0,1.6,1.5,2.6,3.1,2.6c1.3,0,1.9-0.5,2.4-1.2h0.1v0.9h1.8V25C117.1,22.9,115.4,21.7,113.3,21.7z
	 M101.8,23.4h-2.7v-4.1h2.7c1.4,0,2.2,1.1,2.2,2.1C103.9,22.3,103.2,23.4,101.8,23.4z M101.7,17.6h-4.5v12h1.9V25h2.6
	c2.1,0,4.1-1.4,4.1-3.7C105.8,19,103.8,17.6,101.7,17.6z M77.3,28.3c-1.3,0-2.4-1-2.4-2.5c0-1.4,1.1-2.5,2.4-2.5s2.3,1.1,2.3,2.5
	C79.6,27.2,78.6,28.3,77.3,28.3z M79.5,22.6L79.5,22.6c-0.5-0.5-1.3-0.9-2.3-0.9c-2.1,0-4.1,1.8-4.1,4.1s1.9,4.1,4.1,4.1
	c1,0,1.8-0.4,2.2-0.9h0.1v0.6c0,1.6-0.9,2.4-2.3,2.4c-1.1,0-1.9-0.8-2.1-1.5l-1.6,0.7c0.5,1.1,1.7,2.4,3.8,2.4c2.2,0,4-1.2,4-4.3V22
	h-1.8C79.5,22,79.5,22.6,79.5,22.6z M82.5,29.6h1.9v-12h-1.9V29.6z M87.2,25.7c0-1.6,1.3-2.4,2.2-2.4c0.7,0,1.4,0.4,1.6,0.9
	L87.2,25.7z M93,24.3c-0.4-0.9-1.4-2.6-3.6-2.6s-4,1.7-4,4.1c0,2.3,1.8,4.1,4.2,4.1c1.9,0,3.1-1.1,3.5-1.8l-1.5-0.9
	c-0.5,0.7-1.1,1.1-2.1,1.1s-1.6-0.4-2.1-1.2l5.7-2.3L93,24.3z M47.7,22.9v1.7H52c-0.1,1-0.5,1.7-1,2.2c-0.6,0.6-1.6,1.3-3.3,1.3
	C45,28.1,43,26,43,23.5s2.1-4.6,4.7-4.6c1.4,0,2.5,0.5,3.3,1.2l1.3-1.2c-1.1-1-2.5-1.8-4.5-1.8C44,17.2,41,20,41,23.5
	s3.1,6.4,6.7,6.4c2,0,3.4-0.6,4.6-1.8c1.2-1.1,1.6-2.8,1.6-4.1c0-0.4,0-0.8-0.1-1.1H47.7z M58.7,28.3c-1.3,0-2.4-1-2.4-2.5
	s1.1-2.5,2.4-2.5c1.3,0,2.4,1,2.4,2.5C61.1,27.2,60,28.3,58.7,28.3z M58.7,21.7c-2.4,0-4.3,1.7-4.3,4.1s1.9,4.1,4.3,4.1
	c2.4,0,4.3-1.7,4.3-4.1S61.1,21.7,58.7,21.7z M68,28.3c-1.3,0-2.4-1-2.4-2.5s1.1-2.5,2.4-2.5s2.4,1,2.4,2.5
	C70.4,27.2,69.3,28.3,68,28.3z M68,21.7c-2.4,0-4.3,1.7-4.3,4.1s1.9,4.1,4.3,4.1s4.3-1.7,4.3-4.1S70.4,21.7,68,21.7z"/>
<linearGradient id="SVGID_1_" gradientUnits="userSpaceOnUse" x1="21.53" y1="6.9436" x2="5.3645" y2="23.687" gradientTransform="matrix(1 0 0 1 0 2)">
	<stop  offset="0" style="stop-color:#00A0FF"/>
	<stop  offset="6.574450e-03" style="stop-color:#00A1FF"/>
	<stop  offset="0.2601" style="stop-color:#00BEFF"/>
	<stop  offset="0.5122" style="stop-color:#00D2FF"/>
	<stop  offset="0.7604" style="stop-color:#00DFFF"/>
	<stop  offset="1" style="stop-color:#00E3FF"/>
</linearGradient>
<path class="st1" d="M10.4,31.9L10.4,31.9c-0.4-0.4-0.5-0.8-0.5-1.4v0.1V9.4l0,0l0,0v0.1c0-0.6,0.2-1.1,0.5-1.4L22.8,20L10.4,31.9z
	 M9.9,9.4c0-0.1,0-0.1,0-0.2C9.9,9.2,9.9,9.3,9.9,9.4z M9.9,9.2L9.9,9.2L9.9,9.2z M9.9,9.2L9.9,9.2L9.9,9.2z"/>
<linearGradient id="SVGID_2_" gradientUnits="userSpaceOnUse" x1="33.7435" y1="18.05" x2="9.5464" y2="18.05" gradientTransform="matrix(1 0 0 1 0 2)">
	<stop  offset="0" style="stop-color:#FFE000"/>
	<stop  offset="0.4087" style="stop-color:#FFBD00"/>
	<stop  offset="0.7754" style="stop-color:#FFA500"/>
	<stop  offset="1" style="stop-color:#FF9C00"/>
</linearGradient>
<path class="st2" d="M26.9,24.1L26.9,24.1l5-2.7c0.5-0.3,0.8-0.6,0.9-0.9c-0.2,0.3-0.5,0.6-0.9,0.9L26.9,24.1L26.9,24.1z M26.9,24
	l-4.1-4l4.1-4l5,2.7c0.6,0.3,1,0.8,1,1.2l0,0c-0.1,0.5-0.4,0.9-1,1.2L26.9,24z"/>
<linearGradient id="SVGID_3_" gradientUnits="userSpaceOnUse" x1="24.4568" y1="19.9356" x2="2.5236" y2="42.6528" gradientTransform="matrix(1 0 0 1 0 2)">
	<stop  offset="0" style="stop-color:#FF3A44"/>
	<stop  offset="1" style="stop-color:#C31162"/>
</linearGradient>
<path class="st3" d="M11.3,32.4c-0.3,0-0.6-0.1-0.9-0.3l0,0C10.7,32.3,11,32.4,11.3,32.4C11.3,32.4,11.4,32.4,11.3,32.4
	C11.4,32.4,11.3,32.4,11.3,32.4z M11.3,32.2c-0.3,0-0.6-0.1-0.9-0.3l0,0L22.8,20l4.1,4l-14.5,7.9C12,32.1,11.6,32.2,11.3,32.2z
	 M10.4,32.1C10.4,32,10.4,32,10.4,32.1L10.4,32.1z"/>
<linearGradient id="SVGID_4_" gradientUnits="userSpaceOnUse" x1="7.6149" y1="-1.4814" x2="17.4093" y2="8.6632" gradientTransform="matrix(1 0 0 1 0 2)">
	<stop  offset="0" style="stop-color:#32A071"/>
	<stop  offset="6.850000e-02" style="stop-color:#2DA771"/>
	<stop  offset="0.4762" style="stop-color:#15CF74"/>
	<stop  offset="0.8009" style="stop-color:#06E775"/>
	<stop  offset="1" style="stop-color:#00F076"/>
</linearGradient>
<path class="st4" d="M22.8,20L10.4,8.1c0.2-0.2,0.5-0.3,0.9-0.3c0.3,0,0.7,0.1,1.1,0.3L26.9,16L22.8,20z M27,15.9L12.4,8
	c-0.4-0.2-0.8-0.3-1.1-0.3l0,0l0,0c0.3,0,0.7,0.1,1.1,0.3L27,15.9z"/>
<path class="st0" d="M11.4,32.4c0.3,0,0.7-0.1,1-0.3l14.5-7.9l-14.5,7.9C12.1,32.3,11.7,32.4,11.4,32.4z M10.4,32.1L10.4,32.1
	L10.4,32.1z M10.4,32L10.4,32L10.4,32C10.3,32,10.3,32,10.4,32z"/>
<linearGradient id="SVGID_5_" gradientUnits="userSpaceOnUse" x1="26.9" y1="22.1" x2="26.9" y2="22.1" gradientTransform="matrix(1 0 0 1 0 2)">
	<stop  offset="0" style="stop-color:#CCB300"/>
	<stop  offset="0.4087" style="stop-color:#CC9700"/>
	<stop  offset="0.7754" style="stop-color:#CC8400"/>
	<stop  offset="1" style="stop-color:#CC7D00"/>
</linearGradient>
<path class="st5" d="M26.9,24.1L26.9,24.1L26.9,24.1z"/>
<linearGradient id="SVGID_6_" gradientUnits="userSpaceOnUse" x1="24.5334" y1="20.0081" x2="2.5991" y2="42.7264" gradientTransform="matrix(1 0 0 1 0 2)">
	<stop  offset="0" style="stop-color:#CC2E36"/>
	<stop  offset="1" style="stop-color:#9C0E4E"/>
</linearGradient>
<path class="st6" d="M11.3,32.4c-0.3,0-0.6-0.1-0.9-0.3l0,0l0,0l0-0.1l0,0l0.1-0.1c0.2,0.2,0.5,0.3,0.9,0.3c0.3,0,0.7-0.1,1.1-0.3
	L26.9,24l0.1,0.1l-0.1,0.1l-14.5,7.9C12.1,32.3,11.7,32.4,11.3,32.4C11.4,32.4,11.3,32.4,11.3,32.4z"/>
<path class="st0" d="M10.3,32c-0.3-0.3-0.5-0.8-0.5-1.4l0,0C9.9,31.2,10.1,31.7,10.3,32L10.3,32z"/>
<linearGradient id="SVGID_7_" gradientUnits="userSpaceOnUse" x1="26.6795" y1="12.0259" x2="10.5658" y2="28.7157" gradientTransform="matrix(1 0 0 1 0 2)">
	<stop  offset="0" style="stop-color:#008DE0"/>
	<stop  offset="6.574450e-03" style="stop-color:#008DE0"/>
	<stop  offset="0.2601" style="stop-color:#00A7E0"/>
	<stop  offset="0.5122" style="stop-color:#00B8E0"/>
	<stop  offset="0.7604" style="stop-color:#00C4E0"/>
	<stop  offset="1" style="stop-color:#00C7E0"/>
</linearGradient>
<path class="st7" d="M10.3,32c-0.3-0.3-0.5-0.8-0.5-1.4v-0.1c0,0.6,0.2,1.1,0.5,1.4V32L10.3,32z"/>
<linearGradient id="SVGID_8_" gradientUnits="userSpaceOnUse" x1="10.3" y1="30" x2="10.3" y2="30" gradientTransform="matrix(1 0 0 1 0 2)">
	<stop  offset="0" style="stop-color:#E0333C"/>
	<stop  offset="1" style="stop-color:#AB0F56"/>
</linearGradient>
<path class="st8" d="M10.3,32L10.3,32L10.3,32L10.3,32z"/>
<path class="st0" d="M32.9,20.5C33,20.3,33,20.2,33,20l0,0C33,20.2,32.9,20.3,32.9,20.5z"/>
<linearGradient id="SVGID_9_" gradientUnits="userSpaceOnUse" x1="33.7425" y1="20.1" x2="9.5454" y2="20.1" gradientTransform="matrix(1 0 0 1 0 2)">
	<stop  offset="0" style="stop-color:#E0C500"/>
	<stop  offset="0.4087" style="stop-color:#E0A600"/>
	<stop  offset="0.7754" style="stop-color:#E09100"/>
	<stop  offset="1" style="stop-color:#E08900"/>
</linearGradient>
<path class="st9" d="M27,24.1L27,24.1l4.9-2.8c0.6-0.3,1-0.8,1-1.2c0,0.2,0,0.3-0.1,0.5c-0.2,0.3-0.5,0.6-0.9,0.9L27,24.1z"/>
<path class="st10" d="M33,20L33,20c0-0.5-0.4-1-1-1.4l-5-2.7l0,0l0,0l4.9,2.7C32.6,19,33,19.5,33,20z"/>
<linearGradient id="SVGID_10_" gradientUnits="userSpaceOnUse" x1="33.7428" y1="16" x2="9.5458" y2="16" gradientTransform="matrix(1 0 0 1 0 2)">
	<stop  offset="0" style="stop-color:#FFE840"/>
	<stop  offset="0.4087" style="stop-color:#FFCE40"/>
	<stop  offset="0.7754" style="stop-color:#FFBC40"/>
	<stop  offset="1" style="stop-color:#FFB540"/>
</linearGradient>
<path class="st11" d="M33,20c-0.1-0.5-0.4-0.9-1-1.2l-5-2.7l0.1-0.1l0,0l4.9,2.7C32.6,19,33,19.5,33,20z"/>
<path class="st10" d="M9.9,9.4L9.9,9.4L9.9,9.4z M9.9,9.2L9.9,9.2L9.9,9.2z M9.9,9.2L9.9,9.2L9.9,9.2z M9.9,9.2
	c0.1-1,0.6-1.6,1.4-1.6c-0.3,0-0.6,0.1-0.9,0.3l0,0l0,0c0,0,0,0-0.1,0.1C10.1,8.3,9.9,8.7,9.9,9.2z"/>
<linearGradient id="SVGID_11_" gradientUnits="userSpaceOnUse" x1="15.4934" y1="1.1656" x2="-0.6579" y2="17.8943" gradientTransform="matrix(1 0 0 1 0 2)">
	<stop  offset="0" style="stop-color:#40B8FF"/>
	<stop  offset="6.574450e-03" style="stop-color:#40B9FF"/>
	<stop  offset="0.2601" style="stop-color:#40CEFF"/>
	<stop  offset="0.5122" style="stop-color:#40DDFF"/>
	<stop  offset="0.7604" style="stop-color:#40E7FF"/>
	<stop  offset="1" style="stop-color:#40EAFF"/>
</linearGradient>
<path class="st12" d="M9.9,9.5V9.4l0,0l0,0c0-0.1,0-0.1,0-0.2l0,0l0,0l0,0l0,0c0-0.5,0.2-0.9,0.5-1.2l0.1,0.1
	C10.1,8.4,9.9,8.9,9.9,9.5z M10.4,7.9L10.4,7.9L10.4,7.9z"/>
<linearGradient id="SVGID_12_" gradientUnits="userSpaceOnUse" x1="7.5642" y1="-1.4302" x2="17.3587" y2="8.7144" gradientTransform="matrix(1 0 0 1 0 2)">
	<stop  offset="0" style="stop-color:#65B895"/>
	<stop  offset="6.850000e-02" style="stop-color:#62BD95"/>
	<stop  offset="0.4762" style="stop-color:#50DB97"/>
	<stop  offset="0.8009" style="stop-color:#44ED98"/>
	<stop  offset="1" style="stop-color:#40F498"/>
</linearGradient>
<path class="st13" d="M26.9,16L12.4,8.1c-0.4-0.2-0.8-0.3-1.1-0.3s-0.6,0.1-0.9,0.3L10.3,8c0,0,0,0,0.1-0.1l0,0
	c0.2-0.2,0.5-0.3,0.9-0.3l0,0l0,0c0.3,0,0.7,0.1,1.1,0.3L26.9,16L26.9,16L26.9,16z"/>
</svg>
