<?xml version="1.0" encoding="utf-8"?>
<!-- Generator: Adobe Illustrator 24.0.0, SVG Export Plug-In . SVG Version: 6.00 Build 0)  -->
<svg version="1.1" id="Layer_1" xmlns="http://www.w3.org/2000/svg" xmlns:xlink="http://www.w3.org/1999/xlink" x="0px" y="0px"
	 viewBox="0 0 135 40" style="enable-background:new 0 0 135 40;" xml:space="preserve">
<style type="text/css">
	.st0{fill:#FFFFFF;}
</style>
<g>
	<path class="st0" d="M115.8,39.2H19.2C8.6,39.2,0,30.6,0,20v0C0,9.4,8.6,0.8,19.2,0.8h96.6C126.4,0.8,135,9.4,135,20v0
		C135,30.6,126.4,39.2,115.8,39.2z"/>
</g>
<path d="M32.5,19.9c0-0.8,0.2-1.7,0.7-2.4c0.4-0.7,1-1.3,1.8-1.8c-0.5-0.6-1.1-1.2-1.8-1.6c-0.7-0.4-1.5-0.6-2.3-0.6
	c-1.7-0.2-3.4,1-4.3,1s-2.3-1-3.7-1c-1,0-1.9,0.3-2.7,0.8c-0.8,0.5-1.5,1.2-1.9,2c-2,3.4-0.5,8.3,1.4,11c1,1.3,2.1,2.8,3.5,2.8
	c1.4-0.1,2-0.9,3.7-0.9s2.2,0.9,3.7,0.9s2.5-1.3,3.4-2.7c0.7-0.9,1.2-2,1.6-3.1c-0.9-0.4-1.7-1-2.2-1.8
	C32.7,21.8,32.5,20.8,32.5,19.9z"/>
<path d="M29.6,11.8c0.8-1,1.3-2.2,1.2-3.5C29.5,8.4,28.3,9,27.5,10c-0.4,0.5-0.7,1-0.9,1.6c-0.2,0.6-0.3,1.2-0.2,1.8
	c0.6,0,1.3-0.1,1.9-0.4C28.7,12.6,29.2,12.3,29.6,11.8z"/>
<path d="M49.7,26.9H45l-1.1,3.2h-2l4.5-12h2.1l4.5,12h-2L49.7,26.9z M45.5,25.4h3.7l-1.8-5.3h-0.1L45.5,25.4z"/>
<path d="M62.5,25.8c0,2.7-1.5,4.5-3.8,4.5c-0.6,0-1.1-0.1-1.6-0.4s-0.9-0.7-1.2-1.2l0,0V33H54V21.4h1.8v1.5l0,0
	c0.3-0.5,0.7-0.9,1.2-1.2c0.5-0.3,1.1-0.4,1.7-0.4C61,21.3,62.5,23.1,62.5,25.8z M60.6,25.8c0-1.8-0.9-2.9-2.4-2.9
	c-1.4,0-2.4,1.2-2.4,2.9c0,1.8,1,2.9,2.4,2.9C59.6,28.7,60.6,27.6,60.6,25.8L60.6,25.8z"/>
<path d="M72.4,25.8c0,2.7-1.5,4.5-3.8,4.5c-0.6,0-1.1-0.1-1.6-0.4s-0.9-0.7-1.2-1.2l0,0V33h-1.9V21.4h1.8v1.5l0,0
	c0.3-0.5,0.7-0.9,1.2-1.2c0.5-0.3,1.1-0.4,1.7-0.4C70.9,21.3,72.4,23.1,72.4,25.8z M70.5,25.8c0-1.8-0.9-2.9-2.4-2.9
	c-1.4,0-2.4,1.2-2.4,2.9c0,1.8,1,2.9,2.4,2.9C69.6,28.7,70.5,27.6,70.5,25.8z"/>
<path d="M79,26.8c0.1,1.2,1.3,2,3,2c1.6,0,2.7-0.8,2.7-1.9c0-0.9-0.7-1.5-2.3-1.9l-1.6-0.4c-2.3-0.5-3.3-1.6-3.3-3.2
	c0-2.1,1.9-3.5,4.5-3.5s4.4,1.4,4.5,3.5h-1.9c-0.1-1.2-1.1-1.9-2.6-1.9s-2.5,0.7-2.5,1.8c0,0.8,0.7,1.3,2.2,1.7l1.4,0.3
	c2.5,0.6,3.6,1.6,3.6,3.3c0,2.2-1.8,3.7-4.8,3.7c-2.7,0-4.6-1.4-4.7-3.5H79z"/>
<path d="M90.6,19.3v2.1h1.7v1.4h-1.7v4.8c0,0.7,0.3,1.1,1.1,1.1c0.2,0,0.4,0,0.6,0v1.4c-0.3,0.1-0.7,0.1-1,0.1
	c-1.8,0-2.5-0.7-2.5-2.4v-5h-1.3v-1.4h1.3v-2.1H90.6z"/>
<path d="M93.3,25.8c0-2.8,1.7-4.5,4.3-4.5c2.6,0,4.3,1.7,4.3,4.5s-1.7,4.5-4.3,4.5C94.9,30.3,93.3,28.5,93.3,25.8z M99.9,25.8
	c0-1.9-0.9-3-2.4-3s-2.4,1.1-2.4,3s0.9,3,2.4,3S99.9,27.7,99.9,25.8L99.9,25.8z"/>
<path d="M103.3,21.4h1.8v1.5l0,0c0.1-0.5,0.4-0.9,0.8-1.2c0.4-0.3,0.9-0.4,1.4-0.4c0.2,0,0.4,0,0.6,0.1v1.7
	c-0.3-0.1-0.5-0.1-0.8-0.1s-0.5,0-0.8,0.1c-0.2,0.1-0.5,0.3-0.7,0.4c-0.2,0.2-0.3,0.4-0.4,0.7c-0.1,0.2-0.1,0.5-0.1,0.8v5.2h-1.9
	L103.3,21.4L103.3,21.4z"/>
<path d="M116.5,27.6c-0.2,1.6-1.8,2.7-3.9,2.7c-2.6,0-4.3-1.7-4.3-4.4s1.6-4.5,4.2-4.5c2.5,0,4.1,1.7,4.1,4.3v0.6h-6.4v0.1
	c0,0.3,0,0.6,0.1,1c0.1,0.3,0.3,0.6,0.5,0.8c0.2,0.2,0.5,0.4,0.8,0.5s0.6,0.2,1,0.2s0.9-0.1,1.3-0.3c0.4-0.2,0.7-0.6,0.8-1
	C114.7,27.6,116.5,27.6,116.5,27.6z M110.2,25h4.5c0-0.3,0-0.6-0.1-0.9s-0.3-0.5-0.5-0.7s-0.5-0.4-0.7-0.5c-0.3-0.1-0.6-0.2-0.9-0.2
	s-0.6,0.1-0.9,0.2s-0.5,0.3-0.7,0.5s-0.4,0.5-0.5,0.7C110.3,24.4,110.2,24.7,110.2,25L110.2,25z"/>
<path d="M45.2,9.1c0.4,0,0.8,0,1.1,0.2c0.4,0.1,0.7,0.3,1,0.6s0.5,0.6,0.6,1s0.2,0.7,0.1,1.1c0,1.8-1,2.9-2.8,2.9h-2.1V9.1H45.2z
	 M44,14.1h1.1c0.3,0,0.6,0,0.8-0.1c0.3-0.1,0.5-0.3,0.7-0.5s0.3-0.4,0.4-0.7c0.1-0.3,0.1-0.5,0.1-0.8s0-0.5-0.1-0.8
	s-0.2-0.5-0.4-0.7s-0.4-0.4-0.7-0.5s-0.5-0.1-0.8-0.1H44V14.1z"/>
<path d="M49.1,12.7c0-0.3,0-0.6,0.1-0.8c0.1-0.3,0.2-0.5,0.4-0.7s0.4-0.4,0.7-0.5s0.6-0.2,0.9-0.2c0.3,0,0.6,0.1,0.9,0.2
	c0.3,0.1,0.5,0.3,0.7,0.5s0.4,0.5,0.4,0.7c0.1,0.3,0.1,0.6,0.1,0.8c0,0.3,0,0.6-0.1,0.8c-0.1,0.3-0.2,0.5-0.4,0.7s-0.4,0.4-0.7,0.5
	s-0.6,0.2-0.9,0.2c-0.3,0-0.6-0.1-0.9-0.2c-0.3-0.1-0.5-0.3-0.7-0.5s-0.4-0.5-0.4-0.7C49.1,13.3,49,13,49.1,12.7z M52.4,12.7
	c0-0.9-0.4-1.5-1.2-1.5S50,11.8,50,12.7c0,1,0.4,1.5,1.2,1.5C51.9,14.2,52.4,13.6,52.4,12.7L52.4,12.7z"/>
<path d="M58.9,14.9H58l-0.9-3.2H57l-0.9,3.2h-0.9L54,10.5h0.9l0.8,3.3h0.1l0.9-3.3h0.8l0.9,3.3h0.1l0.8-3.3h0.9L58.9,14.9z"/>
<path d="M61.2,10.5H62v0.7h0.1c0.1-0.2,0.3-0.5,0.5-0.6s0.5-0.2,0.8-0.2c0.2,0,0.4,0,0.6,0.1c0.2,0.1,0.4,0.2,0.5,0.4
	c0.1,0.2,0.3,0.3,0.3,0.5c0.1,0.2,0.1,0.4,0,0.6v2.8h-0.9v-2.6c0-0.7-0.3-1-1-1c-0.1,0-0.3,0-0.4,0.1s-0.3,0.1-0.4,0.2
	c-0.1,0.1-0.2,0.2-0.2,0.4c0,0.1-0.1,0.3,0,0.4v2.5H61v-4.3H61.2z"/>
<path d="M66.4,8.8h0.9v6.1h-0.9V8.8z"/>
<path d="M68.5,12.7c0-0.3,0-0.6,0.1-0.8c0.1-0.3,0.2-0.5,0.4-0.7c0.2-0.2,0.4-0.4,0.7-0.5c0.3-0.1,0.6-0.2,0.9-0.2s0.6,0.1,0.9,0.2
	c0.3,0.1,0.5,0.3,0.7,0.5s0.4,0.5,0.4,0.7c0.1,0.3,0.1,0.6,0.1,0.8c0,0.3,0,0.6-0.1,0.8c-0.1,0.3-0.2,0.5-0.4,0.7
	c-0.2,0.2-0.4,0.4-0.7,0.5c-0.3,0.1-0.6,0.2-0.9,0.2s-0.6-0.1-0.9-0.2c-0.3-0.1-0.5-0.3-0.7-0.5s-0.4-0.5-0.4-0.7
	C68.5,13.3,68.5,13,68.5,12.7z M71.8,12.7c0-0.9-0.4-1.5-1.2-1.5c-0.8,0-1.2,0.6-1.2,1.5c0,1,0.4,1.5,1.2,1.5S71.8,13.6,71.8,12.7
	L71.8,12.7z"/>
<path d="M73.7,13.6c0-0.8,0.6-1.2,1.7-1.3l1.2-0.1v-0.4c0-0.5-0.3-0.7-0.9-0.7c-0.5,0-0.8,0.2-0.9,0.5h-0.9c0.1-0.7,0.8-1.2,1.8-1.2
	c1.1,0,1.8,0.5,1.8,1.5v3h-0.9v-0.6h-0.1c-0.1,0.2-0.3,0.4-0.6,0.5c-0.2,0.1-0.5,0.2-0.8,0.2c-0.2,0-0.4,0-0.6-0.1s-0.3-0.1-0.5-0.3
	c-0.1-0.1-0.3-0.3-0.3-0.4C73.7,14,73.7,13.8,73.7,13.6z M76.6,13.3v-0.4L75.5,13c-0.6,0-0.9,0.2-0.9,0.6c0,0.4,0.3,0.6,0.8,0.6
	c0.1,0,0.3,0,0.4,0s0.3-0.1,0.4-0.2c0.1-0.1,0.2-0.2,0.3-0.3C76.5,13.5,76.6,13.4,76.6,13.3z"/>
<path d="M78.6,12.7c0-1.4,0.7-2.2,1.9-2.2c0.3,0,0.6,0.1,0.8,0.2c0.2,0.1,0.4,0.3,0.6,0.6H82V8.8h0.9v6.1h-0.8v-0.7H82
	c-0.1,0.2-0.3,0.4-0.6,0.6C81,14.9,80.8,15,80.5,15C79.3,15,78.6,14.1,78.6,12.7z M79.5,12.7c0,0.9,0.4,1.5,1.2,1.5
	c0.7,0,1.2-0.6,1.2-1.5s-0.5-1.5-1.2-1.5S79.5,11.8,79.5,12.7L79.5,12.7z"/>
<path d="M86.5,12.7c0-0.3,0-0.6,0.1-0.8c0.1-0.3,0.2-0.5,0.4-0.7c0.2-0.2,0.4-0.4,0.7-0.5c0.3-0.1,0.6-0.2,0.9-0.2s0.6,0.1,0.9,0.2
	c0.3,0.1,0.5,0.3,0.7,0.5s0.4,0.5,0.4,0.7c0.1,0.3,0.1,0.6,0.1,0.8c0,0.3,0,0.6-0.1,0.8c-0.1,0.3-0.2,0.5-0.4,0.7
	c-0.2,0.2-0.4,0.4-0.7,0.5c-0.3,0.1-0.6,0.2-0.9,0.2s-0.6-0.1-0.9-0.2c-0.3-0.1-0.5-0.3-0.7-0.5s-0.4-0.5-0.4-0.7
	C86.5,13.3,86.4,13,86.5,12.7z M89.8,12.7c0-0.9-0.4-1.5-1.2-1.5c-0.8,0-1.2,0.6-1.2,1.5c0,1,0.4,1.5,1.2,1.5
	C89.3,14.2,89.8,13.6,89.8,12.7z"/>
<path d="M91.9,10.5h0.9v0.7h0.1c0.1-0.2,0.3-0.5,0.5-0.6s0.5-0.2,0.8-0.2c0.2,0,0.4,0,0.6,0.1s0.4,0.2,0.5,0.4s0.3,0.3,0.3,0.5
	c0.1,0.2,0.1,0.4,0,0.6v2.8h-0.9v-2.6c0-0.7-0.3-1-1-1c-0.1,0-0.3,0-0.4,0.1s-0.3,0.1-0.4,0.2c-0.1,0.1-0.2,0.2-0.2,0.4
	c0,0.1-0.1,0.3,0,0.4v2.5h-0.9L91.9,10.5L91.9,10.5z"/>
<path d="M100.7,9.4v1.1h1v0.7h-1v2.2c0,0.5,0.2,0.7,0.6,0.7c0.1,0,0.2,0,0.3,0v0.7c-0.2,0-0.3,0-0.5,0c-1,0-1.4-0.3-1.4-1.2v-2.5H99
	v-0.7h0.7v-1H100.7z"/>
<path d="M102.9,8.8h0.9v2.4h0.1c0.1-0.3,0.3-0.5,0.6-0.6c0.2-0.1,0.5-0.2,0.8-0.2c0.2,0,0.4,0,0.6,0.1s0.4,0.2,0.5,0.4
	s0.3,0.3,0.3,0.5c0.1,0.2,0.1,0.4,0.1,0.6v2.8h-0.9v-2.6c0-0.7-0.3-1-1-1c-0.2,0-0.3,0-0.4,0.1s-0.3,0.1-0.4,0.2
	c-0.1,0.1-0.2,0.2-0.2,0.4c-0.1,0.1-0.1,0.3-0.1,0.4v2.5h-0.9V8.8z"/>
<path d="M111.9,13.7c-0.1,0.4-0.4,0.7-0.7,1c-0.4,0.2-0.8,0.3-1.2,0.3c-0.3,0-0.6,0-0.9-0.2c-0.3-0.1-0.5-0.3-0.7-0.5
	s-0.3-0.5-0.4-0.7c-0.1-0.3-0.1-0.6-0.1-0.8c0-0.3,0-0.6,0.1-0.9s0.2-0.5,0.4-0.7c0.2-0.2,0.4-0.4,0.7-0.5c0.3-0.1,0.6-0.2,0.9-0.2
	c1.2,0,2,0.8,2,2.2V13h-3.2l0,0c0,0.2,0,0.3,0.1,0.5s0.1,0.3,0.3,0.4c0.1,0.1,0.2,0.2,0.4,0.3s0.3,0.1,0.5,0.1s0.4,0,0.6-0.1
	s0.3-0.2,0.5-0.4L111.9,13.7z M108.8,12.3h2.3c0-0.1,0-0.3-0.1-0.4c-0.1-0.1-0.1-0.3-0.2-0.4c-0.1-0.1-0.2-0.2-0.4-0.2
	c-0.1-0.1-0.3-0.1-0.4-0.1c-0.2,0-0.3,0-0.4,0.1s-0.3,0.1-0.4,0.2c-0.1,0.1-0.2,0.2-0.3,0.4C108.8,12,108.8,12.2,108.8,12.3
	L108.8,12.3z"/>
</svg>
