<svg width="654" height="645" viewBox="0 0 654 645" fill="none" xmlns="http://www.w3.org/2000/svg">
<g filter="url(#filter0_d)">
<path d="M604.1 332.225C604.1 481.186 483.347 601.897 334.428 601.897" stroke="#4D4D4D" stroke-width="2.37" stroke-miterlimit="10"/>
<path d="M296.916 65.0787C309.327 63.3579 321.841 62.4949 334.37 62.4961C483.346 62.4961 604.042 183.263 604.042 332.168" stroke="#4D4D4D" stroke-width="1.39" stroke-miterlimit="10" stroke-linecap="round"/>
<path d="M64.6406 332.225C64.6406 195.962 165.675 83.3131 296.915 65.0781" stroke="#4D4D4D" stroke-width="2.37" stroke-miterlimit="10"/>
<path d="M334.369 601.953C185.408 601.953 64.6973 481.186 64.6973 332.281" stroke="#3A3E4E" stroke-width="0.7" stroke-miterlimit="10"/>
<path d="M437.673 629.833C464.45 629.833 486.157 608.126 486.157 581.349C486.157 554.572 464.45 532.865 437.673 532.865C410.896 532.865 389.189 554.572 389.189 581.349C389.189 608.126 410.896 629.833 437.673 629.833Z" fill="white" stroke="#4D4D4D" stroke-width="2.09" stroke-miterlimit="10"/>
<path d="M231.38 629.833C258.157 629.833 279.864 608.126 279.864 581.349C279.864 554.572 258.157 532.865 231.38 532.865C204.603 532.865 182.896 554.572 182.896 581.349C182.896 608.126 204.603 629.833 231.38 629.833Z" fill="white" stroke="#4D4D4D" stroke-width="2.09" stroke-miterlimit="10"/>
<path d="M85.2729 484.196C112.05 484.196 133.757 462.489 133.757 435.712C133.757 408.936 112.05 387.229 85.2729 387.229C58.496 387.229 36.7891 408.936 36.7891 435.712C36.7891 462.489 58.496 484.196 85.2729 484.196Z" fill="white" stroke="#4D4D4D" stroke-width="2.09" stroke-miterlimit="10"/>
<path d="M85.0444 277.677C111.821 277.677 133.528 255.97 133.528 229.193C133.528 202.416 111.821 180.709 85.0444 180.709C58.2675 180.709 36.5605 202.416 36.5605 229.193C36.5605 255.97 58.2675 277.677 85.0444 277.677Z" fill="white" stroke="#4D4D4D" stroke-width="2.09" stroke-miterlimit="10"/>
<path d="M472.028 117.268C490.962 98.3336 490.962 67.6352 472.028 48.7011C453.093 29.767 422.395 29.767 403.461 48.7011C384.527 67.6352 384.527 98.3335 403.461 117.268C422.395 136.202 453.093 136.202 472.028 117.268Z" fill="white" stroke="#4D4D4D" stroke-width="2.09" stroke-miterlimit="10"/>
<path d="M631.324 234.635C635.608 208.126 617.591 183.163 591.082 178.878C564.573 174.594 539.61 192.611 535.326 219.12C531.041 245.629 549.058 270.592 575.567 274.877C602.077 279.161 627.04 261.144 631.324 234.635Z" fill="white" stroke="#4D4D4D" stroke-width="2.09595" stroke-miterlimit="10"/>
<path d="M630.884 446.614C636.948 420.533 620.722 394.474 594.641 388.41C568.559 382.345 542.5 398.572 536.436 424.653C530.371 450.734 546.598 476.793 572.679 482.858C598.76 488.922 624.819 472.695 630.884 446.614Z" fill="white" stroke="#4D4D4D" stroke-width="2.09" stroke-miterlimit="10"/>
<path d="M265.332 117.227C284.266 98.2925 284.266 67.5942 265.332 48.6601C246.398 29.7259 215.7 29.7259 196.766 48.6601C177.832 67.5942 177.832 98.2925 196.766 117.227C215.7 136.161 246.398 136.161 265.332 117.227Z" fill="white" stroke="#4D4D4D" stroke-width="2.09" stroke-miterlimit="10"/>
<path d="M405.882 217.592C405.592 219.251 404.805 220.784 403.626 221.986C402.446 223.189 400.929 224.005 399.275 224.326C400.918 224.66 402.421 225.481 403.589 226.683C404.758 227.884 405.537 229.41 405.825 231.061C406.119 229.411 406.902 227.886 408.072 226.686C409.242 225.485 410.746 224.663 412.388 224.326C410.754 223.983 409.261 223.158 408.101 221.957C406.942 220.757 406.168 219.236 405.882 217.592Z" fill="#E3E4E9"/>
<path d="M391.357 189.141C390.877 191.937 389.562 194.524 387.587 196.56C385.611 198.597 383.066 199.99 380.285 200.555C383.064 201.125 385.607 202.518 387.582 204.554C389.557 206.591 390.873 209.175 391.357 211.97C391.844 209.176 393.16 206.592 395.135 204.557C397.109 202.521 399.651 201.126 402.43 200.555C399.651 199.986 397.108 198.592 395.133 196.556C393.157 194.52 391.842 191.936 391.357 189.141Z" fill="white"/>
<path d="M228.756 446.513C234.871 446.513 239.828 441.422 239.828 435.141C239.828 428.861 234.871 423.77 228.756 423.77C222.641 423.77 217.684 428.861 217.684 435.141C217.684 441.422 222.641 446.513 228.756 446.513Z" fill="white"/>
<path d="M108.13 483.07C110.281 483.07 112.025 481.326 112.025 479.175C112.025 477.023 110.281 475.279 108.13 475.279C105.978 475.279 104.234 477.023 104.234 479.175C104.234 481.326 105.978 483.07 108.13 483.07Z" fill="#4D4D4D"/>
<path d="M395.396 595.733C395.399 596.626 395.137 597.499 394.643 598.243C394.148 598.987 393.444 599.567 392.62 599.91C391.795 600.253 390.888 600.343 390.012 600.17C389.136 599.996 388.331 599.567 387.7 598.935C387.068 598.304 386.638 597.499 386.465 596.623C386.291 595.747 386.382 594.839 386.725 594.015C387.068 593.191 387.648 592.487 388.392 591.992C389.135 591.498 390.009 591.235 390.902 591.238C392.093 591.242 393.234 591.717 394.076 592.559C394.918 593.401 395.393 594.542 395.396 595.733Z" fill="#4D4D4D"/>
<path d="M601.659 275.978C601.659 276.76 601.426 277.525 600.991 278.175C600.557 278.825 599.938 279.332 599.215 279.631C598.492 279.929 597.697 280.007 596.93 279.853C596.163 279.699 595.459 279.322 594.906 278.767C594.354 278.213 593.979 277.508 593.828 276.74C593.677 275.972 593.758 275.177 594.059 274.455C594.36 273.733 594.869 273.117 595.521 272.685C596.173 272.252 596.938 272.023 597.72 272.025C598.239 272.025 598.752 272.128 599.231 272.327C599.71 272.525 600.144 272.817 600.51 273.184C600.876 273.551 601.166 273.987 601.363 274.466C601.56 274.946 601.66 275.459 601.659 275.978Z" fill="#4D4D4D"/>
<path d="M480.592 108.839C482.428 108.839 483.917 107.35 483.917 105.514C483.917 103.678 482.428 102.189 480.592 102.189C478.756 102.189 477.268 103.678 477.268 105.514C477.268 107.35 478.756 108.839 480.592 108.839Z" fill="#4D4D4D"/>
<path d="M529.218 141.542C529.216 142.276 528.996 142.991 528.586 143.6C528.177 144.208 527.597 144.681 526.918 144.96C526.24 145.238 525.495 145.31 524.776 145.165C524.057 145.02 523.398 144.666 522.88 144.146C522.363 143.627 522.011 142.966 521.869 142.247C521.727 141.527 521.801 140.782 522.083 140.105C522.364 139.428 522.839 138.85 523.449 138.443C524.059 138.036 524.775 137.818 525.509 137.818C525.997 137.818 526.481 137.915 526.932 138.102C527.383 138.289 527.792 138.564 528.137 138.91C528.481 139.256 528.754 139.667 528.94 140.118C529.126 140.57 529.22 141.054 529.218 141.542Z" fill="#4D4D4D"/>
<path d="M545.726 160.119C545.723 160.875 545.496 161.613 545.075 162.24C544.653 162.867 544.054 163.355 543.355 163.642C542.657 163.929 541.888 164.003 541.147 163.854C540.406 163.705 539.726 163.339 539.193 162.804C538.66 162.269 538.297 161.587 538.151 160.846C538.004 160.105 538.081 159.336 538.371 158.639C538.66 157.941 539.151 157.344 539.779 156.925C540.408 156.505 541.146 156.281 541.902 156.281C542.405 156.281 542.904 156.381 543.369 156.574C543.834 156.767 544.256 157.05 544.611 157.406C544.966 157.763 545.248 158.186 545.439 158.652C545.63 159.117 545.728 159.616 545.726 160.119Z" fill="#4D4D4D"/>
<path d="M146.941 141.955C149.187 141.955 151.008 140.135 151.008 137.889C151.008 135.643 149.187 133.822 146.941 133.822C144.696 133.822 142.875 135.643 142.875 137.889C142.875 140.135 144.696 141.955 146.941 141.955Z" fill="#4D4D4D"/>
<path d="M76.2116 275.28C76.2116 276.408 75.8768 277.512 75.2497 278.45C74.6226 279.389 73.7312 280.121 72.6883 280.553C71.6454 280.984 70.4979 281.098 69.3908 280.877C68.2837 280.657 67.2667 280.114 66.4685 279.315C65.6703 278.517 65.1268 277.5 64.9065 276.393C64.6863 275.286 64.7993 274.138 65.2313 273.096C65.6633 272.053 66.3948 271.161 67.3334 270.534C68.272 269.907 69.3754 269.572 70.5042 269.572C72.0179 269.572 73.4696 270.174 74.5399 271.244C75.6103 272.314 76.2116 273.766 76.2116 275.28Z" fill="#4D4D4D"/>
<path d="M70.0763 298.908C70.0763 299.611 69.868 300.298 69.4776 300.882C69.0872 301.466 68.5323 301.922 67.8831 302.191C67.2339 302.46 66.5196 302.53 65.8304 302.393C65.1412 302.256 64.5082 301.917 64.0113 301.421C63.5144 300.924 63.1761 300.291 63.039 299.601C62.9019 298.912 62.9722 298.198 63.2411 297.549C63.5101 296.9 63.9654 296.345 64.5497 295.954C65.1339 295.564 65.8208 295.355 66.5235 295.355C66.9906 295.354 67.4535 295.444 67.8854 295.622C68.3173 295.8 68.7097 296.062 69.04 296.392C69.3702 296.722 69.6319 297.115 69.8098 297.546C69.9876 297.978 70.0782 298.441 70.0763 298.908Z" fill="#4D4D4D"/>
<path d="M336.01 65.4634C337.665 65.4634 339.006 64.1219 339.006 62.4671C339.006 60.8122 337.665 59.4707 336.01 59.4707C334.355 59.4707 333.014 60.8122 333.014 62.4671C333.014 64.1219 334.355 65.4634 336.01 65.4634Z" fill="#4D4D4D"/>
<path d="M319.588 62.9377C319.588 63.4005 319.451 63.8529 319.194 64.2378C318.937 64.6226 318.571 64.9225 318.144 65.0996C317.716 65.2767 317.246 65.323 316.792 65.2328C316.338 65.1425 315.921 64.9196 315.594 64.5923C315.266 64.2651 315.043 63.8481 314.953 63.3942C314.863 62.9403 314.909 62.4698 315.086 62.0422C315.263 61.6147 315.563 61.2492 315.948 60.9921C316.333 60.7349 316.785 60.5977 317.248 60.5977C317.556 60.5958 317.861 60.655 318.146 60.772C318.431 60.8889 318.689 61.0612 318.907 61.2789C319.125 61.4965 319.297 61.7552 319.414 62.04C319.531 62.3248 319.59 62.6299 319.588 62.9377Z" fill="#4D4D4D"/>
<path d="M560.579 481.985C562.478 481.985 564.018 480.445 564.018 478.546C564.018 476.647 562.478 475.107 560.579 475.107C558.68 475.107 557.141 476.647 557.141 478.546C557.141 480.445 558.68 481.985 560.579 481.985Z" fill="#4D4D4D"/>
<path d="M549.694 497.423C551.097 497.423 552.234 496.286 552.234 494.884C552.234 493.481 551.097 492.344 549.694 492.344C548.291 492.344 547.154 493.481 547.154 494.884C547.154 496.286 548.291 497.423 549.694 497.423Z" fill="#4D4D4D"/>
<path d="M504.662 507.24L522.612 525.19" stroke="#4D4D4D" stroke-width="1.39" stroke-miterlimit="10"/>
<path d="M525.351 525.447C525.365 526.017 525.208 526.579 524.9 527.059C524.592 527.539 524.147 527.916 523.623 528.14C523.098 528.365 522.519 528.428 521.959 528.32C521.399 528.212 520.884 527.939 520.48 527.536C520.077 527.132 519.804 526.617 519.696 526.057C519.588 525.497 519.651 524.917 519.875 524.393C520.1 523.869 520.477 523.424 520.957 523.116C521.437 522.808 521.998 522.651 522.569 522.665C523.301 522.683 523.998 522.982 524.516 523.5C525.034 524.018 525.333 524.715 525.351 525.447Z" fill="#4D4D4D"/>
<path d="M186.292 485.723H172.238L171.125 484.624V470.556L172.238 469.457H186.292L187.405 470.556V484.624L186.292 485.723Z" fill="#B3B3B3"/>
<path d="M171.968 471.541H169.1V472.212H171.968V471.541Z" fill="#E3E4E9"/>
<path d="M171.968 474.408H169.1V475.079H171.968V474.408Z" fill="#E3E4E9"/>
<path d="M171.968 477.291H169.1V477.962H171.968V477.291Z" fill="#E3E4E9"/>
<path d="M171.968 480.158H169.1V480.829H171.968V480.158Z" fill="#E3E4E9"/>
<path d="M171.968 483.027H169.1V483.698H171.968V483.027Z" fill="#E3E4E9"/>
<path d="M189.432 471.541H186.564V472.212H189.432V471.541Z" fill="#E3E4E9"/>
<path d="M189.432 474.408H186.564V475.079H189.432V474.408Z" fill="#E3E4E9"/>
<path d="M189.432 477.291H186.564V477.962H189.432V477.291Z" fill="#E3E4E9"/>
<path d="M189.432 480.158H186.564V480.829H189.432V480.158Z" fill="#E3E4E9"/>
<path d="M189.432 483.027H186.564V483.698H189.432V483.027Z" fill="#E3E4E9"/>
<path d="M185.352 470.313V467.445H184.681V470.313H185.352Z" fill="#E3E4E9"/>
<path d="M182.469 470.329V467.461H181.798V470.329H182.469Z" fill="#E3E4E9"/>
<path d="M179.6 470.329V467.461H178.929V470.329H179.6Z" fill="#E3E4E9"/>
<path d="M176.732 470.329V467.461H176.062V470.329H176.732Z" fill="#E3E4E9"/>
<path d="M173.865 470.313V467.445H173.195V470.313H173.865Z" fill="#E3E4E9"/>
<path d="M185.352 487.778V484.91H184.681V487.778H185.352Z" fill="#E3E4E9"/>
<path d="M182.482 487.778V484.91H181.812V487.778H182.482Z" fill="#E3E4E9"/>
<path d="M179.6 487.778V484.91H178.929V487.778H179.6Z" fill="#E3E4E9"/>
<path d="M176.732 487.778V484.91H176.062V487.778H176.732Z" fill="#E3E4E9"/>
<path d="M173.865 487.778V484.91H173.195V487.778H173.865Z" fill="#E3E4E9"/>
<path d="M92.2501 99.6793H90.067C89.488 99.6793 88.9328 99.4493 88.5233 99.0399C88.1139 98.6305 87.8839 98.0753 87.8839 97.4963V95.3275C87.8976 94.8088 87.7318 94.3013 87.4147 93.8906C87.0976 93.4799 86.6485 93.1911 86.1432 93.0731C85.8239 93.0101 85.4947 93.0183 85.1789 93.0972C84.8632 93.1761 84.5688 93.3237 84.3166 93.5295C84.0645 93.7353 83.8609 93.9942 83.7204 94.2877C83.5798 94.5812 83.5058 94.9022 83.5036 95.2276V97.4963C83.5055 97.7835 83.4503 98.0682 83.3412 98.3339C83.2322 98.5996 83.0715 98.8411 82.8684 99.0442C82.6653 99.2473 82.4239 99.408 82.1581 99.517C81.8924 99.6261 81.6077 99.6812 81.3205 99.6793H79.1517C78.6317 99.6691 78.124 99.8379 77.7135 100.157C77.3031 100.477 77.015 100.928 76.8973 101.434C76.8343 101.754 76.8425 102.083 76.9214 102.399C77.0003 102.714 77.148 103.009 77.3537 103.261C77.5595 103.513 77.8184 103.717 78.1119 103.857C78.4055 103.998 78.7264 104.072 79.0518 104.074H81.3205C81.8884 104.07 82.4352 104.289 82.8434 104.684C83.2516 105.079 83.4886 105.618 83.5036 106.186V108.369C83.494 108.887 83.6633 109.393 83.9829 109.801C84.3026 110.209 84.7531 110.494 85.2586 110.609C85.5774 110.675 85.907 110.669 86.2232 110.591C86.5394 110.513 86.8341 110.365 87.0858 110.159C87.3376 109.952 87.5399 109.692 87.678 109.397C87.8161 109.102 87.8864 108.78 87.8839 108.454V106.186C87.8877 105.609 88.1194 105.058 88.5284 104.651C88.9374 104.245 89.4905 104.017 90.067 104.017H92.3357C92.6619 104.017 92.9842 103.945 93.279 103.805C93.5738 103.665 93.8338 103.462 94.0401 103.209C94.2464 102.956 94.3939 102.661 94.4717 102.344C94.5496 102.027 94.5559 101.697 94.4902 101.377C94.3643 100.882 94.0741 100.445 93.6672 100.136C93.2602 99.828 92.7606 99.6668 92.2501 99.6793Z" fill="#4D4D4D"/>
<path d="M646.204 314.503H644.249C643.991 314.503 643.736 314.452 643.498 314.353C643.259 314.254 643.043 314.109 642.862 313.926C642.68 313.743 642.536 313.526 642.439 313.287C642.341 313.048 642.292 312.792 642.294 312.534V310.58C642.303 310.111 642.15 309.654 641.862 309.286C641.573 308.917 641.167 308.658 640.71 308.553C640.423 308.497 640.127 308.504 639.843 308.575C639.559 308.646 639.295 308.779 639.068 308.965C638.842 309.15 638.659 309.384 638.534 309.648C638.408 309.912 638.343 310.201 638.342 310.494V312.534C638.342 313.056 638.134 313.557 637.765 313.927C637.396 314.296 636.895 314.503 636.373 314.503H634.418C633.953 314.492 633.498 314.642 633.131 314.928C632.765 315.214 632.508 315.619 632.406 316.073C632.347 316.359 632.352 316.655 632.421 316.939C632.491 317.223 632.622 317.488 632.807 317.715C632.991 317.941 633.224 318.124 633.488 318.25C633.752 318.376 634.04 318.441 634.332 318.441H636.373C636.895 318.441 637.396 318.649 637.765 319.018C638.134 319.387 638.342 319.888 638.342 320.41V322.365C638.332 322.831 638.483 323.287 638.769 323.655C639.054 324.024 639.458 324.284 639.911 324.391C640.199 324.448 640.496 324.44 640.781 324.369C641.065 324.298 641.331 324.165 641.558 323.98C641.786 323.795 641.969 323.562 642.097 323.298C642.224 323.033 642.291 322.744 642.294 322.451V320.41C642.292 320.153 642.341 319.897 642.439 319.658C642.536 319.419 642.68 319.202 642.862 319.019C643.043 318.836 643.259 318.691 643.498 318.592C643.736 318.492 643.991 318.441 644.249 318.441H646.289C646.582 318.441 646.871 318.375 647.135 318.25C647.4 318.124 647.633 317.941 647.818 317.715C648.004 317.489 648.137 317.224 648.208 316.94C648.279 316.656 648.287 316.36 648.23 316.073C648.125 315.618 647.866 315.213 647.496 314.927C647.127 314.641 646.671 314.491 646.204 314.503Z" fill="#E3E4E9"/>
<path d="M98.2138 546.236H95.3601C94.6373 546.236 93.9441 545.949 93.433 545.438C92.922 544.927 92.6348 544.234 92.6348 543.511V540.8C92.6531 540.146 92.4462 539.506 92.0488 538.987C91.6514 538.467 91.0876 538.1 90.4518 537.947C90.0536 537.867 89.6426 537.876 89.2484 537.973C88.8541 538.071 88.4863 538.254 88.1713 538.511C87.8563 538.767 87.6019 539.09 87.4263 539.456C87.2507 539.822 87.1584 540.223 87.1558 540.629V543.483C87.1558 544.205 86.8687 544.899 86.3576 545.41C85.8465 545.921 85.1533 546.208 84.4305 546.208H81.7623C81.1066 546.19 80.4648 546.399 79.9451 546.799C79.4253 547.2 79.0593 547.767 78.9087 548.405C78.826 548.804 78.8332 549.216 78.9296 549.611C79.0261 550.006 79.2094 550.375 79.4663 550.691C79.7232 551.007 80.0472 551.261 80.4147 551.436C80.7823 551.611 81.1841 551.701 81.5911 551.701H84.4448C85.1676 551.701 85.8608 551.988 86.3718 552.499C86.8829 553.011 87.1701 553.704 87.1701 554.426V557.137C87.1518 557.791 87.3587 558.431 87.7561 558.951C88.1535 559.47 88.7173 559.838 89.3531 559.991C89.7525 560.071 90.1647 560.062 90.56 559.964C90.9553 559.865 91.3239 559.68 91.6391 559.423C91.9544 559.165 92.2085 558.84 92.3831 558.472C92.5578 558.104 92.6486 557.702 92.6491 557.294V554.441C92.6529 553.723 92.9397 553.035 93.4473 552.528C93.9549 552.02 94.6422 551.733 95.3601 551.73H98.2138C98.6163 551.732 99.0143 551.645 99.3797 551.476C99.7452 551.308 100.069 551.061 100.329 550.753C100.589 550.446 100.778 550.085 100.884 549.697C100.989 549.308 101.008 548.902 100.939 548.505C100.807 547.875 100.466 547.308 99.9715 546.896C99.4768 546.484 98.8573 546.252 98.2138 546.236Z" stroke="#808490" stroke-width="1.39" stroke-miterlimit="10"/>
<path d="M574.449 555.739H546.383C545.626 555.739 544.9 555.438 544.365 554.903C543.83 554.368 543.529 553.642 543.529 552.885C543.529 552.128 543.83 551.402 544.365 550.867C544.9 550.332 545.626 550.031 546.383 550.031H574.449C575.206 550.031 575.931 550.332 576.467 550.867C577.002 551.402 577.302 552.128 577.302 552.885C577.302 553.642 577.002 554.368 576.467 554.903C575.931 555.438 575.206 555.739 574.449 555.739Z" fill="#B3B3B3"/>
<path d="M587.79 555.739H584.537C583.78 555.739 583.055 555.438 582.519 554.903C581.984 554.368 581.684 553.642 581.684 552.885C581.684 552.128 581.984 551.402 582.519 550.867C583.055 550.332 583.78 550.031 584.537 550.031H587.79C588.547 550.031 589.273 550.332 589.808 550.867C590.343 551.402 590.644 552.128 590.644 552.885C590.644 553.642 590.343 554.368 589.808 554.903C589.273 555.438 588.547 555.739 587.79 555.739Z" fill="#B3B3B3"/>
<path d="M604.241 555.739H603.656C602.9 555.739 602.174 555.438 601.639 554.903C601.103 554.368 600.803 553.642 600.803 552.885C600.803 552.128 601.103 551.402 601.639 550.867C602.174 550.332 602.9 550.031 603.656 550.031H604.241C604.998 550.031 605.724 550.332 606.259 550.867C606.794 551.402 607.095 552.128 607.095 552.885C607.095 553.642 606.794 554.368 606.259 554.903C605.724 555.438 604.998 555.739 604.241 555.739Z" fill="#B3B3B3"/>
<path d="M306.831 28.7503H278.779C278.023 28.7503 277.297 28.4497 276.762 27.9145C276.226 27.3793 275.926 26.6535 275.926 25.8966C275.926 25.1398 276.226 24.414 276.762 23.8788C277.297 23.3436 278.023 23.043 278.779 23.043H306.831C307.588 23.043 308.314 23.3436 308.849 23.8788C309.384 24.414 309.685 25.1398 309.685 25.8966C309.685 26.6535 309.384 27.3793 308.849 27.9145C308.314 28.4497 307.588 28.7503 306.831 28.7503Z" fill="#1A8917"/>
<path d="M320.186 28.7503H316.918C316.161 28.7503 315.435 28.4497 314.9 27.9145C314.365 27.3793 314.064 26.6535 314.064 25.8966C314.064 25.1398 314.365 24.414 314.9 23.8788C315.435 23.3436 316.161 23.043 316.918 23.043H320.186C320.942 23.043 321.668 23.3436 322.203 23.8788C322.739 24.414 323.039 25.1398 323.039 25.8966C323.039 26.6535 322.739 27.3793 322.203 27.9145C321.668 28.4497 320.942 28.7503 320.186 28.7503Z" fill="#1A8917"/>
<path d="M336.624 28.7503H336.053C335.296 28.7503 334.57 28.4497 334.035 27.9145C333.5 27.3793 333.199 26.6535 333.199 25.8966C333.199 25.1398 333.5 24.414 334.035 23.8788C334.57 23.3436 335.296 23.043 336.053 23.043H336.624C337.38 23.043 338.106 23.3436 338.641 23.8788C339.177 24.414 339.477 25.1398 339.477 25.8966C339.477 26.6535 339.177 27.3793 338.641 27.9145C338.106 28.4497 337.38 28.7503 336.624 28.7503Z" fill="#1A8917"/>
<path d="M535.554 333.866C535.554 334.478 535.372 335.077 535.032 335.586C534.692 336.095 534.208 336.492 533.642 336.726C533.077 336.961 532.454 337.022 531.854 336.903C531.253 336.783 530.701 336.488 530.268 336.055C529.835 335.622 529.54 335.07 529.421 334.47C529.301 333.869 529.363 333.247 529.597 332.681C529.831 332.115 530.228 331.632 530.737 331.291C531.247 330.951 531.845 330.77 532.458 330.77C533.279 330.77 534.066 331.096 534.647 331.676C535.228 332.257 535.554 333.045 535.554 333.866Z" fill="#B3B3B3"/>
<path d="M543.501 325.918C543.501 326.531 543.319 327.129 542.979 327.639C542.639 328.148 542.155 328.545 541.59 328.779C541.024 329.013 540.401 329.075 539.801 328.955C539.2 328.836 538.648 328.541 538.215 328.108C537.782 327.675 537.488 327.123 537.368 326.523C537.249 325.922 537.31 325.299 537.544 324.734C537.779 324.168 538.175 323.684 538.685 323.344C539.194 323.004 539.792 322.822 540.405 322.822C541.226 322.822 542.014 323.148 542.594 323.729C543.175 324.31 543.501 325.097 543.501 325.918Z" fill="#B3B3B3"/>
<path d="M551.448 317.956C551.448 318.569 551.266 319.168 550.925 319.677C550.585 320.187 550.1 320.584 549.534 320.818C548.967 321.051 548.344 321.112 547.743 320.991C547.142 320.871 546.59 320.574 546.158 320.14C545.725 319.705 545.431 319.152 545.314 318.551C545.196 317.949 545.259 317.326 545.496 316.761C545.732 316.195 546.131 315.713 546.642 315.374C547.153 315.036 547.753 314.857 548.366 314.859C549.185 314.863 549.969 315.191 550.547 315.771C551.124 316.352 551.448 317.137 551.448 317.956Z" fill="#B3B3B3"/>
<path d="M603.842 499.008C603.842 499.304 603.754 499.594 603.59 499.84C603.425 500.087 603.191 500.279 602.917 500.392C602.643 500.505 602.342 500.535 602.052 500.477C601.761 500.419 601.494 500.277 601.285 500.067C601.075 499.858 600.932 499.591 600.874 499.3C600.817 499.009 600.846 498.708 600.96 498.435C601.073 498.161 601.265 497.927 601.512 497.762C601.758 497.598 602.048 497.51 602.344 497.51C602.543 497.499 602.743 497.531 602.929 497.603C603.116 497.674 603.285 497.784 603.426 497.926C603.567 498.067 603.677 498.236 603.749 498.423C603.821 498.609 603.852 498.808 603.842 499.008Z" fill="#B3B3B3"/>
<path d="M411.719 505.698C411.705 505.96 411.615 506.212 411.461 506.423C411.307 506.635 411.094 506.797 410.85 506.891C410.605 506.985 410.339 507.005 410.083 506.951C409.827 506.896 409.592 506.769 409.407 506.584C409.222 506.398 409.094 506.164 409.04 505.907C408.985 505.651 409.006 505.385 409.099 505.14C409.193 504.896 409.355 504.684 409.567 504.529C409.779 504.375 410.03 504.286 410.292 504.272C410.482 504.261 410.672 504.291 410.85 504.359C411.028 504.427 411.189 504.532 411.324 504.667C411.458 504.801 411.563 504.963 411.631 505.14C411.699 505.318 411.729 505.508 411.719 505.698Z" fill="#B3B3B3"/>
<path d="M319.373 618.605C319.373 618.905 319.283 619.197 319.115 619.445C318.947 619.692 318.709 619.884 318.431 619.995C318.153 620.106 317.848 620.131 317.556 620.067C317.263 620.004 316.997 619.854 316.79 619.637C316.584 619.42 316.447 619.147 316.398 618.851C316.348 618.556 316.388 618.253 316.513 617.981C316.637 617.709 316.84 617.48 317.096 617.324C317.351 617.169 317.648 617.093 317.946 617.107C318.14 617.107 318.332 617.146 318.509 617.222C318.687 617.298 318.848 617.41 318.981 617.55C319.115 617.69 319.219 617.856 319.286 618.037C319.353 618.219 319.383 618.412 319.373 618.605Z" fill="#4D4D4D"/>
<path d="M277.725 634.943C277.727 635.212 277.65 635.476 277.502 635.701C277.354 635.926 277.143 636.102 276.894 636.207C276.646 636.311 276.372 636.339 276.108 636.287C275.844 636.235 275.601 636.106 275.411 635.915C275.22 635.725 275.091 635.482 275.039 635.218C274.987 634.954 275.015 634.68 275.12 634.432C275.224 634.183 275.4 633.972 275.625 633.824C275.85 633.676 276.114 633.599 276.383 633.602C276.738 633.605 277.077 633.748 277.328 633.999C277.578 634.249 277.721 634.588 277.725 634.943Z" fill="#B3B3B3"/>
<path d="M224.674 492.115C224.674 492.414 224.584 492.707 224.416 492.954C224.248 493.202 224.009 493.394 223.732 493.505C223.454 493.616 223.149 493.641 222.856 493.577C222.564 493.513 222.297 493.363 222.091 493.147C221.885 492.93 221.748 492.656 221.698 492.361C221.649 492.066 221.689 491.763 221.813 491.491C221.938 491.218 222.141 490.99 222.396 490.834C222.652 490.678 222.948 490.603 223.247 490.617C223.441 490.617 223.632 490.656 223.81 490.732C223.988 490.808 224.149 490.92 224.282 491.06C224.416 491.2 224.519 491.366 224.587 491.547C224.654 491.729 224.684 491.922 224.674 492.115Z" fill="#4D4D4D"/>
<path d="M89.497 509.494C90.4899 509.494 91.2949 508.689 91.2949 507.696C91.2949 506.703 90.4899 505.898 89.497 505.898C88.5041 505.898 87.6992 506.703 87.6992 507.696C87.6992 508.689 88.5041 509.494 89.497 509.494Z" fill="#B3B3B3"/>
<path d="M32.8784 301.077C33.8004 301.077 34.5478 300.33 34.5478 299.408C34.5478 298.486 33.8004 297.738 32.8784 297.738C31.9564 297.738 31.209 298.486 31.209 299.408C31.209 300.33 31.9564 301.077 32.8784 301.077Z" fill="#B3B3B3"/>
<path d="M7.881 387.442C7.881 387.826 7.76719 388.201 7.55396 388.521C7.34074 388.84 7.03767 389.088 6.68309 389.235C6.32851 389.382 5.93834 389.421 5.56192 389.346C5.1855 389.271 4.83974 389.086 4.56836 388.815C4.29698 388.543 4.11216 388.197 4.03729 387.821C3.96241 387.445 4.00084 387.054 4.14771 386.7C4.29458 386.345 4.5433 386.042 4.86242 385.829C5.18153 385.616 5.5567 385.502 5.9405 385.502C6.45515 385.502 6.94872 385.706 7.31264 386.07C7.67655 386.434 7.881 386.928 7.881 387.442Z" fill="#E3E4E9"/>
<path d="M143.972 96.6689C144.894 96.6689 145.642 95.9215 145.642 94.9995C145.642 94.0775 144.894 93.3301 143.972 93.3301C143.05 93.3301 142.303 94.0775 142.303 94.9995C142.303 95.9215 143.05 96.6689 143.972 96.6689Z" fill="#B3B3B3"/>
<path d="M395.595 3.3388C396.517 3.3388 397.265 2.59138 397.265 1.6694C397.265 0.747415 396.517 0 395.595 0C394.673 0 393.926 0.747415 393.926 1.6694C393.926 2.59138 394.673 3.3388 395.595 3.3388Z" fill="#B3B3B3"/>
<path d="M546.682 86.38C546.682 86.6622 546.598 86.938 546.441 87.1727C546.285 87.4073 546.062 87.5902 545.801 87.6982C545.54 87.8062 545.253 87.8344 544.977 87.7794C544.7 87.7243 544.446 87.5884 544.246 87.3889C544.047 87.1893 543.911 86.9351 543.856 86.6583C543.8 86.3815 543.829 86.0947 543.937 85.8339C544.045 85.5732 544.228 85.3504 544.462 85.1936C544.697 85.0368 544.973 84.9531 545.255 84.9531C545.633 84.9531 545.996 85.1035 546.264 85.371C546.531 85.6386 546.682 86.0015 546.682 86.38Z" fill="#B3B3B3"/>
<path d="M363.933 126.661C364.855 126.661 365.602 125.914 365.602 124.992C365.602 124.07 364.855 123.322 363.933 123.322C363.011 123.322 362.264 124.07 362.264 124.992C362.264 125.914 363.011 126.661 363.933 126.661Z" fill="#B3B3B3"/>
<path d="M642.781 153.042C642.781 153.426 642.668 153.801 642.454 154.12C642.241 154.439 641.938 154.688 641.583 154.835C641.229 154.982 640.839 155.02 640.462 154.945C640.086 154.87 639.74 154.686 639.469 154.414C639.197 154.143 639.013 153.797 638.938 153.421C638.863 153.044 638.901 152.654 639.048 152.299C639.195 151.945 639.444 151.642 639.763 151.429C640.082 151.215 640.457 151.102 640.841 151.102C641.356 151.102 641.849 151.306 642.213 151.67C642.577 152.034 642.781 152.527 642.781 153.042Z" fill="#4D4D4D"/>
<path d="M538.35 272.468C538.35 272.75 538.266 273.026 538.109 273.261C537.953 273.495 537.73 273.678 537.469 273.786C537.208 273.894 536.921 273.922 536.645 273.867C536.368 273.812 536.114 273.676 535.914 273.477C535.714 273.277 535.579 273.023 535.524 272.746C535.468 272.469 535.497 272.183 535.605 271.922C535.713 271.661 535.896 271.438 536.13 271.281C536.365 271.125 536.641 271.041 536.923 271.041C537.301 271.041 537.664 271.191 537.932 271.459C538.199 271.727 538.35 272.089 538.35 272.468Z" fill="#B3B3B3"/>
<path d="M650 389.112C650 389.496 649.886 389.871 649.673 390.19C649.46 390.51 649.157 390.758 648.802 390.905C648.448 391.052 648.057 391.09 647.681 391.016C647.305 390.941 646.959 390.756 646.688 390.485C646.416 390.213 646.231 389.867 646.156 389.491C646.082 389.115 646.12 388.724 646.267 388.37C646.414 388.015 646.662 387.712 646.982 387.499C647.301 387.286 647.676 387.172 648.06 387.172C648.574 387.172 649.068 387.376 649.432 387.74C649.796 388.104 650 388.598 650 389.112Z" fill="#B3B3B3"/>
<path d="M515.578 411.329C515.578 411.713 515.464 412.088 515.251 412.407C515.038 412.726 514.735 412.975 514.38 413.122C514.026 413.269 513.636 413.307 513.259 413.232C512.883 413.158 512.537 412.973 512.266 412.701C511.994 412.43 511.809 412.084 511.735 411.708C511.66 411.331 511.698 410.941 511.845 410.587C511.992 410.232 512.241 409.929 512.56 409.716C512.879 409.502 513.254 409.389 513.638 409.389C514.152 409.389 514.646 409.593 515.01 409.957C515.374 410.321 515.578 410.814 515.578 411.329Z" fill="#E3E4E9"/>
<path d="M566.771 239.02H568.031L571.024 243.544V239.02H572.304V246.025H571.254L568.051 241.222V246.025H566.771V239.02ZM574.639 246.125C574.225 246.125 573.878 245.992 573.598 245.725C573.324 245.452 573.188 245.085 573.188 244.624C573.188 244.191 573.345 243.844 573.658 243.584C573.972 243.317 574.342 243.13 574.769 243.023C575.196 242.91 575.606 242.846 576 242.833C575.986 242.54 575.91 242.329 575.77 242.203C575.636 242.076 575.413 242.013 575.099 242.013C574.879 242.013 574.662 242.043 574.449 242.103C574.242 242.163 574.002 242.259 573.728 242.393L573.618 241.382C574.225 241.089 574.832 240.942 575.439 240.942C576.026 240.942 576.473 241.102 576.78 241.422C577.094 241.742 577.251 242.253 577.251 242.953V244.304C577.251 244.558 577.261 244.741 577.281 244.855C577.307 244.961 577.347 245.031 577.401 245.065C577.461 245.091 577.557 245.105 577.691 245.105H577.851L577.741 246.125H577.291C577.017 246.125 576.787 246.075 576.6 245.975C576.413 245.869 576.27 245.725 576.17 245.545C576.01 245.725 575.79 245.869 575.509 245.975C575.236 246.075 574.946 246.125 574.639 246.125ZM575.159 245.175C575.286 245.175 575.429 245.145 575.589 245.085C575.75 245.018 575.89 244.928 576.01 244.815V243.674C575.609 243.694 575.256 243.78 574.949 243.934C574.642 244.087 574.489 244.301 574.489 244.574C574.489 244.781 574.542 244.935 574.649 245.035C574.756 245.128 574.926 245.175 575.159 245.175ZM574.949 246.836H575.99V247.807H574.949V246.836ZM581.154 240.942C581.627 240.942 582.034 241.059 582.375 241.292C582.715 241.526 582.972 241.839 583.145 242.233C583.319 242.626 583.405 243.06 583.405 243.534C583.405 244.007 583.319 244.441 583.145 244.835C582.972 245.228 582.715 245.542 582.375 245.775C582.034 246.009 581.627 246.125 581.154 246.125C580.854 246.125 580.597 246.092 580.383 246.025C580.176 245.965 579.976 245.865 579.783 245.725V248.447H578.542V241.022H579.543L579.673 241.482C579.886 241.302 580.11 241.169 580.343 241.082C580.577 240.989 580.847 240.942 581.154 240.942ZM580.964 245.105C581.331 245.105 581.617 244.961 581.824 244.674C582.031 244.388 582.135 244.007 582.135 243.534C582.135 243.06 582.031 242.68 581.824 242.393C581.617 242.106 581.331 241.963 580.964 241.963C580.55 241.963 580.24 242.103 580.033 242.383C579.826 242.663 579.723 243.047 579.723 243.534C579.723 244.021 579.826 244.404 580.033 244.684C580.24 244.965 580.55 245.105 580.964 245.105ZM588.148 246.125C587.707 246.125 587.374 245.999 587.147 245.745C586.92 245.485 586.807 245.175 586.807 244.815V242.043H586.096L586.206 241.022H586.807V239.921L588.047 239.791V241.022H589.148V242.043H588.047V244.304C588.047 244.571 588.061 244.758 588.087 244.865C588.121 244.965 588.184 245.031 588.278 245.065C588.378 245.091 588.554 245.105 588.808 245.105H589.148L589.038 246.125H588.148ZM589.956 239.02H591.197V240.261H589.956V239.02ZM589.956 241.022H591.197V246.025H589.956V241.022ZM594.772 246.125C594.192 246.125 593.695 246.009 593.281 245.775C592.874 245.535 592.567 245.218 592.36 244.825C592.16 244.424 592.06 243.981 592.06 243.494C592.06 243.027 592.157 242.6 592.35 242.213C592.544 241.826 592.824 241.519 593.191 241.292C593.558 241.059 593.995 240.942 594.502 240.942C594.969 240.942 595.362 241.039 595.683 241.232C596.01 241.425 596.253 241.686 596.413 242.013C596.58 242.339 596.663 242.706 596.663 243.113C596.663 243.313 596.637 243.54 596.583 243.794H593.351C593.418 244.234 593.591 244.564 593.871 244.785C594.152 244.998 594.488 245.105 594.882 245.105C595.422 245.105 595.923 244.968 596.383 244.694L596.443 245.745C596.23 245.859 595.98 245.952 595.693 246.025C595.412 246.092 595.106 246.125 594.772 246.125ZM595.402 242.953C595.402 242.693 595.329 242.463 595.182 242.263C595.036 242.063 594.809 241.963 594.502 241.963C594.195 241.963 593.948 242.053 593.761 242.233C593.575 242.413 593.448 242.653 593.381 242.953H595.402ZM594.752 237.79H595.823L596.333 239.06H595.573L594.752 237.79ZM593.271 239.831L594.592 238.91L595.913 239.831V240.572L594.592 239.851L593.271 240.572V239.831ZM600.032 240.942C600.653 240.942 601.123 241.149 601.443 241.562C601.763 241.976 601.924 242.533 601.924 243.233V246.025H600.683V243.333C600.683 242.866 600.603 242.523 600.443 242.303C600.289 242.076 600.039 241.963 599.692 241.963C599.312 241.963 598.998 242.106 598.751 242.393V246.025H597.51V241.022H598.671L598.691 241.372C599.112 241.085 599.559 240.942 600.032 240.942Z" fill="#444444"/>
<path fill-rule="evenodd" clip-rule="evenodd" d="M580.137 220.313C580.137 219.795 580.557 219.375 581.075 219.375H587.329C587.847 219.375 588.267 219.795 588.267 220.313C588.267 220.831 587.847 221.251 587.329 221.251H581.075C580.557 221.251 580.137 220.831 580.137 220.313Z" fill="#1A8917"/>
<path fill-rule="evenodd" clip-rule="evenodd" d="M584.202 216.322C584.72 216.322 585.14 216.742 585.14 217.26V223.515C585.14 224.033 584.72 224.453 584.202 224.453C583.684 224.453 583.264 224.033 583.264 223.515V217.26C583.264 216.742 583.684 216.322 584.202 216.322Z" fill="#1A8917"/>
<path fill-rule="evenodd" clip-rule="evenodd" d="M581.319 204.664C580.518 205.025 579.766 205.909 578.969 207.75C578.958 207.778 578.944 207.805 578.93 207.831C578.929 207.834 578.928 207.838 578.926 207.843L578.911 207.888C578.902 207.914 578.892 207.941 578.88 207.967L578.799 208.153L578.749 208.278L577.289 211.765C577.554 211.734 577.823 211.719 578.096 211.719H581.043L584.063 204.711C582.804 204.343 581.959 204.375 581.319 204.664ZM580.548 202.953C582.029 202.285 583.725 202.534 585.661 203.275C585.899 203.366 586.09 203.55 586.19 203.785C586.289 204.02 586.289 204.286 586.188 204.52L586.151 204.608L582.522 213.028C582.374 213.372 582.035 213.595 581.661 213.595H578.096C577.375 213.595 576.686 213.743 576.06 214.009C575.709 214.157 575.302 214.079 575.032 213.81C574.762 213.54 574.681 213.134 574.829 212.782L577.015 207.561L577.062 207.443C577.066 207.433 577.07 207.424 577.074 207.415L577.144 207.255C577.165 207.191 577.205 207.08 577.265 206.965C578.104 205.037 579.093 203.61 580.548 202.953Z" fill="#1A8917"/>
<path fill-rule="evenodd" clip-rule="evenodd" d="M584.464 203.78C584.656 203.331 585.16 203.105 585.623 203.259C585.777 203.311 585.991 203.403 586.123 203.46C586.169 203.48 586.205 203.495 586.225 203.503L586.24 203.51L589.002 204.672C590.581 205.327 591.83 206.061 592.63 207.043C592.771 207.213 592.905 207.393 593.027 207.612C593.154 207.814 593.274 208.046 593.354 208.312C593.408 208.443 593.451 208.572 593.483 208.694C593.91 210.055 593.61 211.59 592.938 213.256C592.756 213.709 592.256 213.946 591.789 213.801C591.333 213.659 590.829 213.593 590.304 213.593H581.661C581.345 213.593 581.051 213.435 580.877 213.171C580.704 212.907 580.674 212.574 580.799 212.284L584.427 203.866L584.464 203.78ZM585.822 205.369L583.087 211.717H590.304C590.69 211.717 591.082 211.745 591.473 211.807C591.847 210.663 591.884 209.849 591.688 209.24C591.682 209.22 591.676 209.2 591.671 209.18C591.659 209.131 591.639 209.07 591.611 209.008C591.591 208.963 591.575 208.917 591.562 208.869C591.545 208.805 591.509 208.721 591.429 208.597C591.416 208.577 591.404 208.556 591.392 208.534C591.344 208.445 591.285 208.36 591.185 208.24L591.177 208.231C590.676 207.614 589.777 207.024 588.281 206.404L588.277 206.402L585.822 205.369Z" fill="#1A8917"/>
<path fill-rule="evenodd" clip-rule="evenodd" d="M576.075 214.009C574.232 214.805 572.945 216.638 572.945 218.761V221.2C572.945 221.45 572.966 221.708 572.999 221.967C573.002 221.987 573.004 222.007 573.005 222.027C573.127 223.864 573.668 225.147 574.523 226.002C575.377 226.856 576.661 227.398 578.498 227.519C578.518 227.521 578.538 227.523 578.557 227.525C578.816 227.559 579.075 227.58 579.324 227.58H589.081C591.258 227.58 592.766 227.062 593.753 226.174C594.731 225.294 595.339 223.921 595.449 221.902C595.462 221.648 595.473 221.423 595.473 221.2V218.761C595.473 216.425 593.919 214.453 591.813 213.805C591.352 213.67 590.843 213.595 590.319 213.595H578.111C577.395 213.595 576.718 213.741 576.075 214.009ZM575.348 212.279C576.205 211.922 577.128 211.719 578.111 211.719H590.319C591.02 211.719 591.71 211.819 592.349 212.007L592.358 212.01L592.358 212.01C595.228 212.89 597.349 215.57 597.349 218.761V221.2C597.349 221.474 597.336 221.744 597.324 221.988L597.323 221.998L597.323 222.002C597.195 224.347 596.465 226.257 595.008 227.569C593.558 228.873 591.533 229.456 589.081 229.456H579.324C578.984 229.456 578.653 229.429 578.345 229.39C576.217 229.244 574.459 228.592 573.196 227.329C571.933 226.066 571.28 224.307 571.135 222.18C571.096 221.872 571.068 221.54 571.068 221.2V218.761C571.068 215.858 572.831 213.364 575.338 212.283L575.348 212.279L575.348 212.279Z" fill="#1A8917"/>
<path fill-rule="evenodd" clip-rule="evenodd" d="M578.609 207.324C578.828 207.592 578.882 207.959 578.748 208.279L576.559 213.508C576.465 213.732 576.288 213.911 576.065 214.007C574.219 214.803 572.929 216.637 572.929 218.762C572.929 219.28 572.509 219.7 571.991 219.7C571.473 219.7 571.053 219.28 571.053 218.762V215.097C571.053 211.089 573.904 207.744 577.701 206.996C578.041 206.929 578.39 207.055 578.609 207.324ZM573.051 213.85C573.604 213.281 574.252 212.805 574.968 212.448L576.192 209.526C574.59 210.424 573.418 211.992 573.051 213.85Z" fill="#1A8917"/>
<path fill-rule="evenodd" clip-rule="evenodd" d="M591.832 207.96C592.121 207.675 592.561 207.608 592.922 207.794C595.554 209.152 597.345 211.934 597.345 215.095V218.76C597.345 219.278 596.925 219.698 596.407 219.698C595.889 219.698 595.469 219.278 595.469 218.76C595.469 216.43 593.922 214.451 591.809 213.817C591.557 213.741 591.348 213.563 591.234 213.326C591.119 213.089 591.11 212.814 591.208 212.57C591.829 211.017 591.929 209.982 591.704 209.218C591.698 209.197 591.693 209.177 591.688 209.156C591.677 209.105 591.662 209.067 591.652 209.047C591.471 208.684 591.544 208.245 591.832 207.96ZM595.345 213.841C595.099 212.611 594.499 211.505 593.657 210.644C593.599 211.197 593.467 211.772 593.274 212.372C594.052 212.733 594.753 213.233 595.345 213.841Z" fill="#1A8917"/>
<path d="M568.771 450.02H571.332C572.08 450.02 572.667 450.201 573.094 450.561C573.527 450.914 573.744 451.441 573.744 452.142C573.744 452.629 573.641 453.029 573.434 453.343C573.227 453.65 572.933 453.897 572.553 454.083L574.134 457.025H572.703L571.352 454.424H571.302H570.051V457.025H568.771V450.02ZM570.992 453.353C571.933 453.353 572.403 452.973 572.403 452.212C572.403 451.845 572.296 451.568 572.083 451.381C571.869 451.188 571.522 451.091 571.042 451.091H570.051V453.353H570.992ZM579.081 452.022V457.025H577.92L577.9 456.725C577.746 456.839 577.57 456.935 577.369 457.015C577.169 457.089 576.976 457.125 576.789 457.125C576.048 457.125 575.508 456.912 575.168 456.485C574.834 456.058 574.668 455.468 574.668 454.714V452.022H575.908V454.714C575.908 455.181 575.985 455.528 576.139 455.754C576.299 455.975 576.552 456.085 576.899 456.085C577.286 456.085 577.6 455.945 577.84 455.664V452.022H579.081ZM575.918 450.531L577.89 449.41V450.561L575.918 451.321V450.531ZM581.87 457.125C581.43 457.125 581.096 456.999 580.869 456.745C580.643 456.485 580.529 456.175 580.529 455.815V453.043H579.819L579.929 452.022H580.529V450.921L581.77 450.791V452.022H582.871V453.043H581.77V455.304C581.77 455.571 581.783 455.758 581.81 455.865C581.843 455.965 581.907 456.031 582 456.065C582.1 456.091 582.277 456.105 582.531 456.105H582.871L582.761 457.125H581.87ZM587.558 457.125C587.117 457.125 586.784 456.999 586.557 456.745C586.33 456.485 586.217 456.175 586.217 455.815V453.043H585.506L585.616 452.022H586.217V450.921L587.458 450.791V452.022H588.558V453.043H587.458V455.304C587.458 455.571 587.471 455.758 587.498 455.865C587.531 455.965 587.594 456.031 587.688 456.065C587.788 456.091 587.965 456.105 588.218 456.105H588.558L588.448 457.125H587.558ZM589.367 450.02H590.607V451.261H589.367V450.02ZM589.367 452.022H590.607V457.025H589.367V452.022ZM594.182 457.125C593.602 457.125 593.105 457.009 592.691 456.775C592.284 456.535 591.977 456.218 591.771 455.825C591.57 455.424 591.47 454.981 591.47 454.494C591.47 454.027 591.567 453.6 591.761 453.213C591.954 452.826 592.234 452.519 592.601 452.292C592.968 452.059 593.405 451.942 593.912 451.942C594.379 451.942 594.773 452.039 595.093 452.232C595.42 452.425 595.663 452.686 595.823 453.013C595.99 453.339 596.074 453.706 596.074 454.113C596.074 454.313 596.047 454.54 595.994 454.794H592.761C592.828 455.234 593.001 455.564 593.282 455.785C593.562 455.998 593.899 456.105 594.292 456.105C594.833 456.105 595.333 455.968 595.793 455.694L595.853 456.745C595.64 456.859 595.39 456.952 595.103 457.025C594.823 457.092 594.516 457.125 594.182 457.125ZM594.813 453.953C594.813 453.693 594.739 453.463 594.593 453.263C594.446 453.063 594.219 452.963 593.912 452.963C593.605 452.963 593.358 453.053 593.172 453.233C592.985 453.413 592.858 453.653 592.791 453.953H594.813ZM594.162 448.79H595.233L595.743 450.06H594.983L594.162 448.79ZM592.681 450.831L594.002 449.91L595.323 450.831V451.572L594.002 450.851L592.681 451.572V450.831ZM599.442 451.942C600.063 451.942 600.533 452.149 600.853 452.562C601.174 452.976 601.334 453.533 601.334 454.233V457.025H600.093V454.333C600.093 453.866 600.013 453.523 599.853 453.303C599.699 453.076 599.449 452.963 599.102 452.963C598.722 452.963 598.408 453.106 598.162 453.393V457.025H596.921V452.022H598.082L598.102 452.372C598.522 452.085 598.969 451.942 599.442 451.942Z" fill="#444444"/>
<path fill-rule="evenodd" clip-rule="evenodd" d="M573.053 422.632C573.053 422.113 573.473 421.693 573.991 421.693H589.627C590.145 421.693 590.565 422.113 590.565 422.632C590.565 423.15 590.145 423.57 589.627 423.57H573.991C573.473 423.57 573.053 423.15 573.053 422.632Z" fill="#1A8917"/>
<path fill-rule="evenodd" clip-rule="evenodd" d="M578.057 432.639C578.057 432.121 578.477 431.701 578.995 431.701H581.497C582.015 431.701 582.435 432.121 582.435 432.639C582.435 433.157 582.015 433.577 581.497 433.577H578.995C578.477 433.577 578.057 433.157 578.057 432.639Z" fill="#1A8917"/>
<path fill-rule="evenodd" clip-rule="evenodd" d="M583.686 432.639C583.686 432.121 584.106 431.701 584.624 431.701H589.627C590.145 431.701 590.565 432.121 590.565 432.639C590.565 433.157 590.145 433.577 589.627 433.577H584.624C584.106 433.577 583.686 433.157 583.686 432.639Z" fill="#1A8917"/>
<path fill-rule="evenodd" clip-rule="evenodd" d="M575.762 418.144C575.231 418.67 574.929 419.669 574.929 421.869V432.151C574.929 434.351 575.231 435.351 575.762 435.876C576.298 436.406 577.317 436.704 579.545 436.704H593.455C595.682 436.704 596.702 436.406 597.237 435.876C597.769 435.351 598.07 434.351 598.07 432.151V429.549C598.07 429.031 598.49 428.611 599.009 428.611C599.527 428.611 599.947 429.031 599.947 429.549V432.151C599.947 434.342 599.692 436.088 598.556 437.211C597.425 438.329 595.667 438.581 593.455 438.581H579.545C577.332 438.581 575.574 438.329 574.443 437.211C573.308 436.088 573.053 434.342 573.053 432.151V421.869C573.053 419.678 573.308 417.932 574.443 416.81C575.574 415.691 577.332 415.439 579.545 415.439H589.627C590.145 415.439 590.565 415.859 590.565 416.378C590.565 416.896 590.145 417.316 589.627 417.316H579.545C577.317 417.316 576.298 417.615 575.762 418.144Z" fill="#1A8917"/>
<path fill-rule="evenodd" clip-rule="evenodd" d="M596.148 415.511C596.498 415.366 596.902 415.446 597.17 415.714L599.672 418.216C600.038 418.582 600.038 419.176 599.672 419.543C599.305 419.909 598.711 419.909 598.345 419.543L597.445 418.643V423.883C597.445 424.401 597.025 424.821 596.507 424.821C595.988 424.821 595.568 424.401 595.568 423.883V416.378C595.568 415.998 595.797 415.656 596.148 415.511Z" fill="#1A8917"/>
<path fill-rule="evenodd" clip-rule="evenodd" d="M597.17 415.714C597.536 416.081 597.536 416.675 597.17 417.041L594.668 419.543C594.302 419.909 593.708 419.909 593.341 419.543C592.975 419.176 592.975 418.582 593.341 418.216L595.843 415.714C596.209 415.348 596.803 415.348 597.17 415.714Z" fill="#1A8917"/>
<path d="M411.771 595.02H413.051V600.885H415.933V602.025H411.771V595.02ZM416.584 595.02H417.825V596.261H416.584V595.02ZM416.584 597.022H417.825V602.025H416.584V597.022ZM416.684 602.836H417.725V603.807H416.684V602.836ZM421.31 602.125C420.756 602.125 420.279 602.012 419.879 601.785C419.485 601.552 419.188 601.238 418.988 600.845C418.788 600.451 418.688 600.014 418.688 599.534C418.688 599.047 418.788 598.606 418.988 598.213C419.188 597.812 419.488 597.499 419.889 597.272C420.289 597.039 420.776 596.922 421.35 596.922C421.863 596.922 422.31 597.029 422.691 597.242L422.591 598.243C422.23 598.056 421.857 597.963 421.47 597.963C420.996 597.963 420.626 598.106 420.359 598.393C420.092 598.68 419.959 599.06 419.959 599.534C419.959 599.987 420.095 600.364 420.369 600.664C420.642 600.958 421.006 601.105 421.46 601.105C421.84 601.105 422.22 600.995 422.601 600.775L422.711 601.825C422.53 601.919 422.317 601.992 422.07 602.045C421.83 602.099 421.576 602.125 421.31 602.125ZM426.064 596.942C426.698 596.942 427.168 597.149 427.475 597.562C427.788 597.969 427.945 598.53 427.945 599.243V602.025H426.704V599.333C426.704 598.86 426.627 598.513 426.474 598.293C426.321 598.073 426.077 597.963 425.744 597.963C425.35 597.963 425.026 598.106 424.773 598.393V602.025H423.532V594.52H424.773V597.342C424.973 597.215 425.176 597.119 425.383 597.052C425.59 596.978 425.817 596.942 426.064 596.942ZM432.722 602.125C432.402 602.125 432.109 602.095 431.842 602.035C431.582 601.975 431.311 601.882 431.031 601.755L431.141 600.694C431.421 600.861 431.682 600.988 431.922 601.075C432.169 601.155 432.422 601.195 432.682 601.195C433.189 601.195 433.443 601.028 433.443 600.694C433.443 600.514 433.376 600.378 433.243 600.284C433.109 600.184 432.869 600.067 432.522 599.934C432.029 599.754 431.665 599.55 431.431 599.323C431.198 599.09 431.081 598.776 431.081 598.383C431.081 597.949 431.248 597.599 431.582 597.332C431.915 597.059 432.365 596.922 432.933 596.922C433.5 596.922 434.017 597.052 434.484 597.312L434.374 598.373C434.12 598.199 433.88 598.066 433.653 597.973C433.433 597.879 433.199 597.832 432.953 597.832C432.739 597.832 432.572 597.876 432.452 597.963C432.339 598.049 432.282 598.173 432.282 598.333C432.282 598.46 432.315 598.563 432.382 598.643C432.456 598.723 432.556 598.796 432.682 598.863C432.809 598.923 433.019 599.01 433.313 599.123C433.8 599.31 434.15 599.517 434.364 599.744C434.577 599.964 434.684 600.261 434.684 600.634C434.684 601.108 434.514 601.475 434.173 601.735C433.833 601.995 433.349 602.125 432.722 602.125ZM441.077 596.281C441.077 596.628 440.967 596.928 440.747 597.182C440.526 597.435 440.243 597.619 439.896 597.732V602.025H438.735L438.715 601.725C438.562 601.839 438.385 601.935 438.185 602.015C437.985 602.089 437.791 602.125 437.604 602.125C436.864 602.125 436.323 601.912 435.983 601.485C435.65 601.058 435.483 600.468 435.483 599.714V597.022H436.724V599.714C436.724 600.181 436.8 600.528 436.954 600.754C437.114 600.975 437.367 601.085 437.714 601.085C438.101 601.085 438.415 600.945 438.655 600.664V597.022H439.215C439.749 597.022 440.016 596.775 440.016 596.281H441.077ZM437.504 596.311C437.658 596.178 437.764 596.068 437.824 595.981C437.891 595.894 437.925 595.794 437.925 595.681C437.925 595.574 437.891 595.494 437.824 595.441C437.758 595.387 437.668 595.361 437.554 595.361C437.381 595.361 437.177 595.424 436.944 595.551L436.774 594.94C437.027 594.814 437.294 594.75 437.574 594.75C437.861 594.75 438.098 594.83 438.285 594.99C438.472 595.151 438.565 595.367 438.565 595.641C438.565 595.848 438.508 596.031 438.395 596.191C438.288 596.345 438.115 596.508 437.875 596.682L437.504 596.311ZM448.852 602.165C448.118 602.165 447.484 602.015 446.951 601.715C446.424 601.415 446.02 600.991 445.74 600.444C445.46 599.891 445.32 599.247 445.32 598.513C445.32 597.792 445.473 597.159 445.78 596.612C446.093 596.058 446.527 595.631 447.081 595.331C447.634 595.03 448.268 594.88 448.982 594.88C449.342 594.88 449.693 594.917 450.033 594.99C450.373 595.064 450.667 595.164 450.913 595.291L450.773 596.512C450.193 596.245 449.596 596.111 448.982 596.111C448.235 596.111 447.671 596.331 447.291 596.772C446.911 597.205 446.721 597.779 446.721 598.493C446.721 599.233 446.907 599.827 447.281 600.274C447.655 600.714 448.195 600.935 448.902 600.935C449.189 600.935 449.509 600.898 449.863 600.825V599.574H448.902V598.513H451.144V601.635C450.883 601.789 450.55 601.915 450.143 602.015C449.743 602.115 449.312 602.165 448.852 602.165ZM452.385 595.02H455.007C455.674 595.02 456.268 595.161 456.788 595.441C457.315 595.721 457.726 596.125 458.019 596.652C458.313 597.179 458.459 597.802 458.459 598.523C458.459 599.243 458.313 599.867 458.019 600.394C457.726 600.921 457.315 601.325 456.788 601.605C456.268 601.885 455.674 602.025 455.007 602.025H452.385V595.02ZM455.007 600.885C455.674 600.885 456.181 600.678 456.528 600.264C456.882 599.844 457.058 599.263 457.058 598.523C457.058 597.782 456.882 597.205 456.528 596.792C456.181 596.371 455.674 596.161 455.007 596.161H453.666V600.885H455.007Z" fill="#444444"/>
<path fill-rule="evenodd" clip-rule="evenodd" d="M423.36 560.872C425.029 559.203 427.527 558.564 430.747 558.564H438.252C441.472 558.564 443.97 559.203 445.639 560.872C447.309 562.541 447.947 565.039 447.947 568.259V575.764C447.947 578.984 447.309 581.482 445.639 583.151C443.97 584.82 441.472 585.458 438.252 585.458H430.747C427.527 585.458 425.029 584.82 423.36 583.151C421.691 581.482 421.053 578.984 421.053 575.764V568.259C421.053 565.039 421.691 562.541 423.36 560.872ZM424.687 562.199C423.542 563.344 422.929 565.224 422.929 568.259V575.764C422.929 578.799 423.542 580.679 424.687 581.824C425.832 582.969 427.712 583.582 430.747 583.582H438.252C441.287 583.582 443.167 582.969 444.312 581.824C445.458 580.679 446.07 578.799 446.07 575.764V568.259C446.07 565.224 445.458 563.344 444.312 562.199C443.167 561.053 441.287 560.441 438.252 560.441H430.747C427.712 560.441 425.832 561.053 424.687 562.199Z" fill="#1A8917"/>
<path fill-rule="evenodd" clip-rule="evenodd" d="M428.871 568.258C428.871 567.74 429.291 567.32 429.809 567.32H439.191C439.709 567.32 440.129 567.74 440.129 568.258C440.129 568.777 439.709 569.197 439.191 569.197H429.809C429.291 569.197 428.871 568.777 428.871 568.258Z" fill="#1A8917"/>
<path fill-rule="evenodd" clip-rule="evenodd" d="M428.871 575.764C428.871 575.246 429.291 574.826 429.809 574.826H439.191C439.709 574.826 440.129 575.246 440.129 575.764C440.129 576.282 439.709 576.702 439.191 576.702H429.809C429.291 576.702 428.871 576.282 428.871 575.764Z" fill="#1A8917"/>
<path d="M201.771 594.02H203.051V599.885H205.933V601.025H201.771V594.02ZM206.584 594.02H207.825V595.261H206.584V594.02ZM206.584 596.022H207.825V601.025H206.584V596.022ZM211.4 601.125C210.819 601.125 210.322 601.009 209.909 600.775C209.502 600.535 209.195 600.218 208.988 599.825C208.788 599.424 208.688 598.981 208.688 598.494C208.688 598.027 208.785 597.6 208.978 597.213C209.171 596.826 209.452 596.519 209.819 596.292C210.185 596.059 210.622 595.942 211.129 595.942C211.596 595.942 211.99 596.039 212.31 596.232C212.637 596.425 212.881 596.686 213.041 597.013C213.208 597.339 213.291 597.706 213.291 598.113C213.291 598.313 213.264 598.54 213.211 598.794H209.979C210.045 599.234 210.219 599.564 210.499 599.785C210.779 599.998 211.116 600.105 211.51 600.105C212.05 600.105 212.55 599.968 213.011 599.694L213.071 600.745C212.857 600.859 212.607 600.952 212.32 601.025C212.04 601.092 211.733 601.125 211.4 601.125ZM212.03 597.953C212.03 597.693 211.957 597.463 211.81 597.263C211.663 597.063 211.436 596.963 211.129 596.963C210.823 596.963 210.576 597.053 210.389 597.233C210.202 597.413 210.075 597.653 210.009 597.953H212.03ZM209.899 594.691L211.22 593.57L212.54 594.691V595.481L211.22 594.651L209.899 595.481V594.691ZM216.66 595.942C217.28 595.942 217.751 596.149 218.071 596.562C218.391 596.976 218.551 597.533 218.551 598.233V601.025H217.31V598.333C217.31 597.866 217.23 597.523 217.07 597.303C216.917 597.076 216.667 596.963 216.32 596.963C215.939 596.963 215.626 597.106 215.379 597.393V601.025H214.138V596.022H215.299L215.319 596.372C215.739 596.085 216.186 595.942 216.66 595.942ZM221.897 593.52H223.138V598.073L224.689 596.022H226.09L224.269 598.424L226.13 601.025H224.729L223.138 598.804V601.025H221.897V593.52ZM228.961 601.125C228.38 601.125 227.883 601.009 227.47 600.775C227.063 600.535 226.756 600.218 226.549 599.825C226.349 599.424 226.249 598.981 226.249 598.494C226.249 598.027 226.346 597.6 226.539 597.213C226.733 596.826 227.013 596.519 227.38 596.292C227.747 596.059 228.184 595.942 228.691 595.942C229.158 595.942 229.551 596.039 229.872 596.232C230.198 596.425 230.442 596.686 230.602 597.013C230.769 597.339 230.852 597.706 230.852 598.113C230.852 598.313 230.826 598.54 230.772 598.794H227.54C227.607 599.234 227.78 599.564 228.06 599.785C228.34 599.998 228.677 600.105 229.071 600.105C229.611 600.105 230.112 599.968 230.572 599.694L230.632 600.745C230.419 600.859 230.168 600.952 229.882 601.025C229.601 601.092 229.294 601.125 228.961 601.125ZM229.591 597.953C229.591 597.693 229.518 597.463 229.371 597.263C229.224 597.063 228.998 596.963 228.691 596.963C228.384 596.963 228.137 597.053 227.95 597.233C227.763 597.413 227.637 597.653 227.57 597.953H229.591ZM230.202 592.79H231.353L230.332 594.06H229.541L230.202 592.79ZM227.46 594.831L228.781 593.91L230.102 594.831V595.572L228.781 594.851L227.46 595.572V594.831ZM233.33 601.125C232.89 601.125 232.557 600.999 232.33 600.745C232.103 600.485 231.99 600.175 231.99 599.815V597.043H231.279L231.389 596.022H231.99V594.921L233.23 594.791V596.022H234.331V597.043H233.23V599.304C233.23 599.571 233.244 599.758 233.27 599.865C233.304 599.965 233.367 600.031 233.461 600.065C233.561 600.091 233.737 600.105 233.991 600.105H234.331L234.221 601.125H233.33ZM239.018 601.125C238.578 601.125 238.244 600.999 238.017 600.745C237.791 600.485 237.677 600.175 237.677 599.815V597.043H236.967L237.077 596.022H237.677V594.921L238.918 594.791V596.022H240.019V597.043H238.918V599.304C238.918 599.571 238.931 599.758 238.958 599.865C238.991 599.965 239.055 600.031 239.148 600.065C239.248 600.091 239.425 600.105 239.679 600.105H240.019L239.909 601.125H239.018ZM243.349 595.942C243.982 595.942 244.453 596.149 244.76 596.562C245.073 596.969 245.23 597.53 245.23 598.243V601.025H243.989V598.333C243.989 597.86 243.912 597.513 243.759 597.293C243.605 597.073 243.362 596.963 243.028 596.963C242.635 596.963 242.311 597.106 242.058 597.393V601.025H240.817V593.52H242.058V596.342C242.258 596.215 242.461 596.119 242.668 596.052C242.875 595.978 243.102 595.942 243.349 595.942ZM248.75 601.125C248.17 601.125 247.673 601.009 247.259 600.775C246.852 600.535 246.545 600.218 246.339 599.825C246.138 599.424 246.038 598.981 246.038 598.494C246.038 598.027 246.135 597.6 246.329 597.213C246.522 596.826 246.802 596.519 247.169 596.292C247.536 596.059 247.973 595.942 248.48 595.942C248.947 595.942 249.341 596.039 249.661 596.232C249.988 596.425 250.231 596.686 250.391 597.013C250.558 597.339 250.642 597.706 250.642 598.113C250.642 598.313 250.615 598.54 250.562 598.794H247.329C247.396 599.234 247.569 599.564 247.85 599.785C248.13 599.998 248.467 600.105 248.86 600.105C249.401 600.105 249.901 599.968 250.361 599.694L250.421 600.745C250.208 600.859 249.958 600.952 249.671 601.025C249.391 601.092 249.084 601.125 248.75 601.125ZM249.381 597.953C249.381 597.693 249.307 597.463 249.161 597.263C249.014 597.063 248.787 596.963 248.48 596.963C248.173 596.963 247.926 597.053 247.74 597.233C247.553 597.413 247.426 597.653 247.359 597.953H249.381ZM248.36 595.311C248.513 595.178 248.62 595.068 248.68 594.981C248.747 594.894 248.78 594.794 248.78 594.681C248.78 594.574 248.747 594.494 248.68 594.441C248.613 594.387 248.523 594.361 248.41 594.361C248.237 594.361 248.033 594.424 247.8 594.551L247.629 593.94C247.883 593.814 248.15 593.75 248.43 593.75C248.717 593.75 248.954 593.83 249.141 593.99C249.327 594.151 249.421 594.367 249.421 594.641C249.421 594.848 249.364 595.031 249.251 595.191C249.144 595.345 248.97 595.508 248.73 595.682L248.36 595.311Z" fill="#444444"/>
<path fill-rule="evenodd" clip-rule="evenodd" d="M236.016 560.253C236.383 560.62 236.383 561.214 236.016 561.58L221.068 576.528C220.702 576.894 220.108 576.894 219.742 576.528C219.375 576.162 219.375 575.568 219.742 575.201L234.69 560.253C235.056 559.887 235.65 559.887 236.016 560.253Z" fill="#1A8917"/>
<path fill-rule="evenodd" clip-rule="evenodd" d="M231.54 576.701C231.906 577.067 231.906 577.661 231.54 578.027L230.039 579.528C229.673 579.895 229.079 579.895 228.712 579.528C228.346 579.162 228.346 578.568 228.712 578.202L230.213 576.701C230.58 576.334 231.174 576.334 231.54 576.701Z" fill="#1A8917"/>
<path fill-rule="evenodd" clip-rule="evenodd" d="M236.396 571.847C236.762 572.213 236.762 572.807 236.396 573.174L233.406 576.163C233.04 576.53 232.446 576.53 232.079 576.163C231.713 575.797 231.713 575.203 232.079 574.837L235.069 571.847C235.435 571.481 236.029 571.481 236.396 571.847Z" fill="#1A8917"/>
<path fill-rule="evenodd" clip-rule="evenodd" d="M231.617 559.443C231.045 559.446 230.294 559.835 228.963 561.166L220.657 569.472C219.319 570.811 218.932 571.56 218.929 572.13C218.926 572.695 219.301 573.432 220.62 574.75L226.762 580.892C228.078 582.208 228.818 582.581 229.385 582.578C229.958 582.574 230.708 582.186 232.039 580.854L240.345 572.548C241.677 571.217 242.065 570.467 242.069 569.894C242.072 569.327 241.699 568.587 240.383 567.271L234.241 561.129C232.925 559.812 232.184 559.439 231.617 559.443ZM231.606 557.566C233.021 557.558 234.257 558.491 235.568 559.802L241.71 565.944C243.02 567.254 243.954 568.49 243.945 569.906C243.936 571.316 242.993 572.555 241.672 573.875L233.366 582.181C232.046 583.502 230.807 584.445 229.397 584.454C227.981 584.463 226.745 583.529 225.435 582.219L219.293 576.077C217.985 574.768 217.046 573.535 217.053 572.121C217.059 570.711 218.005 569.471 219.331 568.145L227.636 559.84C228.957 558.519 230.196 557.575 231.606 557.566Z" fill="#1A8917"/>
<path fill-rule="evenodd" clip-rule="evenodd" d="M217.053 583.518C217.053 583 217.473 582.58 217.991 582.58H243.009C243.527 582.58 243.947 583 243.947 583.518C243.947 584.036 243.527 584.456 243.009 584.456H217.991C217.473 584.456 217.053 584.036 217.053 583.518Z" fill="#1A8917"/>
<path d="M66.1944 447.02L63.7026 454.025H62.4918L60 447.02H61.2909L63.0922 452.174L64.9035 447.02H66.1944ZM66.7273 449.022H67.9682V454.025H66.7273V449.022ZM66.3671 447.531L68.3385 446.41V447.561L66.3671 448.321V447.531ZM76.993 447.02L74.5012 454.025H73.2904L70.7986 447.02H72.0895L73.8908 452.174L75.7021 447.02H76.993ZM79.3383 454.125C78.8112 454.125 78.3542 454.009 77.9673 453.775C77.5803 453.542 77.2835 453.228 77.0767 452.835C76.8698 452.441 76.7664 452.007 76.7664 451.534C76.7664 451.06 76.8698 450.623 77.0767 450.223C77.2835 449.822 77.5803 449.506 77.9673 449.272C78.3542 449.039 78.8112 448.922 79.3383 448.922C79.8653 448.922 80.3223 449.039 80.7092 449.272C81.0962 449.506 81.393 449.822 81.5998 450.223C81.8067 450.623 81.9101 451.06 81.9101 451.534C81.9101 452.007 81.8067 452.441 81.5998 452.835C81.393 453.228 81.0962 453.542 80.7092 453.775C80.3223 454.009 79.8653 454.125 79.3383 454.125ZM79.3383 453.105C79.7452 453.105 80.0621 452.961 80.2889 452.674C80.5224 452.388 80.6392 452.007 80.6392 451.534C80.6392 451.053 80.5224 450.67 80.2889 450.383C80.0621 450.089 79.7452 449.943 79.3383 449.943C78.9313 449.943 78.6111 450.089 78.3776 450.383C78.1507 450.67 78.0373 451.053 78.0373 451.534C78.0373 452.007 78.1507 452.388 78.3776 452.674C78.6111 452.961 78.9313 453.105 79.3383 453.105ZM87.1369 449.022V454.025H85.9761L85.956 453.725C85.8026 453.839 85.6258 453.935 85.4257 454.015C85.2255 454.089 85.0321 454.125 84.8453 454.125C84.1047 454.125 83.5644 453.912 83.2241 453.485C82.8906 453.058 82.7238 452.468 82.7238 451.714V449.022H83.9646V451.714C83.9646 452.181 84.0414 452.528 84.1948 452.754C84.3549 452.975 84.6084 453.085 84.9553 453.085C85.3423 453.085 85.6558 452.945 85.896 452.664V449.022H87.1369ZM90.6169 454.125C90.0632 454.125 89.5862 454.012 89.1859 453.785C88.7923 453.552 88.4954 453.238 88.2953 452.845C88.0951 452.451 87.9951 452.014 87.9951 451.534C87.9951 451.047 88.0951 450.606 88.2953 450.213C88.4954 449.812 88.7956 449.499 89.1959 449.272C89.5962 449.039 90.0832 448.922 90.6569 448.922C91.1706 448.922 91.6176 449.029 91.9979 449.242L91.8978 450.243C91.5376 450.056 91.164 449.963 90.777 449.963C90.3034 449.963 89.9331 450.106 89.6662 450.393C89.3994 450.68 89.266 451.06 89.266 451.534C89.266 451.987 89.4027 452.364 89.6762 452.664C89.9498 452.958 90.3134 453.105 90.767 453.105C91.1473 453.105 91.5276 452.995 91.9078 452.775L92.0179 453.825C91.8378 453.919 91.6243 453.992 91.3774 454.045C91.1373 454.099 90.8838 454.125 90.6169 454.125ZM95.371 448.942C96.0048 448.942 96.4752 449.149 96.782 449.562C97.0956 449.969 97.2524 450.53 97.2524 451.243V454.025H96.0115V451.333C96.0115 450.86 95.9348 450.513 95.7813 450.293C95.6279 450.073 95.3844 449.963 95.0508 449.963C94.6572 449.963 94.3337 450.106 94.0801 450.393V454.025H92.8393V446.52H94.0801V449.342C94.2803 449.215 94.4838 449.119 94.6906 449.052C94.8974 448.978 95.1242 448.942 95.371 448.942ZM100.773 454.125C100.192 454.125 99.6952 454.009 99.2816 453.775C98.8747 453.535 98.5678 453.218 98.361 452.825C98.1608 452.424 98.0608 451.981 98.0608 451.494C98.0608 451.027 98.1575 450.6 98.351 450.213C98.5444 449.826 98.8246 449.519 99.1916 449.292C99.5585 449.059 99.9955 448.942 100.502 448.942C100.969 448.942 101.363 449.039 101.683 449.232C102.01 449.425 102.254 449.686 102.414 450.013C102.581 450.339 102.664 450.706 102.664 451.113C102.664 451.313 102.637 451.54 102.584 451.794H99.3517C99.4184 452.234 99.5918 452.564 99.872 452.785C100.152 452.998 100.489 453.105 100.883 453.105C101.423 453.105 101.923 452.968 102.384 452.694L102.444 453.745C102.23 453.859 101.98 453.952 101.693 454.025C101.413 454.092 101.106 454.125 100.773 454.125ZM101.403 450.953C101.403 450.693 101.33 450.463 101.183 450.263C101.036 450.063 100.809 449.963 100.502 449.963C100.196 449.963 99.9488 450.053 99.762 450.233C99.5752 450.413 99.4484 450.653 99.3817 450.953H101.403ZM103.511 449.022H104.672L104.702 449.552C104.849 449.385 105.035 449.239 105.262 449.112C105.496 448.985 105.739 448.922 105.993 448.922C106.073 448.922 106.146 448.928 106.213 448.942L106.123 450.163C105.996 450.129 105.853 450.113 105.693 450.113C105.486 450.113 105.296 450.163 105.122 450.263C104.949 450.356 104.825 450.473 104.752 450.613V454.025H103.511V449.022Z" fill="#444444"/>
<path fill-rule="evenodd" clip-rule="evenodd" d="M72.5784 414.59C73.8149 413.354 75.7502 413.064 78.2453 413.064H90.7541C93.2492 413.064 95.1845 413.354 96.421 414.59C97.6575 415.827 97.9467 417.762 97.9467 420.257V421.508C97.9467 422.026 97.5267 422.446 97.0085 422.446C95.8005 422.446 94.8195 423.427 94.8195 424.635C94.8195 425.843 95.8005 426.824 97.0085 426.824C97.5267 426.824 97.9467 427.244 97.9467 427.762C97.9467 430.257 97.6575 432.193 96.421 433.429C95.1845 434.666 93.2492 434.955 90.7541 434.955H78.2453C75.7502 434.955 73.8149 434.666 72.5784 433.429C71.3419 432.193 71.0527 430.257 71.0527 427.762V427.137C71.0527 426.619 71.4728 426.199 71.9909 426.199C73.199 426.199 74.1799 425.218 74.1799 424.01C74.1799 422.802 73.199 421.821 71.9909 421.821C71.4728 421.821 71.0527 421.401 71.0527 420.882V420.257C71.0527 417.762 71.3419 415.827 72.5784 414.59ZM72.9298 420.053C74.7219 420.477 76.0563 422.088 76.0563 424.01C76.0563 425.931 74.7219 427.542 72.9298 427.966C72.9478 430.336 73.2829 431.48 73.9052 432.102C74.545 432.742 75.7368 433.079 78.2453 433.079H90.7541C93.2626 433.079 94.4545 432.742 95.0943 432.102C95.6594 431.537 95.9877 430.542 96.0567 428.588C94.2711 428.16 92.9432 426.552 92.9432 424.635C92.9432 422.714 94.2779 421.102 96.0704 420.679V420.257C96.0704 417.749 95.7341 416.557 95.0943 415.917C94.4545 415.277 93.2626 414.941 90.7541 414.941H78.2453C75.7368 414.941 74.545 415.277 73.9052 415.917C73.2829 416.539 72.9478 417.684 72.9298 420.053Z" fill="#1A8917"/>
<path fill-rule="evenodd" clip-rule="evenodd" d="M81.9987 413.064C82.5168 413.064 82.9369 413.484 82.9369 414.003L82.9369 416.504C82.9369 417.023 82.5168 417.443 81.9987 417.443C81.4806 417.443 81.0605 417.023 81.0605 416.504L81.0605 414.003C81.0605 413.484 81.4806 413.064 81.9987 413.064ZM81.9987 420.57C82.5168 420.57 82.9369 420.99 82.9369 421.508L82.9369 426.511C82.9369 427.03 82.5168 427.45 81.9987 427.45C81.4806 427.45 81.0605 427.03 81.0605 426.511L81.0605 421.508C81.0605 420.99 81.4806 420.57 81.9987 420.57ZM81.9987 430.577C82.5168 430.577 82.9369 430.997 82.9369 431.515L82.9369 434.017C82.9369 434.535 82.5168 434.955 81.9987 434.955C81.4806 434.955 81.0605 434.535 81.0605 434.017L81.0605 431.515C81.0605 430.997 81.4806 430.577 81.9987 430.577Z" fill="#1A8917"/>
<path d="M52.1315 242.261H50.1501V241.02H55.3938V242.261H53.4124V248.025H52.1315V242.261ZM58.5943 242.942C59.2281 242.942 59.6985 243.149 60.0053 243.562C60.3189 243.969 60.4757 244.53 60.4757 245.243V248.025H59.2348V245.333C59.2348 244.86 59.1581 244.513 59.0046 244.293C58.8512 244.073 58.6077 243.963 58.2741 243.963C57.8805 243.963 57.5569 244.106 57.3034 244.393V248.025H56.0626V240.52H57.3034V243.342C57.5036 243.215 57.7071 243.119 57.9139 243.052C58.1207 242.978 58.3475 242.942 58.5943 242.942ZM63.996 248.125C63.4156 248.125 62.9185 248.009 62.5049 247.775C62.098 247.535 61.7911 247.218 61.5843 246.825C61.3841 246.424 61.2841 245.981 61.2841 245.494C61.2841 245.027 61.3808 244.6 61.5743 244.213C61.7677 243.826 62.0479 243.519 62.4149 243.292C62.7818 243.059 63.2188 242.942 63.7258 242.942C64.1928 242.942 64.5864 243.039 64.9066 243.232C65.2335 243.425 65.477 243.686 65.6371 244.013C65.8039 244.339 65.8873 244.706 65.8873 245.113C65.8873 245.313 65.8606 245.54 65.8072 245.794H62.575C62.6417 246.234 62.8151 246.564 63.0953 246.785C63.3755 246.998 63.7124 247.105 64.106 247.105C64.6464 247.105 65.1468 246.968 65.6071 246.694L65.6671 247.745C65.4537 247.859 65.2035 247.952 64.9166 248.025C64.6364 248.092 64.3295 248.125 63.996 248.125ZM64.6264 244.953C64.6264 244.693 64.553 244.463 64.4063 244.263C64.2595 244.063 64.0327 243.963 63.7258 243.963C63.4189 243.963 63.1721 244.053 62.9853 244.233C62.7985 244.413 62.6717 244.653 62.605 244.953H64.6264ZM69.006 248.125C68.4789 248.125 68.022 248.009 67.635 247.775C67.2481 247.542 66.9512 247.228 66.7444 246.835C66.5376 246.441 66.4342 246.007 66.4342 245.534C66.4342 245.06 66.5376 244.623 66.7444 244.223C66.9512 243.822 67.2481 243.506 67.635 243.272C68.022 243.039 68.4789 242.922 69.006 242.922C69.533 242.922 69.99 243.039 70.377 243.272C70.7639 243.506 71.0608 243.822 71.2676 244.223C71.4744 244.623 71.5778 245.06 71.5778 245.534C71.5778 246.007 71.4744 246.441 71.2676 246.835C71.0608 247.228 70.7639 247.542 70.377 247.775C69.99 248.009 69.533 248.125 69.006 248.125ZM69.006 247.105C69.4129 247.105 69.7298 246.961 69.9567 246.674C70.1902 246.388 70.3069 246.007 70.3069 245.534C70.3069 245.053 70.1902 244.67 69.9567 244.383C69.7298 244.089 69.4129 243.943 69.006 243.943C68.599 243.943 68.2788 244.089 68.0453 244.383C67.8185 244.67 67.7051 245.053 67.7051 245.534C67.7051 246.007 67.8185 246.388 68.0453 246.674C68.2788 246.961 68.599 247.105 69.006 247.105ZM79.2524 240.52V248.025H78.0816L78.0616 247.705C77.8681 247.845 77.6646 247.952 77.4512 248.025C77.2444 248.092 76.9975 248.125 76.7106 248.125C76.2236 248.125 75.8033 248.009 75.4498 247.775C75.1028 247.542 74.8393 247.228 74.6592 246.835C74.4791 246.441 74.389 246.007 74.389 245.534C74.389 245.06 74.4791 244.626 74.6592 244.233C74.8393 243.839 75.1028 243.526 75.4498 243.292C75.8033 243.059 76.2236 242.942 76.7106 242.942C77.1977 242.942 77.6313 243.075 78.0116 243.342V240.52H79.2524ZM76.8908 247.105C77.2844 247.105 77.5779 246.965 77.7714 246.684C77.9715 246.404 78.0716 246.021 78.0716 245.534C78.0716 245.047 77.9715 244.663 77.7714 244.383C77.5779 244.103 77.2844 243.963 76.8908 243.963C76.5038 243.963 76.2003 244.106 75.9801 244.393C75.7666 244.68 75.6599 245.06 75.6599 245.534C75.6599 246.007 75.7666 246.388 75.9801 246.674C76.2003 246.961 76.5038 247.105 76.8908 247.105ZM82.6777 248.125C82.1507 248.125 81.6937 248.009 81.3068 247.775C80.9198 247.542 80.623 247.228 80.4161 246.835C80.2093 246.441 80.1059 246.007 80.1059 245.534C80.1059 245.06 80.2093 244.623 80.4161 244.223C80.623 243.822 80.9198 243.506 81.3068 243.272C81.6937 243.039 82.1507 242.922 82.6777 242.922C83.2048 242.922 83.6618 243.039 84.0487 243.272C84.4356 243.506 84.7325 243.822 84.9393 244.223C85.1462 244.623 85.2496 245.06 85.2496 245.534C85.2496 246.007 85.1462 246.441 84.9393 246.835C84.7325 247.228 84.4356 247.542 84.0487 247.775C83.6618 248.009 83.2048 248.125 82.6777 248.125ZM82.6777 247.105C83.0847 247.105 83.4016 246.961 83.6284 246.674C83.8619 246.388 83.9787 246.007 83.9787 245.534C83.9787 245.053 83.8619 244.67 83.6284 244.383C83.4016 244.089 83.0847 243.943 82.6777 243.943C82.2708 243.943 81.9506 244.089 81.7171 244.383C81.4902 244.67 81.3768 245.053 81.3768 245.534C81.3768 246.007 81.4902 246.388 81.7171 246.674C81.9506 246.961 82.2708 247.105 82.6777 247.105ZM83.5283 242.241C83.4149 242.241 83.3015 242.221 83.1881 242.181C83.0814 242.141 82.9479 242.085 82.7878 242.011C82.6477 241.944 82.5276 241.894 82.4276 241.861C82.3342 241.821 82.2441 241.801 82.1574 241.801C82.0506 241.801 81.9672 241.834 81.9072 241.901C81.8472 241.961 81.8171 242.048 81.8171 242.161H80.9665C80.9799 241.768 81.0599 241.467 81.2067 241.261C81.3535 241.054 81.5603 240.95 81.8271 240.95C81.9406 240.95 82.0506 240.97 82.1574 241.01C82.2708 241.05 82.4076 241.107 82.5677 241.181C82.7078 241.247 82.8245 241.301 82.9179 241.341C83.018 241.374 83.1114 241.391 83.1981 241.391C83.3049 241.391 83.3882 241.361 83.4483 241.301C83.5083 241.234 83.5383 241.144 83.5383 241.03H84.3889C84.3756 241.424 84.2955 241.724 84.1488 241.931C84.002 242.138 83.7952 242.241 83.5283 242.241ZM86.1133 241.02H87.3542V242.261H86.1133V241.02ZM86.1133 243.022H87.3542V248.025H86.1133V243.022ZM92.186 248.125C91.8658 248.125 91.5722 248.095 91.3054 248.035C91.0452 247.975 90.775 247.882 90.4948 247.755L90.6049 246.694C90.8851 246.861 91.1453 246.988 91.3854 247.075C91.6323 247.155 91.8858 247.195 92.146 247.195C92.653 247.195 92.9065 247.028 92.9065 246.694C92.9065 246.514 92.8398 246.378 92.7064 246.284C92.573 246.184 92.3328 246.067 91.9859 245.934C91.4922 245.754 91.1286 245.55 90.8951 245.323C90.6616 245.09 90.5449 244.776 90.5449 244.383C90.5449 243.949 90.7116 243.599 91.0452 243.332C91.3788 243.059 91.8291 242.922 92.3962 242.922C92.9632 242.922 93.4803 243.052 93.9473 243.312L93.8372 244.373C93.5837 244.199 93.3435 244.066 93.1167 243.973C92.8965 243.879 92.663 243.832 92.4162 243.832C92.2027 243.832 92.0359 243.876 91.9158 243.963C91.8024 244.049 91.7457 244.173 91.7457 244.333C91.7457 244.46 91.7791 244.563 91.8458 244.643C91.9192 244.723 92.0192 244.796 92.146 244.863C92.2727 244.923 92.4829 245.01 92.7764 245.123C93.2634 245.31 93.6137 245.517 93.8272 245.744C94.0407 245.964 94.1474 246.261 94.1474 246.634C94.1474 247.108 93.9773 247.475 93.637 247.735C93.2968 247.995 92.8131 248.125 92.186 248.125ZM97.2681 248.125C96.7411 248.125 96.2841 248.009 95.8971 247.775C95.5102 247.542 95.2133 247.228 95.0065 246.835C94.7997 246.441 94.6963 246.007 94.6963 245.534C94.6963 245.06 94.7997 244.623 95.0065 244.223C95.2133 243.822 95.5102 243.506 95.8971 243.272C96.2841 243.039 96.7411 242.922 97.2681 242.922C97.7952 242.922 98.2521 243.039 98.6391 243.272C99.026 243.506 99.3229 243.822 99.5297 244.223C99.7365 244.623 99.8399 245.06 99.8399 245.534C99.8399 246.007 99.7365 246.441 99.5297 246.835C99.3229 247.228 99.026 247.542 98.6391 247.775C98.2521 248.009 97.7952 248.125 97.2681 248.125ZM97.2681 247.105C97.6751 247.105 97.992 246.961 98.2188 246.674C98.4523 246.388 98.569 246.007 98.569 245.534C98.569 245.053 98.4523 244.67 98.2188 244.383C97.992 244.089 97.6751 243.943 97.2681 243.943C96.8612 243.943 96.5409 244.089 96.3074 244.383C96.0806 244.67 95.9672 245.053 95.9672 245.534C95.9672 246.007 96.0806 246.388 96.3074 246.674C96.5409 246.961 96.8612 247.105 97.2681 247.105ZM98.6891 239.79H99.8399L98.8192 241.06H98.0287L98.6891 239.79ZM95.9472 241.831L97.2681 240.91L98.589 241.831V242.572L97.2681 241.851L95.9472 242.572V241.831ZM107.515 240.52V248.025H106.344L106.324 247.705C106.13 247.845 105.927 247.952 105.713 248.025C105.506 248.092 105.26 248.125 104.973 248.125C104.486 248.125 104.065 248.009 103.712 247.775C103.365 247.542 103.101 247.228 102.921 246.835C102.741 246.441 102.651 246.007 102.651 245.534C102.651 245.06 102.741 244.626 102.921 244.233C103.101 243.839 103.365 243.526 103.712 243.292C104.065 243.059 104.486 242.942 104.973 242.942C105.46 242.942 105.893 243.075 106.274 243.342V240.52H107.515ZM105.153 247.105C105.547 247.105 105.84 246.965 106.034 246.684C106.234 246.404 106.334 246.021 106.334 245.534C106.334 245.047 106.234 244.663 106.034 244.383C105.84 244.103 105.547 243.963 105.153 243.963C104.766 243.963 104.462 244.106 104.242 244.393C104.029 244.68 103.922 245.06 103.922 245.534C103.922 246.007 104.029 246.388 104.242 246.674C104.462 246.961 104.766 247.105 105.153 247.105ZM114.212 242.281C114.212 242.628 114.102 242.928 113.882 243.182C113.662 243.435 113.378 243.619 113.031 243.732V248.025H111.871L111.851 247.725C111.697 247.839 111.52 247.935 111.32 248.015C111.12 248.089 110.927 248.125 110.74 248.125C109.999 248.125 109.459 247.912 109.119 247.485C108.785 247.058 108.618 246.468 108.618 245.714V243.022H109.859V245.714C109.859 246.181 109.936 246.528 110.089 246.754C110.249 246.975 110.503 247.085 110.85 247.085C111.237 247.085 111.55 246.945 111.79 246.664V243.022H112.351C112.885 243.022 113.151 242.775 113.151 242.281H114.212Z" fill="#444444"/>
<path fill-rule="evenodd" clip-rule="evenodd" d="M81.198 214.556C80.7639 214.556 80.3224 214.949 80.3224 215.532C80.3224 215.973 80.4171 216.132 80.4645 216.192C80.5208 216.264 80.6334 216.353 80.9346 216.461L84.7024 217.775C85.1432 217.932 85.6469 218.178 86.0232 218.66C86.4077 219.153 86.5643 219.767 86.5643 220.473C86.5643 222.008 85.3758 223.325 83.8124 223.325H81.4607C79.7529 223.325 78.4336 221.889 78.4336 220.197C78.4336 219.679 78.8536 219.259 79.3718 219.259C79.8899 219.259 80.3099 219.679 80.3099 220.197C80.3099 220.932 80.8669 221.448 81.4607 221.448H83.8124C84.2504 221.448 84.688 221.063 84.688 220.473C84.688 220.04 84.5944 219.879 84.5443 219.815C84.4861 219.74 84.3711 219.649 84.0759 219.544L80.308 218.229C79.8732 218.075 79.3671 217.833 78.9889 217.351C78.6016 216.858 78.4461 216.241 78.4461 215.532C78.4461 214.013 79.6307 212.68 81.198 212.68H83.5497C85.2575 212.68 86.5769 214.115 86.5769 215.807C86.5769 216.325 86.1568 216.745 85.6387 216.745C85.1206 216.745 84.7005 216.325 84.7005 215.807C84.7005 215.072 84.1435 214.556 83.5497 214.556H81.198Z" fill="#1A8917"/>
<path fill-rule="evenodd" clip-rule="evenodd" d="M82.4987 211.441C83.0168 211.441 83.4369 211.861 83.4369 212.38V223.638C83.4369 224.156 83.0168 224.576 82.4987 224.576C81.9806 224.576 81.5605 224.156 81.5605 223.638V212.38C81.5605 211.861 81.9806 211.441 82.4987 211.441Z" fill="#1A8917"/>
<path fill-rule="evenodd" clip-rule="evenodd" d="M82.4997 206.439C76.113 206.439 70.9291 211.623 70.9291 218.009C70.9291 224.396 76.113 229.58 82.4997 229.58C88.8865 229.58 94.0704 224.396 94.0704 218.009C94.0704 217.491 94.4904 217.071 95.0085 217.071C95.5267 217.071 95.9467 217.491 95.9467 218.009C95.9467 225.432 89.9227 231.456 82.4997 231.456C75.0767 231.456 69.0527 225.432 69.0527 218.009C69.0527 210.586 75.0767 204.562 82.4997 204.562C83.0179 204.562 83.4379 204.983 83.4379 205.501C83.4379 206.019 83.0179 206.439 82.4997 206.439Z" fill="#1A8917"/>
<path fill-rule="evenodd" clip-rule="evenodd" d="M88.7526 205.812C89.2707 205.812 89.6908 206.233 89.6908 206.751V210.816H93.7561C94.2743 210.816 94.6943 211.236 94.6943 211.754C94.6943 212.272 94.2743 212.692 93.7561 212.692H88.7526C88.2345 212.692 87.8145 212.272 87.8145 211.754V206.751C87.8145 206.233 88.2345 205.812 88.7526 205.812Z" fill="#1A8917"/>
<path fill-rule="evenodd" clip-rule="evenodd" d="M95.6704 204.837C96.0368 205.204 96.0368 205.798 95.6704 206.164L89.416 212.418C89.0496 212.785 88.4556 212.785 88.0892 212.418C87.7229 212.052 87.7229 211.458 88.0892 211.092L94.3436 204.837C94.71 204.471 95.304 204.471 95.6704 204.837Z" fill="#1A8917"/>
</g>
<defs>
<filter id="filter0_d" x="0" y="0" width="654" height="644.313" filterUnits="userSpaceOnUse" color-interpolation-filters="sRGB">
<feFlood flood-opacity="0" result="BackgroundImageFix"/>
<feColorMatrix in="SourceAlpha" type="matrix" values="0 0 0 0 0 0 0 0 0 0 0 0 0 0 0 0 0 0 127 0" result="hardAlpha"/>
<feOffset dy="4"/>
<feGaussianBlur stdDeviation="2"/>
<feComposite in2="hardAlpha" operator="out"/>
<feColorMatrix type="matrix" values="0 0 0 0 0 0 0 0 0 0 0 0 0 0 0 0 0 0 0.25 0"/>
<feBlend mode="normal" in2="BackgroundImageFix" result="effect1_dropShadow"/>
<feBlend mode="normal" in="SourceGraphic" in2="effect1_dropShadow" result="shape"/>
</filter>
</defs>
</svg>
