<svg width="80" height="80" viewBox="0 0 80 80" fill="none" xmlns="http://www.w3.org/2000/svg">
<g clip-path="url(#clip0)">
<path d="M44.7806 0.760449C30.0383 5.09576 32.9952 15.3831 31.3463 26.7822C29.2883 41.009 20.3939 33.7142 10.175 41.3975C-7.48967 54.6789 5.34205 83.9969 27.2794 79.5444C38.9281 77.1801 41.3085 68.592 46.0596 59.4156C52.2053 47.5448 62.3967 50.7812 71.5386 43.0317C90.0785 27.3158 65.6944 -5.38971 44.7806 0.760449Z" fill="url(#paint0_linear)" fill-opacity="0.5"/>
<path opacity="0.1" d="M73.0066 41.157H50.1941V41.1402C50.5051 41.0953 50.8109 40.9538 51.0685 40.6961L58.356 33.4086C58.9662 32.7984 58.9662 31.8091 58.356 31.1989L51.0685 23.9114C50.8107 23.6536 50.5049 23.5122 50.1941 23.4673V19.168C50.1941 18.3055 49.4957 17.6055 48.6316 17.6055H6.99414C6.13008 17.6055 5.43164 18.3055 5.43164 19.168V44.782C5.43164 45.6445 6.13008 46.3445 6.99414 46.3445H29.8066V46.3614C29.4957 46.4063 29.1899 46.5478 28.9323 46.8055L21.6448 54.093C21.0346 54.7031 21.0346 55.6925 21.6448 56.3027L28.9323 63.5902C29.1901 63.848 29.4959 63.9894 29.8066 64.0342V68.3334C29.8066 69.1959 30.5051 69.8959 31.3691 69.8959H73.0066C73.8707 69.8959 74.5691 69.1959 74.5691 68.3334V42.7195C74.5691 41.857 73.8707 41.157 73.0066 41.157Z" fill="#076007"/>
<path d="M74.5691 38.9687V64.5828C74.5691 65.4453 73.8707 66.1453 73.0066 66.1453H31.3691C30.5051 66.1453 29.8066 65.4453 29.8066 64.5828V38.9687C29.8066 38.1062 30.5051 37.4062 31.3691 37.4062H73.0066C73.8707 37.4062 74.5691 38.1062 74.5691 38.9687Z" fill="white"/>
<path d="M74.5691 38.9688L53.0754 53.8141C52.541 54.1828 51.8348 54.1828 51.3004 53.8141L40.3707 46.2656L29.8066 38.9688C29.8066 38.1063 30.5051 37.4062 31.3691 37.4062H73.0066C73.4379 37.4062 73.8285 37.5813 74.1113 37.8641C74.3941 38.1469 74.5691 38.5375 74.5691 38.9688Z" fill="#1A8917"/>
<path d="M61.5253 59.6445C60.8345 59.6445 60.4463 59.3705 60.1892 59.1892C60.0045 59.0589 59.9489 59.0195 59.7539 59.0195C59.5589 59.0195 59.5031 59.0589 59.3186 59.1892C59.0616 59.3706 58.6731 59.6445 57.9823 59.6445C57.2919 59.6445 56.9036 59.3705 56.6467 59.1891C56.4623 59.0589 56.4067 59.0195 56.2122 59.0195C56.0175 59.0195 55.9617 59.0589 55.7773 59.1891C55.5203 59.3705 55.1322 59.6445 54.4414 59.6445C54.01 59.6445 53.6602 59.2947 53.6602 58.8633C53.6602 58.4319 54.01 58.082 54.4414 58.082C54.6361 58.082 54.6917 58.0428 54.8762 57.9125C55.1333 57.7311 55.5214 57.457 56.2122 57.457C56.9028 57.457 57.2911 57.7311 57.548 57.9125C57.7322 58.0427 57.788 58.082 57.9823 58.082C58.1773 58.082 58.233 58.0428 58.4177 57.9125C58.6747 57.7311 59.0631 57.457 59.7537 57.457C60.4445 57.457 60.833 57.7311 61.09 57.9125C61.2745 58.0428 61.3303 58.082 61.5253 58.082C61.9567 58.082 62.3066 58.4319 62.3066 58.8633C62.3066 59.2947 61.9569 59.6445 61.5253 59.6445Z" fill="#076007"/>
<path d="M61.5253 62.457C60.8345 62.457 60.4463 62.183 60.1892 62.0017C60.0045 61.8714 59.9489 61.832 59.7539 61.832C59.5589 61.832 59.5031 61.8714 59.3186 62.0017C59.0616 62.1831 58.6731 62.457 57.9823 62.457C57.2919 62.457 56.9036 62.183 56.6467 62.0016C56.4623 61.8714 56.4067 61.832 56.2122 61.832C56.0175 61.832 55.9617 61.8714 55.7773 62.0016C55.5203 62.183 55.1322 62.457 54.4414 62.457C54.01 62.457 53.6602 62.1072 53.6602 61.6758C53.6602 61.2444 54.01 60.8945 54.4414 60.8945C54.6361 60.8945 54.6917 60.8553 54.8762 60.725C55.1333 60.5436 55.5214 60.2695 56.2122 60.2695C56.9028 60.2695 57.2911 60.5436 57.548 60.725C57.7322 60.8552 57.788 60.8945 57.9823 60.8945C58.1773 60.8945 58.233 60.8553 58.4177 60.725C58.6747 60.5436 59.0631 60.2695 59.7537 60.2695C60.4445 60.2695 60.833 60.5436 61.09 60.725C61.2745 60.8553 61.3303 60.8945 61.5253 60.8945C61.9567 60.8945 62.3066 61.2444 62.3066 61.6758C62.3066 62.1072 61.9569 62.457 61.5253 62.457Z" fill="#076007"/>
<path d="M69.4531 62.6719H64.8438C64.3259 62.6719 63.9062 62.2522 63.9062 61.7344V57.125C63.9062 56.6072 64.3259 56.1875 64.8438 56.1875H69.4531C69.9709 56.1875 70.3906 56.6072 70.3906 57.125V61.7344C70.3906 62.2522 69.9709 62.6719 69.4531 62.6719Z" fill="#1A8917"/>
<path d="M21.6452 52.5519L28.9327 59.8394C29.9171 60.8238 31.6001 60.1266 31.6001 58.7346V56.6175H40.5812C41.4441 56.6175 42.1437 55.918 42.1437 55.055V47.8389C42.1437 46.976 41.4441 46.2764 40.5812 46.2764H31.6001V44.1594C31.6001 42.7674 29.9171 42.0702 28.9327 43.0546L21.6452 50.3421C21.0349 50.9524 21.0349 51.9417 21.6452 52.5519Z" fill="white"/>
<path d="M50.1941 15.418V41.0633C50.1769 41.9117 49.4848 42.5945 48.6316 42.5945H6.99414C6.13008 42.5945 5.43164 41.8945 5.43164 41.032V15.418C5.43164 14.5555 6.13008 13.8555 6.99414 13.8555H48.6316C49.4957 13.8555 50.1941 14.5555 50.1941 15.418Z" fill="white"/>
<path d="M5.43164 15.418L26.9254 30.2628C27.4598 30.6319 28.1668 30.6319 28.7013 30.2628L50.1951 15.418C50.1951 14.555 49.4956 13.8555 48.6326 13.8555H6.99414C6.13117 13.8555 5.43164 14.555 5.43164 15.418Z" fill="#1A8917"/>
<path d="M15.4084 37.8432C16.7974 36.4541 16.7974 34.2021 15.4084 32.8131C14.0194 31.4241 11.7673 31.4241 10.3783 32.8131C8.9893 34.2021 8.9893 36.4541 10.3783 37.8432C11.7673 39.2322 14.0194 39.2322 15.4084 37.8432Z" fill="#1A8917"/>
<path d="M20.7441 36.0938C20.0533 36.0938 19.665 35.8197 19.408 35.6383C19.2233 35.508 19.1677 35.4688 18.9727 35.4688C18.7777 35.4688 18.722 35.508 18.5373 35.6383C18.2803 35.8197 17.8919 36.0938 17.2011 36.0938C16.5105 36.0938 16.1223 35.8197 15.8655 35.6383C15.6811 35.5081 15.6255 35.4688 15.4309 35.4688C15.2362 35.4688 15.1805 35.508 14.9961 35.6383C14.7391 35.8197 14.3509 36.0938 13.6602 36.0938C13.2287 36.0938 12.8789 35.7439 12.8789 35.3125C12.8789 34.8811 13.2287 34.5312 13.6602 34.5312C13.8548 34.5312 13.9106 34.492 14.095 34.3617C14.352 34.1803 14.7402 33.9062 15.4309 33.9062C16.1216 33.9062 16.5098 34.1803 16.7667 34.3617C16.9509 34.4919 17.0067 34.5312 17.2011 34.5312C17.3961 34.5312 17.4517 34.492 17.6364 34.3617C17.8934 34.1803 18.2819 33.9062 18.9725 33.9062C19.6633 33.9062 20.0517 34.1803 20.3087 34.3617C20.4933 34.492 20.5491 34.5312 20.7441 34.5312C21.1755 34.5312 21.5253 34.8811 21.5253 35.3125C21.5253 35.7439 21.1755 36.0938 20.7441 36.0938Z" fill="#076007"/>
<path d="M20.7441 38.9062C20.0533 38.9062 19.665 38.6322 19.408 38.4509C19.2233 38.3206 19.1677 38.2812 18.9727 38.2812C18.7777 38.2812 18.722 38.3205 18.5373 38.4509C18.2803 38.6323 17.8919 38.9062 17.2011 38.9062C16.5105 38.9062 16.1223 38.6322 15.8655 38.4508C15.6811 38.3206 15.6255 38.2812 15.4309 38.2812C15.2362 38.2812 15.1805 38.3205 14.9961 38.4508C14.7391 38.6322 14.3509 38.9062 13.6602 38.9062C13.2287 38.9062 12.8789 38.5564 12.8789 38.125C12.8789 37.6936 13.2287 37.3438 13.6602 37.3438C13.8548 37.3438 13.9106 37.3045 14.095 37.1742C14.352 36.9928 14.7402 36.7188 15.4309 36.7188C16.1216 36.7188 16.5098 36.9928 16.7667 37.1742C16.9509 37.3044 17.0067 37.3438 17.2011 37.3438C17.3961 37.3438 17.4517 37.3045 17.6364 37.1742C17.8934 36.9928 18.2819 36.7188 18.9725 36.7188C19.6633 36.7188 20.0517 36.9928 20.3087 37.1742C20.4933 37.3045 20.5491 37.3438 20.7441 37.3438C21.1755 37.3438 21.5253 37.6936 21.5253 38.125C21.5253 38.5564 21.1755 38.9062 20.7441 38.9062Z" fill="#076007"/>
<path d="M58.3559 27.4475L51.0684 20.16C50.084 19.1756 48.401 19.8728 48.401 21.2649V23.3819H39.4199C38.557 23.3819 37.8574 24.0814 37.8574 24.9444V32.1605C37.8574 33.0235 38.557 33.723 39.4199 33.723H48.401V35.84C48.401 37.2321 50.084 37.9292 51.0684 36.9449L58.3559 29.6574C58.9662 29.0471 58.9662 28.0577 58.3559 27.4475Z" fill="white"/>
<path d="M53.6602 75.0508C53.2287 75.0508 52.8789 74.7009 52.8789 74.2695C52.8789 73.7525 52.4584 73.332 51.9414 73.332C51.51 73.332 51.1602 72.9822 51.1602 72.5508C51.1602 72.1194 51.51 71.7695 51.9414 71.7695C52.4584 71.7695 52.8789 71.3491 52.8789 70.832C52.8789 70.4006 53.2287 70.0508 53.6602 70.0508C54.0916 70.0508 54.4414 70.4006 54.4414 70.832C54.4414 71.3491 54.8619 71.7695 55.3789 71.7695C55.8103 71.7695 56.1602 72.1194 56.1602 72.5508C56.1602 72.9822 55.8103 73.332 55.3789 73.332C54.8619 73.332 54.4414 73.7525 54.4414 74.2695C54.4414 74.7009 54.0916 75.0508 53.6602 75.0508Z" fill="#1A8917"/>
<path d="M27.8126 9.94906C27.6126 9.94906 27.4128 9.87281 27.2601 9.72031L25.5414 8.00156C25.2362 7.69641 25.2362 7.20172 25.5414 6.89672L27.2601 5.17797C27.5653 4.87297 28.0598 4.87297 28.365 5.17797L30.0837 6.89672C30.3889 7.20187 30.3889 7.69656 30.0837 8.00156L28.365 9.72031C28.2125 9.87266 28.0126 9.94906 27.8126 9.94906ZM27.1987 7.44906L27.8126 8.06281L28.4265 7.44891L27.8126 6.83516L27.1987 7.44906Z" fill="#1A8917"/>
<path d="M63.9064 22.6014C63.7064 22.6014 63.5065 22.5252 63.3539 22.3727L61.6351 20.6539C61.33 20.3488 61.33 19.8541 61.6351 19.5491L63.3539 17.8303C63.659 17.5253 64.1536 17.5253 64.4587 17.8303L66.1775 19.5491C66.4826 19.8542 66.4826 20.3489 66.1775 20.6539L64.4587 22.3727C64.3062 22.5252 64.1064 22.6014 63.9064 22.6014ZM63.2925 20.1014L63.9064 20.7153L64.5203 20.1014L63.9064 19.4875L63.2925 20.1014Z" fill="#1A8917"/>
<path d="M19.3888 67.2733C19.1888 67.2733 18.9889 67.197 18.8363 67.0445L17.1175 65.3258C16.8124 65.0206 16.8124 64.5259 17.1175 64.2209L18.8363 62.5022C19.1414 62.1972 19.636 62.1972 19.9411 62.5022L21.6599 64.2209C21.965 64.5261 21.965 65.0208 21.6599 65.3258L19.9411 67.0445C19.7886 67.197 19.5888 67.2733 19.3888 67.2733ZM18.7749 64.7733L19.3888 65.3872L20.0027 64.7733L19.3888 64.1594L18.7749 64.7733Z" fill="#1A8917"/>
<path d="M13.75 60.3906C13.3186 60.3906 12.9688 60.0408 12.9688 59.6094C12.9688 59.0923 12.5483 58.6719 12.0312 58.6719C11.5998 58.6719 11.25 58.322 11.25 57.8906C11.25 57.4592 11.5998 57.1094 12.0312 57.1094C12.5483 57.1094 12.9688 56.6889 12.9688 56.1719C12.9688 55.7405 13.3186 55.3906 13.75 55.3906C14.1814 55.3906 14.5312 55.7405 14.5312 56.1719C14.5312 56.6889 14.9517 57.1094 15.4688 57.1094C15.9002 57.1094 16.25 57.4592 16.25 57.8906C16.25 58.322 15.9002 58.6719 15.4688 58.6719C14.9517 58.6719 14.5312 59.0923 14.5312 59.6094C14.5312 60.0408 14.1814 60.3906 13.75 60.3906Z" fill="#1A8917"/>
<path d="M6.99414 43.3761H27.5074L21.0927 49.7908C20.179 50.7047 20.179 52.1916 21.0927 53.1053L28.3802 60.3928C28.5741 60.5867 28.7927 60.7386 29.0254 60.852V64.5838C29.0254 65.8761 30.0768 66.9275 31.3691 66.9275H73.0076C74.2999 66.9275 75.3513 65.8761 75.3513 64.5838V56.0681C75.3513 55.6367 75.0015 55.2869 74.5701 55.2869C74.1387 55.2869 73.7888 55.6367 73.7888 56.0681V64.5838C73.7888 65.0145 73.4384 65.365 73.0076 65.365H31.3691C30.9384 65.365 30.5879 65.0145 30.5879 64.5838V61.0125C30.7041 60.9834 30.8201 60.9483 30.9345 60.9009C31.827 60.5313 32.3813 59.7016 32.3813 58.7356V57.3999H40.581C41.8734 57.3999 42.9248 56.3484 42.9248 55.0561V47.8398C42.9248 46.5475 41.8734 45.4961 40.581 45.4961H32.3813V44.1603C32.3813 43.885 32.3349 43.6216 32.2499 43.3759H37.2149C37.6463 43.3759 37.9962 43.0261 37.9962 42.5947C37.9962 42.1633 37.6463 41.8134 37.2149 41.8134H6.99414C6.56336 41.8134 6.21289 41.463 6.21289 41.0322V15.418C6.21289 14.9872 6.56336 14.6367 6.99414 14.6367H48.6326C49.0634 14.6367 49.4138 14.9872 49.4138 15.418V18.9866C49.2974 19.0156 49.1816 19.0534 49.0673 19.1008C48.1748 19.4705 47.6204 20.3002 47.6204 21.2661V22.6019H39.4207C38.1284 22.6019 37.077 23.6533 37.077 24.9456V32.1617C37.077 33.4541 38.1284 34.5055 39.4207 34.5055H47.6204V35.8413C47.6204 36.8072 48.1748 37.6369 49.0673 38.0066C49.1816 38.0539 49.2974 38.0891 49.4138 38.1181V41.0323C49.4138 41.4631 49.0634 41.8136 48.6326 41.8136H42.4743C42.0429 41.8136 41.693 42.1634 41.693 42.5948C41.693 43.0263 42.0429 43.3761 42.4743 43.3761H48.6326C49.9249 43.3761 50.9763 42.3247 50.9763 41.0323V38.1881H73.0077C73.4385 38.1881 73.789 38.5386 73.789 38.9694V50.8086C73.789 51.24 74.1388 51.5899 74.5702 51.5899C75.0016 51.5899 75.3515 51.24 75.3515 50.8086V38.9694C75.3515 37.677 74.3001 36.6256 73.0077 36.6256H52.4943L58.909 30.2109C59.8227 29.297 59.8227 27.8102 58.909 26.8964L51.6215 19.6089C51.4274 19.415 51.2091 19.2619 50.9763 19.1484V15.418C50.9763 14.1256 49.9249 13.0742 48.6326 13.0742H6.99414C5.7018 13.0742 4.65039 14.1256 4.65039 15.418V41.0323C4.65039 42.3247 5.7018 43.3761 6.99414 43.3761ZM40.581 47.0586C41.0118 47.0586 41.3623 47.4091 41.3623 47.8398V55.0559C41.3623 55.4867 41.0118 55.8372 40.581 55.8372H31.6001C31.1687 55.8372 30.8188 56.187 30.8188 56.6184V58.7355C30.8188 59.2198 30.4498 59.4103 30.3365 59.4572C30.2234 59.5041 29.8276 59.6303 29.4851 59.2878L22.1976 52.0003C21.8929 51.6958 21.8929 51.2 22.1976 50.8955L29.4851 43.608C29.8274 43.2655 30.2234 43.3919 30.3365 43.4386C30.4496 43.4855 30.8188 43.6761 30.8188 44.1603V46.2773C30.8188 46.7088 31.1687 47.0586 31.6001 47.0586H40.581ZM57.8041 28.0013C58.1088 28.3058 58.1088 28.8016 57.8041 29.1061L50.5166 36.3936C50.1743 36.7361 49.7785 36.6098 49.6652 36.563C49.5521 36.5161 49.1829 36.3255 49.1829 35.8413V33.7242C49.1829 33.2928 48.833 32.943 48.4016 32.943H39.4207C38.9899 32.943 38.6395 32.5925 38.6395 32.1617V24.9456C38.6395 24.5148 38.9899 24.1644 39.4207 24.1644H48.4016C48.833 24.1644 49.1829 23.8145 49.1829 23.3831V21.2661C49.1829 20.7817 49.552 20.5913 49.6652 20.5444C49.7784 20.4975 50.1741 20.3713 50.5166 20.7138L57.8041 28.0013Z" fill="#076007"/>
</g>
<defs>
<linearGradient id="paint0_linear" x1="0.538778" y1="17.5249" x2="77.2357" y2="45.7321" gradientUnits="userSpaceOnUse">
<stop stop-color="#4CAF50" stop-opacity="0.5"/>
<stop offset="1" stop-color="#FFA500"/>
</linearGradient>
<clipPath id="clip0">
<rect width="80" height="80" fill="white"/>
</clipPath>
</defs>
</svg>
