<svg width="80" height="80" viewBox="0 0 80 80" fill="none" xmlns="http://www.w3.org/2000/svg">
<g clip-path="url(#clip0)">
<path d="M72.0582 4.27368C62.0962 -1.66179 49.2054 -1.33226 39.4218 4.74884C33.9249 8.1654 29.6759 13.0931 24.8575 17.3351C20.6353 21.0521 15.7254 23.7035 11.3648 27.2107C-4.44927 39.9299 -2.94036 74.2359 19.3276 78.7927C28.9803 80.7681 42.1729 81.4015 47.8462 71.9737C53.2556 62.9845 55.07 53.7888 65.6393 49.014C69.3226 47.3499 75.4792 47.4338 77.9743 43.7874C81.1231 39.1857 77.216 34.4057 75.1318 30.3957C72.4459 25.2279 71.8826 20.1329 73.7726 14.5895C75.3817 9.86899 76.5146 7.74853 72.0582 4.27368Z" fill="url(#paint0_linear)" fill-opacity="0.5"/>
<path opacity="0.1" d="M75.6367 45.342L68.3492 38.0545C67.3664 37.0717 65.6875 37.765 65.6823 39.153V35.3105C65.6823 34.4475 64.9828 33.748 64.1198 33.748H60.3961V13.7578C60.3961 11.1688 58.2977 9.07031 55.7086 9.07031H24.293C21.7039 9.07031 19.6055 11.1688 19.6055 13.7578V72.8078C19.6055 75.3969 21.7039 77.4953 24.293 77.4953H55.7086C58.2977 77.4953 60.3961 75.3969 60.3961 72.8078V51.617H65.682V53.7342C65.682 55.1264 67.3648 55.8233 68.3492 54.8389L75.6367 47.5514C76.2477 46.942 76.2477 45.9514 75.6367 45.342Z" fill="#076007"/>
<path d="M60.3961 10.0078V69.0578C60.3961 71.6469 58.2977 73.7453 55.7086 73.7453H24.293C21.7039 73.7453 19.6055 71.6469 19.6055 69.0578V10.0078C19.6055 7.41875 21.7039 5.32031 24.293 5.32031H55.7086C58.2977 5.32031 60.3961 7.41875 60.3961 10.0078Z" fill="white"/>
<path d="M53.125 36.5898V38.4648C53.125 39.3273 52.425 40.0273 51.5625 40.0273H28.4375C27.575 40.0273 26.875 39.3273 26.875 38.4648V36.5898C26.875 35.7273 27.575 35.0273 28.4375 35.0273H51.5625C52.425 35.0273 53.125 35.7275 53.125 36.5898Z" fill="#1A8917"/>
<path d="M48.6864 8.90453L49.8047 5.32031H30.1953L31.3136 8.90453C31.5172 9.55719 32.1216 10.0017 32.8052 10.0017H47.1947C47.8784 10.0017 48.4828 9.55719 48.6864 8.90453Z" fill="#1A8917"/>
<path d="M75.6352 43.8015L68.3477 51.089C67.3633 52.0734 65.6805 51.3765 65.6805 49.9843V47.8671H56.6992C55.8367 47.8671 55.1367 47.1671 55.1367 46.3046V39.089C55.1367 38.2265 55.8367 37.5265 56.6992 37.5265H65.6805V35.4093C65.6805 34.0171 67.3633 33.3203 68.3477 34.3046L75.6352 41.5921C76.2461 42.2015 76.2461 43.1921 75.6352 43.8015Z" fill="white"/>
<path d="M45.1843 36.2746L52.4718 43.5621C53.4562 44.5464 55.1391 43.8493 55.1391 42.4572V40.3402H64.1202C64.9832 40.3402 65.6827 39.6407 65.6827 38.7777V31.5616C65.6827 30.6986 64.9832 29.9991 64.1202 29.9991H55.1391V27.8821C55.1391 26.49 53.4562 25.7928 52.4718 26.7772L45.1843 34.0647C44.574 34.675 44.574 35.6644 45.1843 36.2746Z" fill="white"/>
<path d="M39.9992 30.8031C44.6112 30.8031 48.35 27.0643 48.35 22.4523C48.35 17.8403 44.6112 14.1016 39.9992 14.1016C35.3872 14.1016 31.6484 17.8403 31.6484 22.4523C31.6484 27.0643 35.3872 30.8031 39.9992 30.8031Z" fill="#1A8917"/>
<path d="M42.5939 21.545C42.5939 20.1136 41.4294 18.9492 39.9981 18.9492C38.5667 18.9492 37.4023 20.1137 37.4023 21.545C37.4023 22.2509 37.6864 22.8911 38.1453 23.3595C37.6866 23.828 37.4023 24.4681 37.4023 25.1741C37.4023 25.6055 37.7522 25.9553 38.1836 25.9553C38.615 25.9553 38.9648 25.6055 38.9648 25.1741C38.9648 24.6044 39.4284 24.1408 39.9981 24.1408C40.568 24.1408 41.0314 24.6044 41.0314 25.1741C41.0314 25.6055 41.3813 25.9553 41.8127 25.9553C42.2441 25.9553 42.5939 25.6055 42.5939 25.1741C42.5939 24.4681 42.3098 23.828 41.8509 23.3595C42.3098 22.8913 42.5939 22.2509 42.5939 21.545ZM39.9981 20.5117C40.568 20.5117 41.0314 20.9753 41.0314 21.545C41.0314 22.1147 40.5678 22.5783 39.9981 22.5783C39.4284 22.5783 38.9648 22.1147 38.9648 21.545C38.9648 20.9753 39.4284 20.5117 39.9981 20.5117Z" fill="#076007"/>
<path d="M48.3234 44.8047H31.6797C31.2481 44.8047 30.8984 44.4548 30.8984 44.0234C30.8984 43.592 31.2481 43.2422 31.6797 43.2422H48.3234C48.755 43.2422 49.1047 43.592 49.1047 44.0234C49.1047 44.455 48.7548 44.8047 48.3234 44.8047Z" fill="#076007"/>
<path d="M48.3234 48.2305H31.6797C31.2481 48.2305 30.8984 47.8806 30.8984 47.4492C30.8984 47.0178 31.2481 46.668 31.6797 46.668H48.3234C48.755 46.668 49.1047 47.0178 49.1047 47.4492C49.1047 47.8806 48.7548 48.2305 48.3234 48.2305Z" fill="#076007"/>
<path d="M48.3234 68.4648H31.6797C31.2481 68.4648 30.8984 68.115 30.8984 67.6836C30.8984 67.2522 31.2481 66.9023 31.6797 66.9023H48.3234C48.755 66.9023 49.1047 67.2522 49.1047 67.6836C49.1047 68.115 48.7548 68.4648 48.3234 68.4648Z" fill="#076007"/>
<path d="M29.3108 62.2426C31.8641 62.2426 33.9341 60.1727 33.9341 57.6194C33.9341 55.066 31.8641 52.9961 29.3108 52.9961C26.7574 52.9961 24.6875 55.066 24.6875 57.6194C24.6875 60.1727 26.7574 62.2426 29.3108 62.2426Z" fill="#1A8917"/>
<path d="M28.1525 60.0924C27.9525 60.0924 27.7526 60.0161 27.6 59.8636L27.0531 59.3167C26.7479 59.0116 26.7479 58.5169 27.0531 58.2119C27.3565 57.9088 27.847 57.9067 28.1525 58.2064L29.9131 56.4456C29.639 56.1389 29.6493 55.6677 29.9437 55.3733C30.2489 55.0683 30.7434 55.0683 31.0486 55.3733L31.5695 55.8941C31.8746 56.1992 31.8746 56.6939 31.5695 56.9989L28.7048 59.8634C28.5525 60.0161 28.3525 60.0924 28.1525 60.0924Z" fill="#076007"/>
<path d="M52.3811 62.2426C54.9345 62.2426 57.0044 60.1727 57.0044 57.6194C57.0044 55.066 54.9345 52.9961 52.3811 52.9961C49.8277 52.9961 47.7578 55.066 47.7578 57.6194C47.7578 60.1727 49.8277 62.2426 52.3811 62.2426Z" fill="#1A8917"/>
<path d="M51.1967 60.0924C50.9969 60.0924 50.7969 60.0161 50.6444 59.8636L50.1234 59.3428C49.9769 59.1963 49.8945 58.9975 49.8945 58.7903C49.8945 58.5831 49.9767 58.3844 50.1234 58.2378L52.9881 55.3733C53.293 55.0683 53.788 55.0683 54.0928 55.3733L54.6397 55.9202C54.9448 56.2253 54.9448 56.72 54.6397 57.025C54.3367 57.3281 53.8459 57.3303 53.5405 57.0305L51.7797 58.7911C52.0538 59.0978 52.0437 59.5691 51.7492 59.8634C51.5967 60.0161 51.3966 60.0924 51.1967 60.0924Z" fill="#076007"/>
<path d="M36.9802 58.4994C37.4654 58.4994 37.8587 58.106 37.8587 57.6208C37.8587 57.1355 37.4654 56.7422 36.9802 56.7422C36.4949 56.7422 36.1016 57.1355 36.1016 57.6208C36.1016 58.106 36.4949 58.4994 36.9802 58.4994Z" fill="#076007"/>
<path d="M40.8473 58.4994C41.3326 58.4994 41.7259 58.106 41.7259 57.6208C41.7259 57.1355 41.3326 56.7422 40.8473 56.7422C40.3621 56.7422 39.9688 57.1355 39.9688 57.6208C39.9688 58.106 40.3621 58.4994 40.8473 58.4994Z" fill="#076007"/>
<path d="M44.7145 58.4994C45.1998 58.4994 45.5931 58.106 45.5931 57.6208C45.5931 57.1355 45.1998 56.7422 44.7145 56.7422C44.2293 56.7422 43.8359 57.1355 43.8359 57.6208C43.8359 58.106 44.2293 58.4994 44.7145 58.4994Z" fill="#076007"/>
<path d="M28.0977 9.86406H25.1289C24.6975 9.86406 24.3477 9.51422 24.3477 9.08281V8.30469C24.3477 7.87328 24.6975 7.52344 25.1289 7.52344H28.0977C28.5291 7.52344 28.8789 7.87328 28.8789 8.30469V9.08281C28.8789 9.51422 28.5292 9.86406 28.0977 9.86406Z" fill="#076007"/>
<path d="M52.4844 9.75C52.053 9.75 51.7031 9.40016 51.7031 8.96875V8.42188C51.7031 7.99047 52.053 7.64062 52.4844 7.64062C52.9158 7.64062 53.2656 7.99047 53.2656 8.42188V8.96875C53.2656 9.40031 52.9158 9.75 52.4844 9.75Z" fill="#076007"/>
<path d="M54.8672 9.75C54.4358 9.75 54.0859 9.40016 54.0859 8.96875V8.42188C54.0859 7.99047 54.4358 7.64062 54.8672 7.64062C55.2986 7.64062 55.6484 7.99047 55.6484 8.42188V8.96875C55.6484 9.40031 55.2986 9.75 54.8672 9.75Z" fill="#076007"/>
<path d="M11.8751 17.6053C11.6751 17.6053 11.4753 17.5291 11.3226 17.3766L9.60387 15.6578C9.29871 15.3527 9.29871 14.858 9.60387 14.553L11.3226 12.8342C11.6278 12.5292 12.1223 12.5292 12.4275 12.8342L14.1462 14.553C14.4514 14.8581 14.4514 15.3528 14.1462 15.6578L12.4275 17.3766C12.275 17.5291 12.0751 17.6053 11.8751 17.6053ZM11.2612 15.1053L11.8751 15.7192L12.489 15.1053L11.8751 14.4916L11.2612 15.1053Z" fill="#1A8917"/>
<path d="M70.9375 63.3944C70.7376 63.3944 70.5375 63.3181 70.3851 63.1656L68.6664 61.4469C68.3612 61.1417 68.3612 60.647 68.6664 60.342L70.3851 58.6233C70.69 58.3183 71.185 58.3183 71.4898 58.6233L73.2085 60.342C73.5137 60.6472 73.5137 61.1419 73.2085 61.4469L71.4898 63.1656C71.3375 63.3181 71.1373 63.3944 70.9375 63.3944ZM70.3236 60.8944L70.9375 61.5083L71.5514 60.8944L70.9375 60.2806L70.3236 60.8944Z" fill="#1A8917"/>
<path d="M67.6836 12.5C67.252 12.5 66.9023 12.1502 66.9023 11.7188C66.9023 11.2017 66.4819 10.7813 65.9648 10.7813C65.5333 10.7813 65.1836 10.4314 65.1836 10C65.1836 9.56859 65.5333 9.21875 65.9648 9.21875C66.4819 9.21875 66.9023 8.79828 66.9023 8.28125C66.9023 7.84984 67.252 7.5 67.6836 7.5C68.1152 7.5 68.4648 7.84984 68.4648 8.28125C68.4648 8.79828 68.8853 9.21875 69.4023 9.21875C69.8339 9.21875 70.1836 9.56859 70.1836 10C70.1836 10.4314 69.8339 10.7813 69.4023 10.7813C68.8853 10.7813 68.4648 11.2017 68.4648 11.7188C68.4648 12.1502 68.115 12.5 67.6836 12.5Z" fill="#1A8917"/>
<path d="M7.65625 25.4025C7.22484 25.4025 6.875 25.0527 6.875 24.6213C6.875 24.1042 6.45453 23.6838 5.9375 23.6838C5.50609 23.6838 5.15625 23.3339 5.15625 22.9025C5.15625 22.4711 5.50609 22.1213 5.9375 22.1213C6.45453 22.1213 6.875 21.7006 6.875 21.1836C6.875 20.7522 7.22484 20.4023 7.65625 20.4023C8.08766 20.4023 8.4375 20.7522 8.4375 21.1836C8.4375 21.7006 8.85797 22.1213 9.375 22.1213C9.80641 22.1213 10.1562 22.4711 10.1562 22.9025C10.1562 23.3339 9.80641 23.6838 9.375 23.6838C8.85797 23.6838 8.4375 24.1042 8.4375 24.6213C8.4375 25.0527 8.08766 25.4025 7.65625 25.4025Z" fill="#1A8917"/>
<path d="M13.5938 64.7031C13.1623 64.7031 12.8125 64.3533 12.8125 63.9219C12.8125 63.4048 12.392 62.9844 11.875 62.9844C11.4436 62.9844 11.0938 62.6345 11.0938 62.2031C11.0938 61.7717 11.4436 61.4219 11.875 61.4219C12.392 61.4219 12.8125 61.0014 12.8125 60.4844C12.8125 60.053 13.1623 59.7031 13.5938 59.7031C14.0252 59.7031 14.375 60.053 14.375 60.4844C14.375 61.0014 14.7955 61.4219 15.3125 61.4219C15.7439 61.4219 16.0938 61.7717 16.0938 62.2031C16.0938 62.6345 15.7439 62.9844 15.3125 62.9844C14.7955 62.9844 14.375 63.4048 14.375 63.9219C14.375 64.3533 14.0252 64.7031 13.5938 64.7031Z" fill="#1A8917"/>
<path d="M24.293 74.5267H55.7091C58.7245 74.5267 61.1778 72.0734 61.1778 69.058V53.1266C61.1778 52.6952 60.8281 52.3453 60.3966 52.3453C59.965 52.3453 59.6153 52.6952 59.6153 53.1266V69.058C59.6153 71.2119 57.863 72.9642 55.7091 72.9642H24.293C22.1391 72.9642 20.3867 71.2119 20.3867 69.058V10.0078C20.3867 7.85391 22.1391 6.10156 24.293 6.10156H55.7091C57.863 6.10156 59.6153 7.85391 59.6153 10.0078V24.6236C59.6153 25.055 59.965 25.4048 60.3966 25.4048C60.8281 25.4048 61.1778 25.055 61.1778 24.6236V10.0078C61.1778 6.99234 58.7245 4.53906 55.7091 4.53906H24.293C21.2775 4.53906 18.8242 6.99234 18.8242 10.0078V69.0581C18.8242 72.0734 21.2773 74.5267 24.293 74.5267Z" fill="#076007"/>
<path d="M68.9015 33.7521C68.2479 33.0983 67.3229 32.8935 66.4629 33.201V31.5605C66.4629 30.2682 65.4115 29.2168 64.1192 29.2168H55.9193V27.881C55.9193 26.915 55.365 26.0854 54.4725 25.7157C53.5801 25.346 52.6014 25.5405 51.9182 26.2236L44.6307 33.5111C43.7168 34.4251 43.7168 35.9119 44.6307 36.8257L51.9182 44.1132C52.3723 44.5674 52.9572 44.8057 53.5606 44.8057C53.8259 44.8057 54.0942 44.7566 54.357 44.6627V46.3048C54.357 47.5971 55.4082 48.6485 56.7007 48.6485H64.9004V49.9843C64.9004 50.9502 65.4548 51.7799 66.3473 52.1496C66.6464 52.2735 66.9551 52.334 67.259 52.334C67.8623 52.334 68.4473 52.0957 68.9015 51.6415L76.1892 44.354C77.1031 43.4401 77.1031 41.9532 76.1892 41.0393L68.9015 33.7521ZM54.3568 42.456C54.3568 42.9404 53.9878 43.131 53.8745 43.1779C53.7614 43.2246 53.3653 43.3508 53.0231 43.0085L45.7356 35.721C45.4311 35.4165 45.4311 34.9207 45.7356 34.6161L53.0231 27.3286C53.2042 27.1475 53.4003 27.0975 53.5615 27.0975C53.7051 27.0975 53.8212 27.1372 53.8745 27.1594C53.9878 27.2063 54.3568 27.3968 54.3568 27.8811V29.9982C54.3568 30.4296 54.7065 30.7794 55.1381 30.7794H64.1192C64.55 30.7794 64.9004 31.1299 64.9004 31.5607V38.7768C64.9004 39.2076 64.55 39.558 64.1192 39.558H55.1381C54.7065 39.558 54.3568 39.9079 54.3568 40.3393V42.456ZM75.0843 43.2493L67.7967 50.5368C67.4542 50.8793 67.0584 50.7532 66.9453 50.7062C66.832 50.6593 66.4629 50.4688 66.4629 49.9844V47.8674C66.4629 47.436 66.1132 47.0862 65.6817 47.0862H56.7007C56.27 47.0862 55.9195 46.7357 55.9195 46.3049V41.6741H55.9193V41.1202H64.1192C65.4115 41.1202 66.4629 40.0688 66.4629 38.7765V36.3047C66.4629 36.3047 66.4631 36.3047 66.4631 36.3049V35.4093C66.4631 34.9249 66.8322 34.7344 66.9454 34.6876C67.0586 34.6407 67.4545 34.5146 67.7968 34.8569L75.0845 42.1444C75.3889 42.4491 75.3889 42.9446 75.0843 43.2493Z" fill="#076007"/>
</g>
<defs>
<linearGradient id="paint0_linear" x1="-0.534831" y1="17.5249" x2="77.7338" y2="47.093" gradientUnits="userSpaceOnUse">
<stop stop-color="#4CAF50" stop-opacity="0.5"/>
<stop offset="1" stop-color="#FFA500"/>
</linearGradient>
<clipPath id="clip0">
<rect width="80" height="80" fill="white"/>
</clipPath>
</defs>
</svg>
