<svg width="80" height="80" viewBox="0 0 80 80" fill="none" xmlns="http://www.w3.org/2000/svg">
<g clip-path="url(#clip0)">
<path d="M73.6681 22.7831C63.4467 14.9248 53.5327 21.329 42.4744 19.0648C31.3361 16.784 26.8986 9.18962 14.2125 12.6951C2.97469 15.8004 -3.84406 28.2501 2.33375 38.6731C4.09422 41.6432 7.09328 43.884 8.3189 47.2073C10.2959 52.5684 7.28656 56.6843 7.87359 61.9529C10.313 83.8437 43.7445 75.3645 56.0459 68.5537C75.3381 57.8724 88.3894 34.101 73.6681 22.7831Z" fill="url(#paint0_linear)" fill-opacity="0.5"/>
<path opacity="0.11" d="M67.4997 33.4475C67.4997 32.5275 66.7725 31.7816 65.8758 31.7816H64.6872V27.0714C64.6872 26.5677 64.6375 26.0756 64.5461 25.5983C64.1171 23.362 62.6866 21.3859 60.7 20.2723C61.3971 19.1936 61.8353 17.9356 61.9216 16.5895C62.2219 11.8997 58.3547 8.03234 53.6649 8.33281C49.8675 8.57609 46.7649 11.6098 46.4428 15.4013C46.3247 16.7922 46.5752 18.1138 47.1057 19.2814H45.0867H17.7419C16.0232 19.2814 14.6107 20.5872 14.441 22.2611C14.4389 22.2613 14.4427 22.2609 14.4407 22.2611C14.4333 22.425 14.4236 46.8392 14.4236 46.8392C11.8919 48.6509 10.2203 51.5873 10.1452 54.9197C10.0152 60.6802 14.7608 65.3753 20.5227 65.3753H25.4064C29.6482 65.3753 33.2872 62.8623 34.84 59.2816H36.8436H56.8874C59.0794 59.2816 61.0585 58.3997 62.475 56.9817C63.8433 55.613 64.6874 53.7447 64.6874 51.6833V46.6253H65.8388C66.7561 46.6253 67.4999 45.8816 67.4999 44.9642L67.4997 33.4475C67.4997 33.4477 67.4997 33.4478 67.4997 33.4475Z" fill="#076007"/>
<path d="M68.2812 23.4769V47.7312C68.2812 52.0391 64.7891 55.5312 60.4812 55.5312H28.4797C26.6442 55.5312 25.1562 54.0433 25.1562 52.2078V19.0109C25.1562 17.1755 26.6442 15.6875 28.4797 15.6875H60.4755C62.1833 15.6875 63.763 16.2352 65.047 17.1633C65.3114 17.3536 65.5647 17.5595 65.8025 17.7827C65.9448 17.9169 66.0825 18.0556 66.2153 18.1992C67.4977 19.5877 68.2812 21.4394 68.2812 23.4769Z" fill="white"/>
<path d="M21.1348 55.5312H53.1367C57.445 55.5312 60.9375 52.0388 60.9375 47.7305V23.4883C60.9375 19.18 57.445 15.6875 53.1367 15.6875H21.1348C19.3 15.6875 17.8125 17.175 17.8125 19.0098V52.2089C17.8125 54.0438 19.3 55.5312 21.1348 55.5312Z" fill="white"/>
<path d="M69.4336 43.0312H51.5048C50.5875 43.0312 49.8438 42.2875 49.8438 41.3702V29.8488C49.8438 28.9313 50.5875 28.1875 51.505 28.1875H69.4325C70.35 28.1875 71.0938 28.9313 71.0938 29.8488V41.3653C71.0936 42.2855 70.3503 43.0312 69.4336 43.0312Z" fill="white"/>
<path d="M63.3361 43.0312H51.505C50.5875 43.0312 49.8438 42.2875 49.8438 41.37V29.8488C49.8438 28.9313 50.5875 28.1875 51.505 28.1875H63.3388C64.2563 28.1875 65 28.9313 65 29.8488V41.37C65 42.2875 64.2563 43.0312 63.3388 43.0312H63.3361Z" fill="white"/>
<path d="M29.0148 61.9375C34.8219 61.9375 39.4992 57.1012 39.2389 51.2367C38.995 45.7452 34.3628 41.4688 28.8659 41.4688H23.9062V61.9375H29.0148Z" fill="#1A8917"/>
<path d="M23.8435 61.8941C29.4968 61.8941 34.0796 57.3112 34.0796 51.658C34.0796 46.0047 29.4968 41.4219 23.8435 41.4219C18.1903 41.4219 13.6074 46.0047 13.6074 51.658C13.6074 57.3112 18.1903 61.8941 23.8435 61.8941Z" fill="#1A8917"/>
<path d="M65.4643 13.0355C65.7651 8.33862 61.8921 4.4655 57.1953 4.76643C53.3921 5.01003 50.2849 8.04831 49.9624 11.8455C49.806 13.6874 50.294 15.4085 51.2237 16.8113L50.1321 19.2903C49.9067 19.8024 50.4284 20.3239 50.9404 20.0986L53.4195 19.0071C54.8223 19.9367 56.5434 20.4247 58.3853 20.2683C62.1826 19.9458 65.2207 16.8386 65.4643 13.0355Z" fill="#1A8917"/>
<path d="M54.7367 13.3055C55.2191 13.3055 55.6101 12.9144 55.6101 12.432C55.6101 11.9496 55.2191 11.5586 54.7367 11.5586C54.2543 11.5586 53.8633 11.9496 53.8633 12.432C53.8633 12.9144 54.2543 13.3055 54.7367 13.3055Z" fill="white"/>
<path d="M57.848 13.3055C58.3304 13.3055 58.7215 12.9144 58.7215 12.432C58.7215 11.9496 58.3304 11.5586 57.848 11.5586C57.3657 11.5586 56.9746 11.9496 56.9746 12.432C56.9746 12.9144 57.3657 13.3055 57.848 13.3055Z" fill="white"/>
<path d="M60.9594 13.3055C61.4418 13.3055 61.8328 12.9144 61.8328 12.432C61.8328 11.9496 61.4418 11.5586 60.9594 11.5586C60.477 11.5586 60.0859 11.9496 60.0859 12.432C60.0859 12.9144 60.477 13.3055 60.9594 13.3055Z" fill="white"/>
<path d="M37.8844 29.4375H23.9906C23.4262 29.4375 22.9688 28.98 22.9688 28.4156V25.1469C22.9688 24.5825 23.4262 24.125 23.9906 24.125H37.8844C38.4488 24.125 38.9062 24.5825 38.9062 25.1469V28.4156C38.9062 28.98 38.4488 29.4375 37.8844 29.4375Z" fill="#1A8917"/>
<path d="M31.0094 34.5938H23.9906C23.4262 34.5938 22.9688 34.1363 22.9688 33.5719V32.8031C22.9688 32.2387 23.4262 31.7812 23.9906 31.7812H31.0094C31.5738 31.7812 32.0312 32.2387 32.0312 32.8031V33.5719C32.0312 34.1363 31.5738 34.5938 31.0094 34.5938Z" fill="#1A8917"/>
<path d="M32.2194 22.0938H24.2499C23.6483 22.0938 23.1213 21.6303 23.1058 21.0289C23.0899 20.4117 23.5855 19.9062 24.1993 19.9062H32.1688C32.7704 19.9062 33.2974 20.3697 33.3129 20.9711C33.3287 21.5883 32.833 22.0938 32.2194 22.0938Z" fill="#1A8917"/>
<path d="M56.4053 32.5625H53.9215C53.4683 32.5625 53.0601 32.2316 53.0209 31.78C52.9767 31.2708 53.377 30.8438 53.877 30.8438H56.3608C56.814 30.8438 57.2222 31.1747 57.2614 31.6264C57.3055 32.1356 56.9053 32.5625 56.4053 32.5625Z" fill="#076007"/>
<path d="M26.296 55.22H21.8538C22.0718 54.8559 22.1882 54.4386 22.1882 54.0031V52.4075H24.0113C24.1319 52.4075 24.2499 52.3594 24.3294 52.2687C24.9107 51.6072 24.4516 50.845 23.8149 50.845H22.1882V48.8806C22.1882 48.6609 22.2821 48.4502 22.4471 48.3052C23.6779 47.2236 25.1105 48.1722 24.9802 49.3861C24.9671 49.5089 25.006 49.6344 25.0963 49.7186C25.7649 50.3423 26.5511 49.8789 26.5511 49.2322C26.5511 46.8195 23.6526 45.0716 21.1551 47.2869C20.8154 47.5883 20.6258 48.0252 20.6258 48.4792V50.8448H19.954C19.8333 50.8448 19.7154 50.893 19.6358 50.9836C19.0546 51.6451 19.5136 52.4073 20.1504 52.4073H20.6257V54.1569C20.6257 54.2964 20.559 54.4242 20.4538 54.5159C19.8146 55.0734 19.8327 56.1303 20.7115 56.67C20.8363 56.7467 20.9824 56.7823 21.1288 56.7823H26.4601C26.6121 56.7823 26.7571 56.7131 26.8518 56.5942C27.3686 55.9451 26.9169 55.22 26.296 55.22Z" fill="white"/>
<path d="M69.4273 27.4082H69.0634V23.4543C69.0634 20.6091 67.6867 18.0099 65.3589 16.4119C65.893 15.391 66.2269 14.2527 66.3037 13.0505C66.4609 10.598 65.558 8.19849 63.8265 6.46724C62.0951 4.73599 59.6955 3.8338 57.2433 3.99005C53.0766 4.25692 49.6683 7.59302 49.3155 11.7502C49.2233 12.8347 49.3326 13.8988 49.6314 14.9085H20.7086C18.7644 14.9082 17.1884 16.4841 17.1884 18.4283V38.8824C17.1884 38.9186 17.2011 38.9549 17.2244 38.9824C17.8381 39.7047 18.5947 39.2319 18.5947 38.5633V19.0118C18.5947 17.6083 19.7323 16.4707 21.1358 16.4707H50.0886C50.1531 16.5924 50.2198 16.7133 50.2906 16.8324L49.3833 18.8911C49.1709 19.373 49.2164 19.944 49.5442 20.356C49.9498 20.8657 50.6234 21.0265 51.2047 20.7707L53.3069 19.846C54.6298 20.6305 56.1134 21.0358 57.6545 21.0358C57.9042 21.0358 58.1556 21.0252 58.4078 21.0038C58.8228 20.9686 59.2292 20.9019 59.6256 20.8085C59.978 21.6569 60.157 22.5569 60.157 23.4902V27.4082H51.5058C50.1569 27.4082 49.0633 28.5018 49.0633 29.8507V41.3721C49.0633 42.721 50.1567 43.8144 51.5056 43.8144H60.1572V48.2265C60.1572 51.9166 57.1656 54.9082 53.4755 54.9082H39.4483C40.148 52.6066 40.1205 49.9919 39.0578 47.3227C37.4562 43.2993 33.525 40.6894 29.1945 40.6894H23.982C18.0325 40.6894 13.0503 45.3535 12.8355 51.2991C12.6094 57.5576 17.635 62.7207 23.8439 62.7207H28.9542C33.2822 62.7207 37.1095 60.1183 38.8887 56.4707H60.4345C65.1667 56.4202 69.0165 52.5704 69.0634 47.8382V47.2643C69.0165 46.8329 68.6667 46.483 68.2353 46.483C67.8039 46.483 67.3447 47.2643 67.3447 47.2643V47.8886C67.3447 51.7654 64.2019 54.9082 60.3251 54.9082H58.1086C60.2903 53.3538 61.7197 50.7877 61.7197 47.8886V43.8144H63.2801H69.4334C70.7823 43.8144 71.8759 42.7208 71.8759 41.3719V29.8572C71.8759 28.5068 70.7775 27.4082 69.4273 27.4082ZM14.3898 51.6599C14.3898 46.4465 18.6312 42.2051 23.8447 42.2051C29.0581 42.2051 33.2995 46.4465 33.2995 51.6599C33.2995 56.8733 29.0581 61.1147 23.8447 61.1147C18.6312 61.1146 14.3898 56.8732 14.3898 51.6599ZM29.5256 61.0958C32.7209 59.1649 34.862 55.658 34.862 51.6599C34.862 47.6618 32.7209 44.1549 29.5255 42.2238C34.4736 42.5205 38.4089 46.6383 38.4089 51.6599C38.4091 56.6811 34.4737 60.7991 29.5256 61.0958ZM58.3205 19.4915C56.7222 19.6276 55.1767 19.2351 53.8522 18.3574C53.7222 18.2713 53.5719 18.2274 53.4206 18.2274C53.3137 18.2274 53.2066 18.2493 53.1058 18.2936L51.0226 19.211L51.94 17.1279C52.0472 16.8844 52.0231 16.6032 51.8762 16.3815C50.9986 15.0571 50.6066 13.5121 50.7422 11.9133C51.0317 8.50333 53.828 5.76677 57.2464 5.54771C59.2608 5.41927 61.2314 6.15974 62.6526 7.58099C64.0739 9.00224 64.8148 10.9727 64.6859 12.9872C64.467 16.4057 61.7305 19.2019 58.3205 19.4915ZM61.1151 20.4127C62.3992 19.8363 63.518 18.9436 64.3742 17.8352C66.2416 19.1502 67.3447 21.2722 67.3447 23.5938V27.5644H61.7197V23.5938C61.7198 22.489 61.5148 21.4222 61.1151 20.4127ZM50.6259 41.3719V29.8505C50.6259 29.3646 51.0198 28.9707 51.5058 28.9707H63.3397C63.8258 28.9707 64.2197 29.3646 64.2197 29.8507V41.3721C64.2197 41.858 63.8258 42.2519 63.3398 42.2519H51.5059C51.0198 42.2519 50.6259 41.858 50.6259 41.3719ZM69.4336 42.2519H65.617C65.7222 41.9776 65.7822 41.6807 65.7822 41.3691V29.8533C65.7822 29.5418 65.7222 29.2449 65.617 28.9705H69.4334C69.9195 28.9705 70.3134 29.3644 70.3134 29.8505V41.3719C70.3134 41.858 69.9195 42.2519 69.4336 42.2519Z" fill="#076007"/>
<path d="M74.3845 14.9063H73.9063V14.428C73.9063 14.0525 73.6548 13.7073 73.2867 13.6334C72.7845 13.5327 72.3438 13.9142 72.3438 14.3984V14.9063H71.8655C71.49 14.9063 71.1448 15.1577 71.0709 15.5258C70.9702 16.028 71.3517 16.4688 71.8359 16.4688H72.3438V16.947C72.3438 17.3225 72.5952 17.6677 72.9633 17.7416C73.4655 17.8424 73.9063 17.4608 73.9063 16.9766V16.4688H74.4141C74.8983 16.4688 75.2798 16.028 75.1791 15.5258C75.1052 15.1577 74.76 14.9063 74.3845 14.9063Z" fill="#1A8917"/>
<path d="M41.4158 67.4063H40.9375V66.928C40.9375 66.5525 40.6861 66.2073 40.318 66.1334C39.8158 66.0327 39.375 66.4142 39.375 66.8984V67.4063H38.8967C38.5213 67.4063 38.1761 67.6577 38.1022 68.0258C38.0014 68.528 38.383 68.9688 38.8672 68.9688H39.375V69.447C39.375 69.8225 39.6264 70.1677 39.9945 70.2416C40.4967 70.3424 40.9375 69.9608 40.9375 69.4766V68.9688H41.4453C41.9295 68.9688 42.3111 68.528 42.2103 68.0258C42.1364 67.6577 41.7913 67.4063 41.4158 67.4063Z" fill="#1A8917"/>
<path d="M12.822 27.0938H12.3438V26.6155C12.3438 26.24 12.0923 25.8948 11.7242 25.8209C11.222 25.7202 10.7813 26.1017 10.7813 26.5859V27.0938H10.303C9.92751 27.0938 9.58235 27.3452 9.50844 27.7133C9.40766 28.2155 9.78922 28.6563 10.2734 28.6563H10.7813V29.1345C10.7813 29.51 11.0327 29.8552 11.4008 29.9291C11.903 30.0298 12.3438 29.6483 12.3438 29.1641V28.6563H12.8516C13.3358 28.6563 13.7173 28.2155 13.6166 27.7133C13.5427 27.3452 13.1975 27.0938 12.822 27.0938Z" fill="#1A8917"/>
<path d="M46.0005 64.6455C44.7423 64.6455 43.7188 63.6219 43.7188 62.3638C43.7188 61.1056 44.7423 60.082 46.0005 60.082C47.2586 60.082 48.2822 61.1056 48.2822 62.3638C48.2822 63.6219 47.2586 64.6455 46.0005 64.6455ZM46.0005 61.6445C45.6039 61.6445 45.2812 61.9672 45.2812 62.3638C45.2812 62.7603 45.6039 63.083 46.0005 63.083C46.397 63.083 46.7197 62.7603 46.7197 62.3638C46.7197 61.9672 46.3972 61.6445 46.0005 61.6445Z" fill="#1A8917"/>
<path d="M42.9067 9.02828C41.6486 9.02828 40.625 8.00469 40.625 6.74656C40.625 5.48844 41.6486 4.46484 42.9067 4.46484C44.1648 4.46484 45.1884 5.48844 45.1884 6.74656C45.1884 8.00469 44.1648 9.02828 42.9067 9.02828ZM42.9067 6.02734C42.5102 6.02734 42.1875 6.34984 42.1875 6.74656C42.1875 7.14328 42.5102 7.46578 42.9067 7.46578C43.3033 7.46578 43.6259 7.14313 43.6259 6.74656C43.6259 6.35 43.3033 6.02734 42.9067 6.02734Z" fill="#1A8917"/>
</g>
<defs>
<linearGradient id="paint0_linear" x1="-1.40828" y1="25.8582" x2="72.8155" y2="61.5282" gradientUnits="userSpaceOnUse">
<stop stop-color="#4CAF50" stop-opacity="0.5"/>
<stop offset="1" stop-color="#FFA500"/>
</linearGradient>
<clipPath id="clip0">
<rect width="80" height="80" fill="white"/>
</clipPath>
</defs>
</svg>
