<svg width="80" height="80" viewBox="0 0 80 80" fill="none" xmlns="http://www.w3.org/2000/svg">
<g clip-path="url(#clip0)">
<path d="M52.2062 0.0663773C37.2347 1.41825 35.7858 30.1334 29.3287 44.8456C26.1291 52.1359 18.5831 59.6572 19.9134 68.249C21.4142 77.942 31.3036 80.7607 38.9264 79.8334C57.7894 77.5389 65.9419 57.7939 67.1759 39.0833C67.9367 27.5475 70.3478 -1.57175 52.2062 0.0663773Z" fill="url(#paint0_linear)" fill-opacity="0.5"/>
<path opacity="0.11" d="M39.5898 25.1728V22.8125C39.5898 21.9495 38.8903 21.25 38.0273 21.25H37.4023V15.9375H39.7461C40.6091 15.9375 41.3086 15.238 41.3086 14.375V10.625C41.3086 9.76203 40.6091 9.0625 39.7461 9.0625H29.4336C28.5706 9.0625 27.8711 9.76203 27.8711 10.625V14.375C27.8711 15.238 28.5706 15.9375 29.4336 15.9375H31.9336V21.25H31.333C31.333 21.25 29.7705 21.917 29.7461 22.78V25.1728C18.3544 27.4311 9.74609 37.498 9.74609 49.5769C9.74609 54.8925 11.4142 59.818 14.2541 63.8605C12.4567 65.2478 11.2978 67.4219 11.2978 69.868C11.2978 74.0578 14.6944 77.4542 18.8841 77.5H22.6708C25.4017 77.4542 27.7945 76.0106 29.1306 73.8456C30.8983 74.2441 32.7369 74.4556 34.625 74.4556C48.3653 74.4556 59.5039 63.317 59.5039 49.5767C59.5041 37.4981 50.8958 27.4311 39.4797 25.1728H39.5898Z" fill="#076007"/>
<path d="M34.7461 11.875H40.2148V20H34.7461V11.875Z" fill="white"/>
<path d="M42.2461 24.2188V19.5312C42.2461 18.6683 41.5466 17.9688 40.6836 17.9688H34.1211C33.2581 17.9688 32.5586 18.6683 32.5586 19.5312V24.2188H42.2461Z" fill="#1A8917"/>
<path d="M62.3164 46.2961C62.3164 60.0367 51.1789 71.1758 37.4383 71.1758C23.6977 71.1758 12.5586 60.0367 12.5586 46.2961C12.5586 32.5555 23.6977 21.418 37.4383 21.418C42.3352 21.418 46.9023 22.8336 50.7523 25.2758C54.968 27.9523 58.3227 31.8602 60.3102 36.4945C61.6023 39.5023 62.3164 42.8164 62.3164 46.2961Z" fill="white"/>
<path d="M56.2488 46.2953C56.2488 56.6844 47.827 65.1078 37.4379 65.1078C27.0488 65.1078 18.627 56.6844 18.627 46.2953C18.627 35.9063 27.0488 27.4844 37.4379 27.4844C40.6754 27.4844 43.7207 28.3031 46.3816 29.7422C50.4754 31.9594 53.6551 35.6516 55.2051 40.1062C55.8816 42.0437 56.2488 44.1266 56.2488 46.2953Z" fill="white"/>
<path d="M42.5586 12.6562H32.2461C31.3831 12.6562 30.6836 11.9567 30.6836 11.0937V7.34375C30.6836 6.48078 31.3831 5.78125 32.2461 5.78125H42.5586C43.4216 5.78125 44.1211 6.48078 44.1211 7.34375V11.0937C44.1211 11.9567 43.4216 12.6562 42.5586 12.6562Z" fill="#1A8917"/>
<path d="M22.1423 47.2142C22.6512 47.2142 23.0638 46.8016 23.0638 46.2927C23.0638 45.7837 22.6512 45.3711 22.1423 45.3711C21.6333 45.3711 21.2207 45.7837 21.2207 46.2927C21.2207 46.8016 21.6333 47.2142 22.1423 47.2142Z" fill="#076007"/>
<path d="M52.7321 45.3711C53.241 45.3711 53.6537 45.7837 53.6537 46.2927C53.6537 46.8016 53.241 47.2142 52.7321 47.2142C52.2232 47.2142 51.8105 46.8016 51.8105 46.2927C51.8105 45.7836 52.2232 45.3711 52.7321 45.3711Z" fill="#076007"/>
<path d="M37.4372 30.0781C37.9461 30.0781 38.3587 30.4908 38.3587 30.9997C38.3587 31.5086 37.9461 31.9212 37.4372 31.9212C36.9283 31.9212 36.5156 31.5086 36.5156 30.9997C36.5156 30.4906 36.9283 30.0781 37.4372 30.0781Z" fill="#076007"/>
<path d="M37.4372 60.668C37.9461 60.668 38.3587 61.0806 38.3587 61.5895C38.3587 62.0984 37.9461 62.5111 37.4372 62.5111C36.9283 62.5111 36.5156 62.0984 36.5156 61.5895C36.5156 61.0805 36.9283 60.668 37.4372 60.668Z" fill="#076007"/>
<path d="M24.1911 54.8627C24.7001 54.8627 25.1127 54.4501 25.1127 53.9411C25.1127 53.4321 24.7001 53.0195 24.1911 53.0195C23.6821 53.0195 23.2695 53.4321 23.2695 53.9411C23.2695 54.4501 23.6821 54.8627 24.1911 54.8627Z" fill="#076007"/>
<path d="M50.6833 39.5697C51.1922 39.5697 51.6048 39.1571 51.6048 38.6481C51.6048 38.1392 51.1922 37.7266 50.6833 37.7266C50.1743 37.7266 49.7617 38.1392 49.7617 38.6481C49.7617 39.1571 50.1743 39.5697 50.6833 39.5697Z" fill="#076007"/>
<path d="M24.1911 39.5697C24.7001 39.5697 25.1127 39.1571 25.1127 38.6481C25.1127 38.1392 24.7001 37.7266 24.1911 37.7266C23.6821 37.7266 23.2695 38.1392 23.2695 38.6481C23.2695 39.1571 23.6821 39.5697 24.1911 39.5697Z" fill="#076007"/>
<path d="M50.6833 54.8627C51.1922 54.8627 51.6048 54.4501 51.6048 53.9411C51.6048 53.4321 51.1922 53.0195 50.6833 53.0195C50.1743 53.0195 49.7617 53.4321 49.7617 53.9411C49.7617 54.4501 50.1743 54.8627 50.6833 54.8627Z" fill="#076007"/>
<path d="M29.7887 32.1289C30.2977 32.1289 30.7103 32.5416 30.7103 33.0505C30.7103 33.5594 30.2977 33.972 29.7887 33.972C29.2798 33.972 28.8672 33.5594 28.8672 33.0505C28.8672 32.5414 29.2798 32.1289 29.7887 32.1289Z" fill="#076007"/>
<path d="M45.0837 58.6172C45.5926 58.6172 46.0052 59.0298 46.0052 59.5388C46.0052 60.0477 45.5926 60.4603 45.0837 60.4603C44.5748 60.4603 44.1621 60.0477 44.1621 59.5388C44.1621 59.0297 44.5748 58.6172 45.0837 58.6172Z" fill="#076007"/>
<path d="M45.0837 32.1289C45.5926 32.1289 46.0052 32.5416 46.0052 33.0505C46.0052 33.5594 45.5926 33.972 45.0837 33.972C44.5748 33.972 44.1621 33.5594 44.1621 33.0505C44.1621 32.5414 44.5748 32.1289 45.0837 32.1289Z" fill="#076007"/>
<path d="M29.7887 58.6172C30.2977 58.6172 30.7103 59.0298 30.7103 59.5388C30.7103 60.0477 30.2977 60.4603 29.7887 60.4603C29.2798 60.4603 28.8672 60.0477 28.8672 59.5388C28.8672 59.0297 29.2798 58.6172 29.7887 58.6172Z" fill="#076007"/>
<path d="M37.4384 46.2951L35.1292 43.9859C34.9476 43.8043 34.8668 43.5451 34.9133 43.2924L36.9003 32.4601C37.01 31.8623 37.8668 31.8623 37.9765 32.4601L39.9636 43.2924C40.01 43.5451 39.9292 43.8043 39.7476 43.9859L37.4384 46.2951Z" fill="#1A8917"/>
<path d="M37.437 46.2969L40.5678 47.0964C40.8348 47.1645 41.0462 47.3684 41.124 47.6328L43.3661 55.2533C43.5261 55.7973 42.8547 56.1956 42.454 55.7942L36.8417 50.173C36.647 49.978 36.5693 49.6947 36.6376 49.4277L37.437 46.2969Z" fill="#1A8917"/>
<path d="M39.7052 46.659C39.9093 45.4002 39.0543 44.2143 37.7955 44.0103C36.5367 43.8062 35.3509 44.6612 35.1468 45.92C34.9428 47.1788 35.7978 48.3646 37.0565 48.5687C38.3153 48.7727 39.5012 47.9177 39.7052 46.659Z" fill="white"/>
<path d="M61.4116 30.5902C61.7124 25.8933 57.8394 22.0202 53.1425 22.3211C49.3394 22.5647 46.2322 25.603 45.9097 29.4002C45.7533 31.2421 46.2413 32.9632 47.171 34.366L46.0794 36.845C45.8539 37.3571 46.3756 37.8786 46.8877 37.6533L49.3667 36.5617C50.7696 37.4914 52.4906 37.9794 54.3325 37.823C58.1297 37.5005 61.168 34.3933 61.4116 30.5902Z" fill="#1A8917"/>
<path d="M50.682 30.8602C51.1644 30.8602 51.5555 30.4691 51.5555 29.9867C51.5555 29.5043 51.1644 29.1133 50.682 29.1133C50.1996 29.1133 49.8086 29.5043 49.8086 29.9867C49.8086 30.4691 50.1996 30.8602 50.682 30.8602Z" fill="#076007"/>
<path d="M53.7934 30.8602C54.2757 30.8602 54.6668 30.4691 54.6668 29.9867C54.6668 29.5043 54.2757 29.1133 53.7934 29.1133C53.311 29.1133 52.9199 29.5043 52.9199 29.9867C52.9199 30.4691 53.311 30.8602 53.7934 30.8602Z" fill="#076007"/>
<path d="M56.9047 30.8602C57.3871 30.8602 57.7781 30.4691 57.7781 29.9867C57.7781 29.5043 57.3871 29.1133 56.9047 29.1133C56.4223 29.1133 56.0312 29.5043 56.0312 29.9867C56.0312 30.4691 56.4223 30.8602 56.9047 30.8602Z" fill="#076007"/>
<path d="M25.4037 74.2187C29.6295 74.2187 33.0473 70.7602 32.9809 66.5192C32.9158 62.3595 29.4312 59.0625 25.2711 59.0625H21.6211V74.2187H25.4037Z" fill="#1A8917"/>
<path d="M21.6976 74.1725C25.8873 74.1725 29.2838 70.776 29.2838 66.5862C29.2838 62.3965 25.8873 59 21.6976 59C17.5078 59 14.1113 62.3965 14.1113 66.5862C14.1113 70.776 17.5078 74.1725 21.6976 74.1725Z" fill="white"/>
<path d="M29.1515 47.0312H26.9629C26.5875 47.0312 26.2423 46.7798 26.1686 46.4117C26.0679 45.9095 26.4492 45.4688 26.9336 45.4688H29.122C29.4975 45.4688 29.8426 45.7202 29.9165 46.0883C30.0173 46.5905 29.6359 47.0312 29.1515 47.0312Z" fill="#076007"/>
<path d="M47.9406 47.0312H45.752C45.3765 47.0312 45.0314 46.7798 44.9576 46.4117C44.857 45.9095 45.2383 45.4688 45.7226 45.4688H47.9111C48.2865 45.4688 48.6317 45.7202 48.7056 46.0883C48.8064 46.5905 48.4248 47.0312 47.9406 47.0312Z" fill="#076007"/>
<path d="M48.1769 18.7954C47.5926 18.7954 47.0083 18.5731 46.5637 18.1283C45.6741 17.2387 45.6741 15.7911 46.5635 14.9015C47.453 14.012 48.9005 14.012 49.7904 14.9014C50.6799 15.7912 50.6799 17.2387 49.7904 18.1283C49.3457 18.5729 48.7611 18.7954 48.1769 18.7954ZM49.238 17.5019H49.2396H49.238ZM48.1769 15.7961C47.9927 15.7961 47.8087 15.8662 47.6683 16.0064C47.388 16.2867 47.388 16.7431 47.6683 17.0234C47.9488 17.3039 48.4052 17.3037 48.6857 17.0234C48.966 16.7429 48.966 16.2867 48.6855 16.0062C48.5454 15.8661 48.3612 15.7961 48.1769 15.7961Z" fill="#1A8917"/>
<path d="M65.7169 37.8552C65.0867 37.8552 64.4955 37.6014 64.0598 37.1421C63.2472 36.2855 63.2337 34.9099 64.0295 34.0375C64.9111 33.0713 66.4158 33.0455 67.3302 33.9602C68.2199 34.8499 68.2199 36.2974 67.3302 37.1869H67.3303C67.3302 37.1869 67.3302 37.1869 67.3302 37.1869C66.8992 37.6178 66.3263 37.8552 65.7169 37.8552ZM65.7169 34.8658C65.3995 34.8658 65.0823 35.0739 64.9894 35.4894C64.9759 35.5492 64.9753 35.6122 64.9878 35.6722C65.0705 36.0675 65.3755 36.3038 65.7169 36.3038C65.9091 36.3038 66.0895 36.2289 66.2253 36.0932H66.2903C66.3773 36.0932 66.45 36.0267 66.4605 35.9405C66.5481 35.2228 66.133 34.8658 65.7169 34.8658Z" fill="#1A8917"/>
<path d="M27.5682 18.125H27.0898V17.6466C27.0898 17.271 26.8382 16.9257 26.4698 16.8521C25.9676 16.7517 25.5273 17.1332 25.5273 17.6172V18.125H25.0489C24.6734 18.125 24.3283 18.3764 24.2545 18.7446C24.1539 19.2468 24.5351 19.6875 25.0195 19.6875H25.5273V20.166C25.5273 20.5416 25.7789 20.8869 26.1473 20.9605C26.6495 21.0608 27.0898 20.6796 27.0898 20.1953V19.6875H27.5976C28.082 19.6875 28.4632 19.2468 28.3626 18.7446C28.2889 18.3764 27.9437 18.125 27.5682 18.125Z" fill="#1A8917"/>
<path d="M36.3182 76.25H35.8398V75.7716C35.8398 75.396 35.5882 75.0508 35.2198 74.9771C34.7176 74.8768 34.2773 75.258 34.2773 75.7422V76.25H33.7989C33.4234 76.25 33.0783 76.5014 33.0045 76.8696C32.9039 77.3718 33.2851 77.8125 33.7695 77.8125H34.2773V78.291C34.2773 78.6666 34.5289 79.0118 34.8973 79.0855C35.3995 79.1858 35.8398 78.8044 35.8398 78.3203V77.8125H36.3476C36.832 77.8125 37.2134 77.3718 37.1126 76.8696C37.0389 76.5014 36.6937 76.25 36.3182 76.25Z" fill="#1A8917"/>
<path d="M69.4433 40.1563H68.9648V39.6778C68.9648 39.3022 68.7133 38.9571 68.3448 38.8833C67.8426 38.783 67.4023 39.1644 67.4023 39.6485V40.1563H66.9239C66.5484 40.1563 66.2033 40.4077 66.1295 40.7758C66.0289 41.278 66.4101 41.7188 66.8945 41.7188H67.4023V42.1972C67.4023 42.5728 67.6539 42.918 68.0223 42.9917C68.5245 43.092 68.9648 42.7106 68.9648 42.2266V41.7188H69.4726C69.957 41.7188 70.3383 41.278 70.2376 40.7758C70.1639 40.4077 69.8187 40.1563 69.4433 40.1563Z" fill="#1A8917"/>
<path d="M33.6523 10.0369V8.41612C33.6523 8.0405 33.9039 7.69534 34.2723 7.62159C34.7745 7.52128 35.2148 7.90269 35.2148 8.38675V10.0664C35.2148 10.5507 34.7741 10.9322 34.2719 10.8314C33.9037 10.7575 33.6523 10.4124 33.6523 10.0369Z" fill="#076007"/>
<path d="M36.6211 10.0369V8.41612C36.6211 8.0405 36.8727 7.69534 37.2411 7.62159C37.7433 7.52128 38.1836 7.90269 38.1836 8.38675V10.0664C38.1836 10.5507 37.7428 10.9322 37.2406 10.8314C36.8725 10.7575 36.6211 10.4124 36.6211 10.0369Z" fill="#076007"/>
<path d="M39.7461 10.0369V8.41612C39.7461 8.0405 39.9977 7.69534 40.3661 7.62159C40.8683 7.52128 41.3086 7.90269 41.3086 8.38675V10.0664C41.3086 10.5507 40.8678 10.9322 40.3656 10.8314C39.9975 10.7575 39.7461 10.4124 39.7461 10.0369Z" fill="#076007"/>
<path d="M60.5456 35.1311C61.4873 33.852 62.0841 32.3075 62.1908 30.6411C62.3486 28.1784 61.4417 25.7688 59.7031 24.03C57.9645 22.2913 55.5541 21.3855 53.092 21.5423C51.4256 21.6491 49.8809 22.2459 48.6019 23.1877C46.8222 22.3258 44.9752 21.6803 43.1834 21.2544V19.4986C43.0733 18.2836 42.1439 17.2822 40.9959 17.1664V13.4375H42.5584C43.8528 13.4375 44.9022 12.3881 44.9022 11.0938V7.34375C44.9022 6.04937 43.8528 5 42.5584 5H32.2459C30.9516 5 29.9022 6.04937 29.9022 7.34375V11.0938C29.9022 12.3881 30.9516 13.4375 32.2459 13.4375H33.9647V17.1666C32.7309 17.2822 31.8017 18.2837 31.7772 19.4987V21.2605C20.3548 23.8358 11.7773 34.0822 11.7773 46.2956C11.7773 51.3634 13.2448 56.2416 16.0258 60.4411C14.3691 61.9709 13.3291 64.1594 13.3291 66.5869C13.3291 67.9383 13.6598 69.2812 14.2859 70.4731C14.4772 70.837 14.9172 71.0192 15.2956 70.8587C15.7236 70.6773 15.8959 70.1738 15.6827 69.7722C15.165 68.7972 14.8914 67.6958 14.8914 66.5869C14.8914 62.6617 18.2317 59.5022 22.2189 59.8016C25.5461 60.0513 28.232 62.7373 28.4817 66.0644C28.7809 70.0517 25.6214 73.3919 21.6964 73.3919C20.5641 73.3919 19.4431 73.1083 18.4548 72.5717C18.0619 72.3581 17.5664 72.5172 17.3739 72.9283C17.1919 73.3169 17.3823 73.7761 17.7634 73.9734C18.4533 74.3306 19.5898 74.6077 20.4644 74.7834C21.1838 74.928 21.9148 75 22.6486 75H23.7702C25.067 75 26.353 74.7683 27.567 74.3125C29.2237 73.6905 31.4058 72.6823 32.2948 71.4377C33.9778 71.78 35.7059 71.9556 37.4375 71.9556C51.5867 71.9556 63.0978 60.4445 63.0978 46.2955C63.0977 42.3802 62.2378 38.6256 60.5456 35.1311ZM53.1919 23.1017C55.2061 22.9727 57.1772 23.7137 58.5983 25.135C60.0195 26.5562 60.7605 28.5267 60.6314 30.5413C60.4127 33.9597 57.6761 36.7559 54.2661 37.0455C52.6666 37.1817 51.1222 36.7891 49.7978 35.9114C49.668 35.8253 49.5175 35.7814 49.3662 35.7814C49.2594 35.7814 49.1522 35.8033 49.0514 35.8477L46.9681 36.765L47.8855 34.6819C47.9927 34.4384 47.9686 34.1572 47.8217 33.9355C46.9441 32.6109 46.5519 31.0659 46.6877 29.4673C46.977 26.0573 49.7734 23.3206 53.1919 23.1017ZM31.4647 11.0938V7.34375C31.4647 6.91234 31.8145 6.5625 32.2459 6.5625H42.5584C42.9898 6.5625 43.3397 6.91234 43.3397 7.34375V11.0938C43.3397 11.5252 42.9898 11.875 42.5584 11.875H32.2459C31.8145 11.875 31.4647 11.5252 31.4647 11.0938ZM39.4334 13.4375V17.1875H35.5272V13.4375H39.4334ZM33.3395 19.5312C33.3395 19.1005 33.6891 18.75 34.1187 18.75H40.6834C41.1148 18.75 41.4647 19.0998 41.4647 19.5312V20.9889C40.133 20.777 38.7778 20.668 37.402 20.668C36.0197 20.668 34.6631 20.78 33.3395 20.9925V19.5312ZM13.3398 46.3572C13.3398 33.0697 24.15 22.2595 37.4375 22.2595C40.8995 22.2595 44.2264 22.975 47.3409 24.3838C46.3237 25.4964 45.595 26.8755 45.2783 28.3992C43.5177 27.6291 41.66 27.125 39.7411 26.9002C39.2614 26.8431 38.827 27.2392 38.872 27.7514C38.905 28.1272 39.2228 28.4119 39.5973 28.4566C41.5127 28.6852 43.3605 29.2189 45.1 30.0373C45.08 31.6169 45.4852 33.1391 46.2887 34.493L45.3822 36.5517C45.1703 37.033 45.2153 37.603 45.5419 38.0152C45.9466 38.5259 46.6203 38.6875 47.2019 38.4313L49.302 37.5066C50.6237 38.2911 52.1058 38.6964 53.6455 38.6964C53.6838 38.6964 53.7223 38.6945 53.7608 38.6939C54.8923 41.098 55.4677 43.6747 55.4677 46.3575C55.4677 56.2994 47.3792 64.3878 37.4373 64.3878C36.0722 64.3878 34.7141 64.233 33.3952 63.9311C32.2641 60.6477 29.1458 58.2812 25.4833 58.2812H23.9142C21.0069 54.9866 19.4073 50.7612 19.4073 46.3575C19.4073 37.1956 26.2608 29.4964 35.3491 28.4484C35.7777 28.3991 36.085 28.0114 36.0356 27.5828C35.9862 27.1542 35.6009 26.8475 35.17 26.8961C25.2931 28.0352 17.8448 36.4016 17.8448 46.3575C17.8448 50.6939 19.2725 54.8711 21.8914 58.2812H21.6967C21.6964 58.2812 21.6961 58.2814 21.6958 58.2814C20.0728 58.2816 18.5575 58.7478 17.2734 59.5509C14.7 55.6273 13.3398 51.0809 13.3398 46.3572ZM26.7147 73.2781C28.747 71.7502 30.0641 69.3195 30.0641 66.5869C30.0641 63.8542 28.747 61.4236 26.7145 59.8955C29.8808 60.4767 32.2883 63.255 32.2883 66.5869C32.2884 69.9186 29.8809 72.6967 26.7147 73.2781ZM37.4375 70.3933C35.9853 70.3933 34.5363 70.2619 33.1177 70.0055C33.5873 68.9609 33.8509 67.8044 33.8509 66.5867C33.8509 66.2342 33.8264 65.8873 33.7839 65.5461C34.9836 65.7722 36.2083 65.8881 37.4375 65.8881C48.2411 65.8881 57.0303 57.0989 57.0303 46.2953C57.0303 43.5609 56.4798 40.9275 55.3962 38.4544C56.9198 38.1375 58.2988 37.4089 59.4114 36.3917C60.8202 39.5066 61.5353 42.8336 61.5353 46.2952C61.5352 59.5831 50.725 70.3933 37.4375 70.3933Z" fill="#076007"/>
<path d="M34.5768 44.5381L34.7746 44.7359C34.5052 45.1942 34.348 45.7259 34.348 46.295C34.348 47.4564 34.9926 48.4691 35.9421 48.997L35.8819 49.2325C35.7463 49.7639 35.9027 50.3352 36.2901 50.7231L41.9024 56.3444C42.1618 56.6044 42.4969 56.7386 42.8374 56.7386C43.0696 56.7386 43.3046 56.6761 43.5201 56.5484C44.0513 56.2333 44.2912 55.6234 44.1168 55.0309L41.8748 47.4108C41.7201 46.8844 41.2937 46.4731 40.7623 46.3375L40.5277 46.2777C40.5246 45.7153 40.3685 45.1895 40.1021 44.7359L40.2998 44.5383C40.6629 44.1752 40.8243 43.6569 40.7319 43.1516L38.7448 32.3192C38.6271 31.6781 38.0898 31.2305 37.438 31.2305C36.7863 31.2305 36.2493 31.6783 36.1318 32.3192L34.1446 43.1519C34.0524 43.6569 34.2138 44.1752 34.5768 44.5381ZM37.4385 44.767C38.2812 44.767 38.9665 45.4525 38.9665 46.295C38.9665 47.1375 38.281 47.823 37.4385 47.823C36.596 47.823 35.9107 47.1375 35.9107 46.295C35.9107 45.4525 36.596 44.767 37.4385 44.767ZM42.3584 54.5894L37.396 49.6191L37.4558 49.3845C38.6098 49.378 39.6151 48.7361 40.1404 47.7914L40.3758 47.8516L42.3584 54.5894ZM37.4385 33.8567L39.1954 43.4334L38.9976 43.6312C38.5391 43.3619 38.0074 43.2047 37.4385 43.2047C36.8696 43.2047 36.3379 43.3619 35.8794 43.6312L35.6818 43.4336L37.4385 33.8567Z" fill="#076007"/>
<path d="M23.5255 69.0628H20.5553C20.6394 68.8423 20.6831 68.6061 20.6831 68.3631V67.344H21.6572C22.0327 67.344 22.3778 67.0926 22.4516 66.7245C22.5522 66.2223 22.171 65.7815 21.6866 65.7815H20.6831V64.5515C20.6831 64.4423 20.7278 64.3362 20.808 64.262C21.5635 63.5618 22.4622 64.1687 22.3438 64.9233C22.3247 65.0447 22.3539 65.1714 22.4422 65.2567C23.1158 65.9076 23.9169 65.4415 23.9169 64.7886C23.9169 62.8118 21.5124 61.3859 19.4742 63.2822C19.2472 63.4934 19.1208 63.7923 19.1208 64.1023V65.7815H18.748C18.6441 65.7815 18.5431 65.8244 18.4731 65.9011C17.8663 66.567 18.3275 67.344 18.9708 67.344H19.121V68.4151C19.121 68.4886 19.0941 68.5614 19.04 68.6111C18.4963 69.1108 18.5161 70.0251 19.2678 70.5076C19.3939 70.5886 19.5439 70.6251 19.6938 70.6251H23.6663C23.8335 70.6251 23.995 70.5508 24.0966 70.4179C24.5891 69.7731 24.1406 69.0628 23.5255 69.0628Z" fill="#076007"/>
</g>
<defs>
<linearGradient id="paint0_linear" x1="18.9136" y1="17.5249" x2="70.903" y2="29.5526" gradientUnits="userSpaceOnUse">
<stop stop-color="#4CAF50" stop-opacity="0.5"/>
<stop offset="1" stop-color="#FFA500"/>
</linearGradient>
<clipPath id="clip0">
<rect width="80" height="80" fill="white"/>
</clipPath>
</defs>
</svg>
