<svg width="80" height="80" viewBox="0 0 80 80" fill="none" xmlns="http://www.w3.org/2000/svg">
<path d="M80 30.0194C80 17.9555 62.0914 8.17578 40 8.17578C17.9086 8.17578 0 17.9555 0 30.0194C0 31.9694 0.468437 33.8595 1.34687 35.6583C2.91047 38.86 3.30031 42.5064 2.52453 45.9842C2.20641 47.4103 2.02781 48.8889 2.00375 50.4052C1.81078 62.5633 11.6852 72.6022 23.8447 72.602C32.9764 72.602 40.7983 66.9981 44.0611 59.0419C45.853 54.6725 49.6181 51.3983 54.2416 50.4361C69.3009 47.3022 80 39.3436 80 30.0194Z" fill="url(#paint0_linear)" fill-opacity="0.5"/>
<path opacity="0.1" d="M73.252 71.6022L57.5914 55.9416C57.0311 55.3812 56.1226 55.3812 55.5623 55.9416L55.1575 56.3464L49.7659 50.9548C51.6543 48.6181 52.8512 45.9083 53.3575 43.0981H56.4587C56.9706 43.0981 57.3857 42.6831 57.3857 42.1711V26.305C57.3857 25.4428 58.0846 24.7439 58.9468 24.7439C59.809 24.7439 60.5079 25.4428 60.5079 26.305V42.1711C60.5079 42.6831 60.9229 43.0981 61.435 43.0981H65.6829C66.1948 43.0981 66.61 42.6831 66.61 42.1711V18.0694C66.61 17.5575 66.195 17.1423 65.6829 17.1423H52.2109C51.6989 17.1423 51.2839 17.5573 51.2839 18.0694V31.218C50.5384 29.9334 49.617 28.7233 48.5171 27.6234C45.0318 24.1381 40.4409 22.4334 35.8734 22.507V17.4144L38.4064 19.9473C38.6865 20.2275 39.1407 20.2275 39.4209 19.9473L43.8343 15.5341C44.1145 15.2539 44.1145 14.7997 43.8343 14.5195L36.0836 6.76875C35.949 6.63422 35.7665 6.55859 35.5762 6.55859H31.874C31.5904 6.55859 31.3286 6.72359 31.2186 6.98516C30.4853 8.72922 28.76 9.95438 26.7487 9.95438C24.7375 9.95438 23.0121 8.72922 22.2789 6.98516C22.1689 6.72359 21.907 6.55859 21.6234 6.55859H17.9212C17.7309 6.55859 17.5484 6.63422 17.4139 6.76875L9.66324 14.5194C9.38309 14.7995 9.38309 15.2537 9.66324 15.5339L14.0767 19.9472C14.3568 20.2273 14.8111 20.2273 15.0912 19.9472L17.6242 17.4142V32.7644C17.6242 33.1606 17.9454 33.4817 18.3415 33.4817H19.9271C17.8212 38.7458 18.3773 44.8264 21.5957 49.6589H10.4865C9.97449 49.6589 9.55949 50.0739 9.55949 50.5859V65.3212C9.55949 65.8331 9.97449 66.2483 10.4865 66.2483H14.7345C15.2465 66.2483 15.6615 65.8333 15.6615 65.3212V58.8216C15.6615 57.9594 16.3604 57.2605 17.2226 57.2605C18.0848 57.2605 18.7837 57.9594 18.7837 58.8216V65.3212C18.7837 65.8331 19.1987 66.2483 19.7107 66.2483H23.9587C24.4707 66.2483 24.8857 65.8333 24.8857 65.3212V53.3439C31.2809 58.7512 40.6423 58.8344 47.1282 53.5925L52.5198 58.9841L52.115 59.3889C51.5546 59.9492 51.5546 60.8577 52.115 61.418L67.7756 77.0787C68.3359 77.6391 69.2443 77.6391 69.8046 77.0787L73.2521 73.6312C73.8123 73.0711 73.8123 72.1627 73.252 71.6022Z" fill="#076007"/>
<path d="M51.2852 14.7903V38.8922C51.2852 39.4042 51.7002 39.8192 52.2122 39.8192H56.4602C56.972 39.8192 57.3872 39.4042 57.3872 38.8922V23.0261C57.3872 22.1639 58.0861 21.465 58.9483 21.465C59.8105 21.465 60.5094 22.1639 60.5094 23.0261V38.8922C60.5094 39.4042 60.9244 39.8192 61.4364 39.8192H65.6844C66.1962 39.8192 66.6114 39.4042 66.6114 38.8922V14.7903C66.6114 14.2783 66.1964 13.8633 65.6844 13.8633H52.2123C51.7002 13.8633 51.2852 14.2784 51.2852 14.7903Z" fill="white"/>
<path d="M66.6093 16.4902V14.7903C66.6093 14.2783 66.1943 13.8633 65.6823 13.8633H52.2102C51.6982 13.8633 51.2832 14.2783 51.2832 14.7903V16.4902H66.6093Z" fill="#1A8917"/>
<path d="M51.2832 37.0391V38.893C51.2832 39.405 51.6982 39.82 52.2102 39.82H56.4582C56.9701 39.82 57.3852 39.405 57.3852 38.893V37.0391H51.2832Z" fill="#1A8917"/>
<path d="M60.5078 37.0391V38.893C60.5078 39.405 60.9228 39.82 61.4348 39.82H65.6828C66.1947 39.82 66.6099 39.405 66.6099 38.893V37.0391H60.5078Z" fill="#1A8917"/>
<path d="M62.9355 16.4883C62.976 18.0652 63.8295 19.5094 65.2009 20.3L66.6081 21.112V16.4883H62.9355Z" fill="#076007"/>
<path d="M54.9557 16.4883C54.9152 18.0652 54.0618 19.5094 52.6904 20.3L51.2832 21.112V16.4883H54.9557Z" fill="#076007"/>
<path d="M56.0212 16.7859H55.1405C55.0382 16.7859 54.9551 16.703 54.9551 16.6005V13.8633H56.2065V16.6005C56.2066 16.703 56.1237 16.7859 56.0212 16.7859Z" fill="#076007"/>
<path d="M62.7516 16.7859H61.871C61.7687 16.7859 61.6855 16.703 61.6855 16.6005V13.8633H62.937V16.6005C62.937 16.703 62.854 16.7859 62.7516 16.7859Z" fill="#076007"/>
<path d="M9.55859 47.3098V62.0452C9.55859 62.5572 9.97359 62.9722 10.4856 62.9722H14.7336C15.2456 62.9722 15.6606 62.5572 15.6606 62.0452V55.5455C15.6606 54.6833 16.3595 53.9844 17.2217 53.9844C18.0839 53.9844 18.7828 54.6833 18.7828 55.5455V62.0452C18.7828 62.5572 19.1978 62.9722 19.7098 62.9722H23.9578C24.4698 62.9722 24.8848 62.5572 24.8848 62.0452V47.3098C24.8848 46.798 24.4698 46.3828 23.9578 46.3828H10.4856C9.97375 46.383 9.55859 46.798 9.55859 47.3098Z" fill="white"/>
<path d="M24.8847 49.0097V47.3098C24.8847 46.7978 24.4697 46.3828 23.9577 46.3828H10.4856C9.97359 46.3828 9.55859 46.7978 9.55859 47.3098V49.0097H24.8847Z" fill="#1A8917"/>
<path d="M9.55859 60.1914V62.0453C9.55859 62.5573 9.97359 62.9723 10.4856 62.9723H14.7336C15.2456 62.9723 15.6606 62.5573 15.6606 62.0453V60.1914H9.55859Z" fill="#1A8917"/>
<path d="M18.7832 60.1914V62.0453C18.7832 62.5573 19.1982 62.9723 19.7102 62.9723H23.9582C24.4702 62.9723 24.8852 62.5573 24.8852 62.0453V60.1914H18.7832Z" fill="#1A8917"/>
<path d="M21.2109 49.0078C21.2514 50.5847 22.1048 52.0289 23.4763 52.8195L24.8834 53.6316V49.0078H21.2109Z" fill="#076007"/>
<path d="M13.2311 49.0078C13.1906 50.5847 12.3372 52.0289 10.9658 52.8195L9.55859 53.6316V49.0078H13.2311Z" fill="#076007"/>
<path d="M14.2966 49.3053H13.4159C13.3136 49.3053 13.2305 49.2223 13.2305 49.12V46.3828H14.4819V49.12C14.482 49.2223 14.3989 49.3053 14.2966 49.3053Z" fill="#076007"/>
<path d="M21.0251 49.3053H20.1445C20.0421 49.3053 19.959 49.2223 19.959 49.12V46.3828H21.2104V49.12C21.2105 49.2223 21.1276 49.3053 21.0251 49.3053Z" fill="#076007"/>
<path d="M43.8342 12.2566L39.4209 16.67C39.1407 16.9502 38.6865 16.9502 38.4064 16.67L35.8734 14.137V29.4872C35.8734 29.8834 35.5522 30.2045 35.1561 30.2045H18.3415C17.9453 30.2045 17.6242 29.8833 17.6242 29.4872V14.137L15.0912 16.67C14.8111 16.9502 14.3568 16.9502 14.0767 16.67L9.66324 12.2566C9.38309 11.9764 9.38309 11.5222 9.66324 11.242L17.414 3.49125C17.5486 3.35687 17.7311 3.28125 17.9214 3.28125H21.6236C21.9071 3.28125 22.169 3.44641 22.279 3.70781C23.0123 5.45187 24.7376 6.67703 26.7489 6.67703C28.7601 6.67703 30.4854 5.45187 31.2187 3.70781C31.3287 3.44641 31.5906 3.28125 31.8742 3.28125H35.5764C35.7667 3.28125 35.949 3.35687 36.0837 3.49141L43.8345 11.2422C44.1143 11.5222 44.1143 11.9764 43.8342 12.2566Z" fill="white"/>
<path d="M45.7305 48.9297L48.3679 46.2923L56.0773 54.0016L53.4399 56.6391L45.7305 48.9297Z" fill="white"/>
<path d="M36.1558 54.1866C45.8097 54.1866 53.6358 46.3605 53.6358 36.7066C53.6358 27.0526 45.8097 19.2266 36.1558 19.2266C26.5018 19.2266 18.6758 27.0526 18.6758 36.7066C18.6758 46.3605 26.5018 54.1866 36.1558 54.1866Z" fill="white"/>
<path d="M36.1561 50.1638C43.5881 50.1638 49.613 44.1389 49.613 36.7069C49.613 29.2748 43.5881 23.25 36.1561 23.25C28.7241 23.25 22.6992 29.2748 22.6992 36.7069C22.6992 44.1389 28.7241 50.1638 36.1561 50.1638Z" fill="#1A8917"/>
<path d="M49.4948 34.9327L34.382 50.0439C32.9006 49.8503 31.4472 49.4086 30.0859 48.7202L48.1694 30.6367C48.8595 31.9978 49.3014 33.4513 49.4948 34.9327Z" fill="white"/>
<path d="M47.4566 29.3944L28.8471 48.0041C28.0651 47.4999 27.3251 46.9035 26.6413 46.2197C25.7921 45.3705 25.0787 44.4353 24.5059 43.4425L42.8937 25.0547C43.8865 25.6277 44.8232 26.3409 45.6724 27.1902C46.3562 27.8739 46.9509 28.6139 47.4566 29.3944Z" fill="white"/>
<path d="M40.7344 24.05V40.6755C40.7344 41.1703 40.3331 41.5685 39.8398 41.5685H23.6047C21.7423 36.7509 22.7523 31.078 26.6394 27.1909C30.45 23.3802 35.9808 22.3328 40.7344 24.05Z" fill="white"/>
<path d="M73.2508 70.3523L69.8033 73.7998C69.243 74.3601 68.3345 74.3601 67.7742 73.7998L52.1136 58.139C51.5533 57.5787 51.5533 56.6702 52.1136 56.1099L55.5611 52.6624C56.1214 52.1021 57.0298 52.1021 57.5902 52.6624L73.2508 68.3232C73.8111 68.8835 73.8111 69.792 73.2508 70.3523Z" fill="white"/>
<path d="M54.5273 60.5664L60.0031 55.0907L62.5347 57.6223L57.059 63.098L54.5273 60.5664Z" fill="#1A8917"/>
<path d="M46.2238 26.6389C43.5345 23.9497 39.9591 22.4688 36.1559 22.4688C32.3528 22.4688 28.7773 23.9498 26.0881 26.6389C23.3989 29.3281 21.918 32.9036 21.918 36.7067C21.918 40.5098 23.3989 44.0853 26.0881 46.7745C28.7773 49.4638 32.3528 50.9447 36.1559 50.9447C39.9591 50.9447 43.5345 49.4638 46.2238 46.7745C48.913 44.0853 50.3941 40.5098 50.3941 36.7067C50.3941 32.9036 48.913 29.3281 46.2238 26.6389ZM45.1188 45.6697C42.7247 48.0637 39.5416 49.3823 36.1558 49.3823C32.77 49.3823 29.5869 48.0639 27.1928 45.6697C24.7988 43.2756 23.4802 40.0925 23.4802 36.7067C23.4802 33.3209 24.7986 30.1378 27.1928 27.7437C29.5869 25.3497 32.77 24.0311 36.1558 24.0311C39.5416 24.0311 42.7245 25.3495 45.1188 27.7437C47.513 30.1378 48.8314 33.3209 48.8314 36.7067C48.8314 40.0925 47.513 43.2755 45.1188 45.6697Z" fill="#076007"/>
<path d="M73.8037 67.7725L61.8997 55.8684C61.5945 55.5634 61.1 55.5634 60.7948 55.8684C60.4897 56.1736 60.4897 56.6683 60.7948 56.9733L72.6989 68.8773C72.9537 69.1322 72.9537 69.5467 72.6989 69.8016L69.2514 73.2489C68.9966 73.5038 68.582 73.5038 68.3272 73.2489L52.6666 57.5884C52.4117 57.3336 52.4117 56.9189 52.6666 56.6642L56.1139 53.2167C56.3687 52.9619 56.7833 52.9619 57.0381 53.2167C57.3433 53.5217 57.8378 53.5217 58.143 53.2167C58.4481 52.9116 58.4481 52.4169 58.143 52.1119C57.3287 51.2978 56.0337 51.2516 55.1641 51.9717L50.8039 47.6117C52.3892 45.4853 53.4522 43.0898 53.9914 40.6022H56.4578C57.3997 40.6022 58.1661 39.8359 58.1661 38.8939V23.0277C58.1661 22.5977 58.5159 22.2478 58.9459 22.2478C59.3759 22.2478 59.7258 22.5977 59.7258 23.0277V38.8939C59.7258 39.8358 60.492 40.6022 61.4341 40.6022H65.682C66.6239 40.6022 67.3903 39.8359 67.3903 38.8939V14.792C67.3903 13.8502 66.6239 13.0837 65.682 13.0837H52.21C51.2681 13.0837 50.5017 13.85 50.5017 14.792V25.4073C50.0609 24.8486 49.5841 24.3092 49.0687 23.7938C45.635 20.36 41.1628 18.5828 36.6537 18.4609V16.0231L37.853 17.2223C38.4373 17.8066 39.388 17.8066 39.9723 17.2223L44.3858 12.8089C44.9701 12.2245 44.9701 11.2738 44.3858 10.6895L36.635 2.93875C36.3519 2.65578 35.9756 2.5 35.5755 2.5H31.8733C31.2687 2.5 30.7287 2.85516 30.4977 3.405C29.8616 4.91812 28.3897 5.89578 26.748 5.89578C25.1062 5.89578 23.6345 4.91812 22.9983 3.405C22.7672 2.85516 22.2272 2.5 21.6227 2.5H17.9205C17.5203 2.5 17.1441 2.65578 16.8608 2.93891L9.11016 10.6897C8.52578 11.2741 8.52578 12.2248 9.11016 12.8091L13.5236 17.2225C14.108 17.8067 15.0586 17.8067 15.643 17.2225L16.8422 16.0233V29.4873C16.8422 30.3136 17.5145 30.9859 18.3408 30.9859H18.817C17.2425 35.785 17.7045 41.1122 20.205 45.6006H10.4858C9.54391 45.6006 8.7775 46.3669 8.7775 47.3089V62.0444C8.7775 62.9863 9.54375 63.7527 10.4858 63.7527H14.7337C15.6756 63.7527 16.442 62.9864 16.442 62.0444V55.5447C16.442 55.1147 16.7919 54.7648 17.2219 54.7648C17.6519 54.7648 18.0017 55.1147 18.0017 55.5447V62.0444C18.0017 62.9863 18.768 63.7527 19.71 63.7527H23.958C24.8998 63.7527 25.6662 62.9864 25.6662 62.0444V55.4759C25.6662 55.0445 25.3164 54.6947 24.885 54.6947C24.4536 54.6947 24.1037 55.0445 24.1037 55.4759V62.0444C24.1037 62.1247 24.0384 62.1902 23.958 62.1902H19.71C19.6297 62.1902 19.5642 62.1248 19.5642 62.0444V55.5447C19.5642 54.2531 18.5134 53.2023 17.2219 53.2023C15.9303 53.2023 14.8795 54.2531 14.8795 55.5447V62.0444C14.8795 62.1247 14.8142 62.1902 14.7337 62.1902H10.4858C10.4055 62.1902 10.34 62.1248 10.34 62.0444V47.3089C10.34 47.2286 10.4055 47.1631 10.4858 47.1631H21.1834C21.787 48.0264 22.4734 48.8489 23.2436 49.6191C26.8037 53.1791 31.48 54.9591 36.1562 54.9591C39.9978 54.9591 43.8387 53.7569 47.0616 51.3544L51.4217 55.7145C50.7016 56.5842 50.7477 57.8792 51.5619 58.6934L67.2225 74.3541C67.6545 74.7861 68.2219 75.002 68.7895 75.002C69.3569 75.002 69.9245 74.7859 70.3566 74.3541L73.8041 70.9066C74.6678 70.0425 74.6678 68.6366 73.8037 67.7725ZM52.0644 14.792C52.0644 14.7117 52.1297 14.6462 52.2102 14.6462H65.6822C65.7626 14.6462 65.828 14.7116 65.828 14.792V38.8939C65.828 38.9742 65.7626 39.0397 65.6822 39.0397H61.4342C61.3539 39.0397 61.2884 38.9744 61.2884 38.8939V23.0277C61.2884 21.7361 60.2376 20.6853 58.9461 20.6853C57.6545 20.6853 56.6037 21.7361 56.6037 23.0277V38.8939C56.6037 38.9742 56.5383 39.0397 56.458 39.0397H54.2592C54.7512 35.1878 54.0198 31.2086 52.0642 27.7373V14.792H52.0644ZM18.4047 29.4234V14.137C18.4047 13.8211 18.2144 13.5361 17.9225 13.4152C17.6306 13.2944 17.2944 13.3611 17.0711 13.5845L14.5834 16.0723L10.2602 11.7494L17.947 4.0625H21.58C22.4722 6.12719 24.4945 7.45828 26.748 7.45828C29.0014 7.45828 31.0237 6.12734 31.9159 4.0625H35.5491L43.2358 11.7494L38.9128 16.0725L36.4252 13.5847C36.2017 13.3612 35.8658 13.2945 35.5737 13.4153C35.2819 13.5363 35.0916 13.8211 35.0916 14.1372V18.4858C30.7764 18.7356 26.5334 20.5041 23.2436 23.7938C21.5742 25.4631 20.2962 27.3781 19.4097 29.4234H18.4047ZM24.3484 48.5142C17.8377 42.0034 17.8377 31.4095 24.3484 24.8986C27.6042 21.6428 31.8795 20.0155 36.1562 20.0155C40.4319 20.0155 44.7091 21.6436 47.9641 24.8986C54.4748 31.4094 54.4748 42.0033 47.9641 48.5142C41.4531 55.025 30.8594 55.025 24.3484 48.5142ZM49.0689 49.6191C49.3262 49.3617 49.5733 49.0978 49.812 48.8292L54.052 53.0691L52.5191 54.602L48.2792 50.3622C48.5476 50.1234 48.8114 49.8764 49.0689 49.6191Z" fill="#076007"/>
<path d="M36.1512 38.2833H31.468C31.0369 38.2833 30.6875 37.9337 30.6875 37.5028V35.7336C30.6875 35.3025 31.037 34.9531 31.468 34.9531H36.1512C36.5823 34.9531 36.9317 35.3025 36.9317 35.7336V37.5028C36.9317 37.9339 36.5823 38.2833 36.1512 38.2833Z" fill="#1A8917"/>
<path d="M40.7352 38.0742V40.6781C40.7352 41.173 40.3339 41.5711 39.8406 41.5711H37.2383L40.7352 38.0742Z" fill="#1A8917"/>
<path d="M40.7349 27.2148V36.1177L35.2837 41.5689H26.3809L40.7349 27.2148Z" fill="#1A8917"/>
<path d="M36.9298 35.7336V37.5023C36.9298 37.9333 36.5801 38.2828 36.1491 38.2828H31.466C31.0351 38.2828 30.6855 37.9331 30.6855 37.5023V37.2634L32.996 34.9531H36.1493C36.5801 34.9531 36.9298 35.3028 36.9298 35.7336Z" fill="white"/>
<path d="M66.6935 51.725C66.4935 51.725 66.2936 51.6488 66.141 51.4963C65.8358 51.1911 65.8358 50.6964 66.141 50.3914L67.7021 48.8303C68.0071 48.5253 68.5018 48.5253 68.8069 48.8303C69.1121 49.1355 69.1121 49.6302 68.8069 49.9352L67.2458 51.4963C67.0935 51.6488 66.8935 51.725 66.6935 51.725Z" fill="#1A8917"/>
<path d="M33.8087 64.4984C33.6087 64.4984 33.4089 64.4222 33.2562 64.2697C32.9511 63.9645 32.9511 63.4699 33.2562 63.1649L34.8173 61.6038C35.1225 61.2987 35.617 61.2987 35.9221 61.6038C36.2273 61.9089 36.2273 62.4036 35.9221 62.7086L34.3611 64.2697C34.2086 64.422 34.0086 64.4984 33.8087 64.4984Z" fill="#1A8917"/>
<path d="M11.8282 24.7757C11.6282 24.7757 11.4284 24.6995 11.2757 24.547C10.9706 24.2418 10.9706 23.7471 11.2757 23.4421L12.8368 21.881C13.1421 21.576 13.6367 21.5762 13.9417 21.881C14.2468 22.1862 14.2468 22.6809 13.9417 22.9859L12.3806 24.547C12.2281 24.6995 12.0281 24.7757 11.8282 24.7757Z" fill="#1A8917"/>
<path d="M9.45238 30.7758C9.25238 30.7758 9.05254 30.6995 8.89988 30.547L7.89129 29.5384L6.88254 30.547C6.57738 30.852 6.08285 30.852 5.7777 30.547C5.47254 30.2419 5.47254 29.7472 5.7777 29.4422L7.33879 27.8811C7.48535 27.7345 7.68394 27.6523 7.89129 27.6523C8.09848 27.6523 8.29722 27.7347 8.44379 27.8811L10.0049 29.4422C10.31 29.7473 10.31 30.242 10.0049 30.547C9.85222 30.6995 9.65222 30.7758 9.45238 30.7758Z" fill="#1A8917"/>
<path d="M54.6809 9.36557C54.4809 9.36557 54.2811 9.28932 54.1284 9.13682L53.1198 8.12807L52.1111 9.13682C51.8059 9.44197 51.3114 9.44182 51.0062 9.13682C50.7011 8.83166 50.7011 8.33697 51.0062 8.03197L52.5673 6.47088C52.8726 6.16588 53.3671 6.16604 53.6721 6.47088L55.2332 8.03197C55.5384 8.33713 55.5384 8.83182 55.2332 9.13682C55.0807 9.28916 54.8807 9.36557 54.6809 9.36557Z" fill="#1A8917"/>
<defs>
<linearGradient id="paint0_linear" x1="-1.40828" y1="22.2891" x2="72.8948" y2="57.8954" gradientUnits="userSpaceOnUse">
<stop stop-color="#4CAF50" stop-opacity="0.5"/>
<stop offset="1" stop-color="#FFA500"/>
</linearGradient>
</defs>
</svg>
