<svg width="80" height="80" viewBox="0 0 80 80" fill="none" xmlns="http://www.w3.org/2000/svg">
<g clip-path="url(#clip0)">
<path d="M72.7028 25.6422C70.3747 22.9391 68.859 19.6422 68.1403 16.1579C67.5309 13.1891 66.2497 10.6266 64.234 8.611C55.0465 -0.576504 34.1872 5.39225 17.6403 21.9391C1.09342 38.5016 -4.87533 59.361 4.31217 68.5329C8.67154 72.8923 15.6872 73.8454 23.609 71.8454C28.2184 70.6891 33.0622 71.1735 37.4059 73.0954C41.0309 74.7047 45.0309 75.6266 49.234 75.6891C65.7497 75.9235 79.4997 62.7829 79.984 46.2829C80.2184 38.3923 77.4372 31.1579 72.7028 25.6422Z" fill="url(#paint0_linear)" fill-opacity="0.5"/>
<path opacity="0.1" d="M49.9064 11.6095C47.8126 12.422 45.4689 12.422 43.3751 11.6095C42.8126 11.3908 42.1564 11.5314 41.7189 11.9689L7.32826 46.3595C6.89076 46.797 6.75014 47.4376 6.96889 48.0158C7.78139 50.1095 7.78139 52.4533 6.96889 54.547C6.75014 55.1095 6.89076 55.7658 7.32826 56.2033L22.4533 71.3283C22.8908 71.7658 23.5314 71.9064 24.1095 71.6876C26.2033 70.8751 28.547 70.8751 30.6408 71.6876C31.2033 71.9064 31.8595 71.7658 32.297 71.3283L66.6876 36.9376C67.1251 36.5001 67.2658 35.8595 67.047 35.2814C66.2345 33.1876 66.2345 30.8439 67.047 28.7501C67.2658 28.1876 67.1251 27.5314 66.6876 27.0939L51.5626 11.9689C51.1251 11.5314 50.4689 11.3908 49.9064 11.6095Z" fill="#076007"/>
<path d="M49.9064 8.32826C47.8126 9.14076 45.4689 9.14076 43.3751 8.32826C42.8126 8.10951 42.1564 8.25014 41.7189 8.68764L7.32826 43.0783C6.89076 43.5158 6.75014 44.1564 6.96889 44.7345C7.78139 46.8283 7.78139 49.172 6.96889 51.2658C6.75014 51.8283 6.89076 52.4845 7.32826 52.922L22.4533 68.047C22.8908 68.4845 23.5314 68.6251 24.1095 68.4064C26.2033 67.5939 28.547 67.5939 30.6408 68.4064C31.2033 68.6251 31.8595 68.4845 32.297 68.047L66.6876 33.6564C67.1251 33.2189 67.2658 32.5783 67.047 32.0001C66.2345 29.9064 66.2345 27.5626 67.047 25.4689C67.2658 24.9064 67.1251 24.2501 66.6876 23.8126L51.5626 8.68764C51.1251 8.25014 50.4689 8.10951 49.9064 8.32826Z" fill="white"/>
<path d="M29.9059 63.3297C28.234 63.0172 26.5309 63.0172 24.8746 63.3297C24.6246 63.3766 24.3746 63.2984 24.1871 63.1109L12.2652 51.1891C12.0777 51.0016 11.9996 50.7516 12.0465 50.5016C12.359 48.8297 12.359 47.1266 12.0465 45.4703C11.9996 45.2203 12.0777 44.9703 12.2652 44.7828L43.4371 13.6109C43.6246 13.4234 43.8746 13.3453 44.1246 13.3922C45.7965 13.7047 47.4996 13.7047 49.1559 13.3922C49.4059 13.3453 49.6559 13.4234 49.8434 13.6109L61.7652 25.5328C61.9527 25.7203 62.0309 25.9703 61.984 26.2203C61.6715 27.8922 61.6715 29.5953 61.984 31.2516C62.0309 31.5016 61.9527 31.7516 61.7652 31.9391L30.5934 63.1109C30.4059 63.2984 30.1559 63.3766 29.9059 63.3297Z" fill="white"/>
<path d="M43.4375 13.6109L27.8438 29.2047L46.1719 47.5328L61.7656 31.9391C61.9531 31.7516 62.0313 31.5016 61.9844 31.2516C61.6719 29.5797 61.6719 27.8766 61.9844 26.2203C62.0313 25.9703 61.9531 25.7203 61.7656 25.5328L49.8438 13.6109C49.6562 13.4234 49.4063 13.3453 49.1563 13.3922C47.4844 13.7047 45.7812 13.7047 44.125 13.3922C43.875 13.3453 43.6094 13.4234 43.4375 13.6109Z" fill="#1A8917"/>
<path d="M36.0469 65.0625C35.8438 65.0625 35.6406 64.9844 35.5 64.8281C35.1875 64.5156 35.1875 64.0312 35.5 63.7187L66.125 33.0938C66.3438 32.875 66.4219 32.5625 66.3125 32.2812C65.4375 30 65.4375 27.4688 66.3125 25.1875C66.4219 24.9062 66.3438 24.5938 66.125 24.375L54.75 13C54.4375 12.6875 54.4375 12.2031 54.75 11.8906C55.0625 11.5781 55.5469 11.5781 55.8594 11.8906L67.2344 23.2656C67.8906 23.9219 68.0938 24.8906 67.7656 25.75C67.0156 27.6719 67.0156 29.7969 67.7656 31.7188C68.0938 32.5781 67.8906 33.5469 67.2344 34.2031L36.6094 64.8281C36.4531 64.9844 36.25 65.0625 36.0469 65.0625Z" fill="#076007"/>
<path d="M31.1876 69.2833C30.9063 69.2833 30.6251 69.2364 30.3595 69.127C28.4376 68.377 26.3126 68.377 24.3907 69.127C23.5313 69.4552 22.5626 69.252 21.9063 68.5958L6.78134 53.4708C6.12509 52.8145 5.92196 51.8458 6.25009 50.9864C7.00009 49.0645 7.00009 46.9395 6.25009 45.0177C5.92196 44.1583 6.12509 43.1895 6.78134 42.5333L41.172 8.12704C41.8282 7.47079 42.797 7.26766 43.6563 7.59579C45.5782 8.34579 47.7032 8.34579 49.6251 7.59579C50.4845 7.26766 51.4532 7.47079 52.1095 8.12704C52.422 8.43954 52.422 8.92391 52.1095 9.23641C51.797 9.54891 51.3126 9.54891 51.0001 9.23641C50.7813 9.01766 50.4688 8.93954 50.1876 9.04891C47.9063 9.92391 45.3751 9.92391 43.0938 9.04891C42.8126 8.93954 42.5001 9.01766 42.2813 9.23641L7.89071 43.627C7.67196 43.8458 7.59384 44.1583 7.70321 44.4395C8.57821 46.7208 8.57821 49.252 7.70321 51.5333C7.59384 51.8145 7.67196 52.127 7.89071 52.3458L23.0157 67.4708C23.2345 67.6895 23.547 67.7677 23.8282 67.6583C26.1095 66.7833 28.6407 66.7833 30.922 67.6583C31.2032 67.7677 31.5157 67.6895 31.7345 67.4708C32.047 67.1583 32.5313 67.1583 32.8438 67.4708C33.1563 67.7833 33.1563 68.2677 32.8438 68.5802C32.4063 69.0333 31.797 69.2833 31.1876 69.2833Z" fill="#076007"/>
<path d="M19.5625 49.9102H17.125C16.6875 49.9102 16.3438 49.5664 16.3438 49.1289V46.6914C16.3438 46.2539 16.6875 45.9102 17.125 45.9102H19.5625C20 45.9102 20.3437 46.2539 20.3437 46.6914V49.1289C20.3437 49.5508 20 49.9102 19.5625 49.9102ZM17.9219 48.3477H18.7969V47.4727H17.9219V48.3477Z" fill="#076007"/>
<path d="M28.6562 49.9102H26.2187C25.7812 49.9102 25.4375 49.5664 25.4375 49.1289V46.6914C25.4375 46.2539 25.7812 45.9102 26.2187 45.9102H28.6562C29.0937 45.9102 29.4375 46.2539 29.4375 46.6914V49.1289C29.4375 49.5508 29.0937 49.9102 28.6562 49.9102ZM27 48.3477H27.875V47.4727H27V48.3477Z" fill="#076007"/>
<path d="M22.8906 53.9414C22.4531 53.9414 22.1094 53.5977 22.1094 53.1602V42.6445C22.1094 42.207 22.4531 41.8633 22.8906 41.8633C23.3281 41.8633 23.6719 42.207 23.6719 42.6445V53.1602C23.6719 53.5977 23.3281 53.9414 22.8906 53.9414Z" fill="#076007"/>
<path d="M25.5156 57.1602L30.2187 52.457C30.5312 52.1445 31.0156 52.1445 31.3281 52.457C31.6406 52.7695 31.6406 53.2539 31.3281 53.5664L26.625 58.2695C26.3125 58.582 25.8281 58.582 25.5156 58.2695C25.2031 57.957 25.2031 57.4727 25.5156 57.1602Z" fill="#076007"/>
<path d="M27.6562 59.2969L38.9844 47.9687C39.2969 47.6563 39.7812 47.6563 40.0937 47.9687C40.4062 48.2812 40.4062 48.7656 40.0937 49.0781L28.7656 60.4062C28.4531 60.7188 27.9687 60.7188 27.6562 60.4062C27.3438 60.0938 27.3438 59.6094 27.6562 59.2969Z" fill="#076007"/>
<path d="M46.75 37.582C51.6947 37.582 55.7031 33.5736 55.7031 28.6289C55.7031 23.6842 51.6947 19.6758 46.75 19.6758C41.8053 19.6758 37.7969 23.6842 37.7969 28.6289C37.7969 33.5736 41.8053 37.582 46.75 37.582Z" fill="white"/>
<path d="M40.3112 29.163C40.6053 27.3488 39.373 25.6397 37.5588 25.3456C35.7447 25.0515 34.0356 26.2838 33.7415 28.0979C33.4474 29.9121 34.6797 31.6212 36.4938 31.9153C38.308 32.2094 40.0171 30.9771 40.3112 29.163Z" fill="white"/>
<path d="M37.0313 32.7383C34.7656 32.7383 32.9219 30.8945 32.9219 28.6289C32.9219 26.3633 34.7656 24.5195 37.0313 24.5195C39.2969 24.5195 41.1406 26.3633 41.1406 28.6289C41.1406 30.8945 39.2969 32.7383 37.0313 32.7383ZM37.0313 26.0664C35.625 26.0664 34.4844 27.207 34.4844 28.6133C34.4844 30.0195 35.625 31.1602 37.0313 31.1602C38.4375 31.1602 39.5781 30.0195 39.5781 28.6133C39.5938 27.2227 38.4375 26.0664 37.0313 26.0664Z" fill="#076007"/>
<path d="M47.375 33.2383C47.1719 33.2383 46.9688 33.1602 46.8281 33.0039C46.5156 32.6914 46.5156 32.207 46.8281 31.8945L49.1406 29.582C49.2969 29.4258 49.375 29.2383 49.375 29.0195C49.375 28.8008 49.2969 28.6133 49.1406 28.457C48.8281 28.1445 48.3281 28.1445 48.0156 28.457L46.5781 29.8945C45.6563 30.8164 44.1563 30.8164 43.25 29.8945C42.3438 28.9727 42.3281 27.4727 43.25 26.5664L45.5625 24.2539C45.875 23.9414 46.3594 23.9414 46.6719 24.2539C46.9844 24.5664 46.9844 25.0508 46.6719 25.3633L44.3594 27.6758C44.0469 27.9883 44.0469 28.4883 44.3594 28.8008C44.6719 29.1133 45.1719 29.1133 45.4844 28.8008L46.9219 27.3633C47.8438 26.4414 49.3438 26.4414 50.25 27.3633C50.7031 27.8164 50.9375 28.3945 50.9375 29.0352C50.9375 29.6758 50.6875 30.2539 50.25 30.707L47.9375 33.0195C47.7813 33.1602 47.5781 33.2383 47.375 33.2383Z" fill="#076007"/>
<path d="M49.8125 32.4727C49.6094 32.4727 49.4062 32.3945 49.2656 32.2383L43.125 26.1133C42.8125 25.8008 42.8125 25.3164 43.125 25.0039C43.4375 24.6914 43.9219 24.6914 44.2344 25.0039L50.3594 31.1289C50.6719 31.4414 50.6719 31.9258 50.3594 32.2383C50.2031 32.3945 50 32.4727 49.8125 32.4727Z" fill="#076007"/>
<path d="M27.875 34.9688C28.3582 34.9688 28.75 34.577 28.75 34.0937C28.75 33.6105 28.3582 33.2188 27.875 33.2188C27.3917 33.2188 27 33.6105 27 34.0937C27 34.577 27.3917 34.9688 27.875 34.9688Z" fill="#076007"/>
<path d="M29.75 36.8438C30.2332 36.8438 30.625 36.452 30.625 35.9687C30.625 35.4855 30.2332 35.0938 29.75 35.0938C29.2667 35.0938 28.875 35.4855 28.875 35.9687C28.875 36.452 29.2667 36.8438 29.75 36.8438Z" fill="#076007"/>
<path d="M31.625 38.7031C32.1082 38.7031 32.5 38.3114 32.5 37.8281C32.5 37.3449 32.1082 36.9531 31.625 36.9531C31.1417 36.9531 30.75 37.3449 30.75 37.8281C30.75 38.3114 31.1417 38.7031 31.625 38.7031Z" fill="#076007"/>
<path d="M30.0305 64.1281C29.9367 64.1281 29.843 64.1125 29.7492 64.0969C28.1711 63.8 26.5774 63.8 24.9992 64.0969C24.4992 64.1906 23.9836 64.0344 23.6242 63.6594L11.7024 51.7375C11.343 51.3781 11.1711 50.8625 11.2649 50.3625C11.5617 48.7844 11.5617 47.1906 11.2649 45.6125C11.1711 45.1125 11.3274 44.5969 11.7024 44.2375L42.8742 13.05C43.2336 12.6906 43.7492 12.5188 44.2492 12.6125C45.8274 12.9094 47.4211 12.9094 48.9992 12.6125C49.4992 12.5188 50.0149 12.675 50.3742 13.05L62.2961 24.9719C62.6555 25.3313 62.8274 25.8469 62.7336 26.3469C62.4367 27.925 62.4367 29.5188 62.7336 31.0969C62.8274 31.5969 62.6711 32.1125 62.2961 32.4719L31.1399 63.6594C30.843 63.9563 30.4524 64.1281 30.0305 64.1281ZM43.9836 14.1594L12.8117 45.3313C13.1399 47.0969 13.1399 48.8781 12.8117 50.6438L24.7336 62.55C26.4836 62.2219 28.2805 62.2219 30.0461 62.55L61.218 31.3781C60.8899 29.6125 60.8899 27.8313 61.218 26.0656L49.2961 14.1594C47.5305 14.4875 45.7492 14.4875 43.9836 14.1594Z" fill="#076007"/>
<path d="M24.5 18.4688C24.2969 18.4688 24.0937 18.3906 23.9531 18.2344C23.6406 17.9219 23.6406 17.4375 23.9531 17.125L25.5156 15.5625C25.8281 15.25 26.3125 15.25 26.625 15.5625C26.9375 15.875 26.9375 16.3594 26.625 16.6719L25.0625 18.2344C24.9062 18.3906 24.7031 18.4688 24.5 18.4688Z" fill="#1A8917"/>
<path d="M9.6875 67.7188C9.48438 67.7188 9.28125 67.6406 9.14063 67.4844C8.82812 67.1719 8.82812 66.6875 9.14063 66.375L10.7031 64.8125C11.0156 64.5 11.5 64.5 11.8125 64.8125C12.125 65.125 12.125 65.6094 11.8125 65.9219L10.25 67.4844C10.0781 67.6406 9.89063 67.7188 9.6875 67.7188Z" fill="#1A8917"/>
<path d="M71.5625 28.0781C71.3594 28.0781 71.1562 28 71.0156 27.8437C70.7031 27.5312 70.7031 27.0469 71.0156 26.7344L72.5781 25.1719C72.8906 24.8594 73.375 24.8594 73.6875 25.1719C74 25.4844 74 25.9687 73.6875 26.2812L72.125 27.8437C71.9688 28 71.7656 28.0781 71.5625 28.0781Z" fill="#1A8917"/>
<path d="M48.25 62.9688C48.0469 62.9688 47.8437 62.8906 47.7031 62.7344C47.3906 62.4219 47.3906 61.9375 47.7031 61.625L49.2656 60.0625C49.5781 59.75 50.0625 59.75 50.375 60.0625C50.6875 60.375 50.6875 60.8594 50.375 61.1719L48.8125 62.7344C48.6406 62.9062 48.4375 62.9688 48.25 62.9688Z" fill="#1A8917"/>
<path d="M59.0469 56.8633C58.8438 56.8633 58.6406 56.7852 58.5 56.6289C58.1875 56.3164 58.1875 55.832 58.5 55.5195L60.0625 53.957C60.2031 53.8164 60.4062 53.7227 60.6094 53.7227C60.8125 53.7227 61.0156 53.8008 61.1562 53.957L62.7188 55.5195C63.0312 55.832 63.0312 56.3164 62.7188 56.6289C62.4062 56.9414 61.9219 56.9414 61.6094 56.6289L60.5937 55.6133L59.5781 56.6289C59.4531 56.8008 59.25 56.8633 59.0469 56.8633Z" fill="#1A8917"/>
<path d="M18.0938 22.332C17.8906 22.332 17.6875 22.2539 17.5469 22.0977L16.5313 21.082L15.5156 22.0977C15.2031 22.4102 14.7188 22.4102 14.4063 22.0977C14.0937 21.7852 14.0937 21.3008 14.4063 20.9883L15.9688 19.4258C16.1094 19.2852 16.3125 19.1914 16.5156 19.1914C16.7188 19.1914 16.9219 19.2695 17.0625 19.4258L18.625 20.9883C18.9375 21.3008 18.9375 21.7852 18.625 22.0977C18.5 22.2539 18.2969 22.332 18.0938 22.332Z" fill="#1A8917"/>
</g>
<defs>
<linearGradient id="paint0_linear" x1="-1.41023" y1="19.9368" x2="75.562" y2="53.2216" gradientUnits="userSpaceOnUse">
<stop stop-color="#4CAF50" stop-opacity="0.5"/>
<stop offset="1" stop-color="#FFA500"/>
</linearGradient>
<clipPath id="clip0">
<rect width="80" height="80" fill="white"/>
</clipPath>
</defs>
</svg>
