<svg width="80" height="80" viewBox="0 0 80 80" fill="none" xmlns="http://www.w3.org/2000/svg">
<g clip-path="url(#clip0)">
<path d="M65.6005 32.2747C65.7653 31.0626 65.8458 29.8237 65.8363 28.5641C65.7281 14.4977 54.2338 3.01944 40.1673 2.93022C25.8213 2.83944 14.163 14.4416 14.163 28.7668C14.163 29.9566 14.2436 31.1276 14.3994 32.2746C15.0311 36.9226 12.8545 41.5157 8.8975 44.0346C3.33328 47.5763 0 52.0876 0 57.0001C0 68.3869 17.9086 77.6179 40 77.6179C62.0914 77.6179 80 68.3869 80 57.0001C80 52.0876 76.6666 47.5763 71.1022 44.0344C67.1452 41.5157 64.9688 36.9226 65.6005 32.2747Z" fill="url(#paint0_linear)" fill-opacity="0.5"/>
<path d="M26.644 20.3284C26.6882 21.0981 27.2974 21.8123 28.2038 21.8123H32.5034V35.2203C32.5034 36.083 33.2027 36.7823 34.0654 36.7823H45.937C46.7996 36.7823 47.499 36.083 47.499 35.2203V21.8123H51.7985C52.7051 21.8123 53.3141 21.0981 53.3585 20.3284L53.3638 16.4414H26.6387L26.644 20.3284Z" fill="white"/>
<path d="M58.1212 24.0306C57.9212 24.0306 57.7214 23.9544 57.5687 23.8019C57.2636 23.4967 57.2636 23.002 57.5687 22.697L59.1307 21.135C59.4357 20.83 59.9304 20.83 60.2356 21.135C60.5407 21.4402 60.5407 21.9348 60.2356 22.2398L58.6736 23.802C58.5211 23.9544 58.3212 24.0306 58.1212 24.0306Z" fill="#1A8917"/>
<path opacity="0.1" d="M59.6763 77.3809H20.326C19.8946 77.3809 19.5449 77.0313 19.5449 76.5998V44.7108C19.5449 44.2794 19.8946 43.9297 20.326 43.9297H59.6762C60.1076 43.9297 60.4573 44.2794 60.4573 44.7108V76.5998C60.4573 77.0313 60.1076 77.3809 59.6763 77.3809Z" fill="#1A8917"/>
<path d="M69.5087 25.0474L57.6333 36.923C57.3403 37.216 57.1758 37.6133 57.1758 38.0275V48.7599H60.4561V38.7392L71.8284 27.3671C72.0114 27.1841 72.0114 26.8874 71.8284 26.7044L70.1715 25.0475C69.9886 24.8644 69.6919 24.8644 69.5087 25.0474Z" fill="white"/>
<path d="M9.82926 25.0474L8.17238 26.7043C7.98941 26.8872 7.98941 27.1839 8.17238 27.3669L19.5447 38.7391V48.7597H22.825V38.0275C22.825 37.6133 22.6605 37.216 22.3675 36.923L10.4921 25.0474C10.3089 24.8644 10.0122 24.8644 9.82926 25.0474Z" fill="white"/>
<path d="M32.5034 18.0855V31.4934C32.5034 32.3561 33.2028 33.0555 34.0654 33.0555H45.937C46.7996 33.0555 47.499 32.3561 47.499 31.4934V18.0855H51.7985C53.1901 18.0855 53.8871 16.403 52.9031 15.4189L41.1057 3.62156C40.4957 3.01156 39.5067 3.01156 38.8967 3.62156L27.0993 15.4189C26.1153 16.403 26.8123 18.0855 28.2038 18.0855H32.5034Z" fill="white"/>
<path d="M59.6763 74.1036H20.326C19.8946 74.1036 19.5449 73.7539 19.5449 73.3225V41.4334C19.5449 41.002 19.8946 40.6523 20.326 40.6523H59.6762C60.1076 40.6523 60.4573 41.002 60.4573 41.4334V73.3227C60.4573 73.7539 60.1076 74.1036 59.6763 74.1036Z" fill="white"/>
<path d="M44.6085 51.4306H35.3924C34.961 51.4306 34.6113 51.0809 34.6113 50.6495V40.6523H45.3895V50.6495C45.3896 51.0809 45.0399 51.4306 44.6085 51.4306Z" fill="#1A8917"/>
<path d="M40.0005 51.4306H35.3924C34.961 51.4306 34.6113 51.0809 34.6113 50.6495V40.6523H40.0005V51.4306Z" fill="#1A8917"/>
<path d="M38.9077 74.1012H23.5215V60.4491C23.5215 60.0177 23.8712 59.668 24.3026 59.668H38.1268C38.5582 59.668 38.9079 60.0177 38.9079 60.4491V74.1012H38.9077Z" fill="#1A8917"/>
<path d="M28.216 63.7106H26.2635C25.8321 63.7106 25.4824 63.3609 25.4824 62.9295C25.4824 62.4983 25.8321 62.1484 26.2635 62.1484H28.216C28.6474 62.1484 28.9971 62.4981 28.9971 62.9295C28.9971 63.3609 28.6474 63.7106 28.216 63.7106Z" fill="#1A8917"/>
<path d="M36.1826 67.7731H26.2635C25.8321 67.7731 25.4824 67.4234 25.4824 66.992C25.4824 66.5608 25.8321 66.2109 26.2635 66.2109H36.1826C36.614 66.2109 36.9637 66.5606 36.9637 66.992C36.9635 67.4234 36.614 67.7731 36.1826 67.7731Z" fill="#1A8917"/>
<path d="M36.1826 70.8942H26.2635C25.8321 70.8942 25.4824 70.5445 25.4824 70.1131C25.4824 69.6819 25.8321 69.332 26.2635 69.332H36.1826C36.614 69.332 36.9637 69.6817 36.9637 70.1131C36.9635 70.5445 36.614 70.8942 36.1826 70.8942Z" fill="#1A8917"/>
<path d="M12.3058 52.523C12.1058 52.523 11.906 52.4467 11.7533 52.2942L10.7438 51.2845L9.7341 52.2942C9.4291 52.5992 8.93441 52.5992 8.62926 52.2942C8.3241 51.9891 8.3241 51.4944 8.62926 51.1894L10.1913 49.6272C10.3379 49.4806 10.5366 49.3984 10.7438 49.3984C10.951 49.3984 11.1497 49.4808 11.2963 49.6272L12.8583 51.1894C13.1635 51.4945 13.1635 51.9892 12.8583 52.2942C12.7057 52.4467 12.5057 52.523 12.3058 52.523Z" fill="#1A8917"/>
<path d="M66.8693 52.1947C66.6693 52.1947 66.4694 52.1184 66.3168 51.9659C66.0116 51.6608 66.0116 51.1661 66.3168 50.8611L67.8788 49.2991C68.1839 48.9941 68.6785 48.9941 68.9836 49.2991C69.2888 49.6042 69.2888 50.0989 68.9836 50.4039L67.4216 51.9659C67.2691 52.1184 67.0691 52.1947 66.8693 52.1947Z" fill="#1A8917"/>
<path d="M23.0314 30.3783C22.8314 30.3783 22.6315 30.302 22.4789 30.1495C22.1737 29.8444 22.1737 29.3497 22.4789 29.0447L24.0409 27.4827C24.3461 27.1777 24.8406 27.1777 25.1457 27.4827C25.4509 27.7878 25.4509 28.2825 25.1457 28.5875L23.5837 30.1495C23.4312 30.3019 23.2314 30.3783 23.0314 30.3783Z" fill="#1A8917"/>
<path d="M25.8628 20.3306C25.8628 20.3452 25.8633 20.3598 25.8641 20.3744C25.9369 21.6402 26.9427 22.5947 28.2039 22.5947H31.7222V35.2214C31.7222 36.5134 32.7734 37.5647 34.0655 37.5647H45.9372C47.2294 37.5647 48.2805 36.5134 48.2805 35.2214V22.5947H51.7987C53.06 22.5947 54.0658 21.6402 54.1386 20.3744C54.1394 20.3598 54.1398 20.3452 54.1398 20.3306L54.1448 16.6044C54.1716 15.9675 53.9337 15.3444 53.4556 14.8662C53.1505 14.5612 52.6559 14.5612 52.3508 14.8662C52.0456 15.1714 52.0456 15.6661 52.3508 15.9711C52.6931 16.3133 52.5669 16.7089 52.52 16.822C52.4731 16.9352 52.2827 17.3041 51.7986 17.3041H47.4991C47.0677 17.3041 46.7178 17.6539 46.7178 18.0853V31.4933C46.7178 31.9239 46.3675 32.2742 45.937 32.2742H34.0653C33.6348 32.2742 33.2845 31.9239 33.2845 31.4933V18.0853C33.2845 17.6539 32.9347 17.3041 32.5033 17.3041H28.2037C27.7197 17.3041 27.5292 16.9352 27.4823 16.822C27.4355 16.7089 27.3094 16.3134 27.6517 15.9711L39.4491 4.17375C39.5966 4.02625 39.7927 3.94516 40.0011 3.94516C40.2095 3.94516 40.4056 4.02625 40.5531 4.17391L48.5939 12.2147C48.8991 12.5197 49.3936 12.5197 49.6987 12.2147C50.0039 11.9095 50.0039 11.4148 49.6987 11.1098L41.658 3.06922C41.2155 2.62656 40.6269 2.38281 40.0011 2.38281C39.3752 2.38281 38.7867 2.62656 38.3441 3.06922L26.5467 14.8666C26.0686 15.3447 25.8308 15.9678 25.8575 16.6047L25.8628 20.3306ZM51.7986 18.8664C52.0725 18.8664 52.3348 18.8203 52.5794 18.7361L52.5772 20.3027C52.5483 20.6597 52.2692 21.032 51.7986 21.032H48.2803V18.8663H51.7986V18.8664ZM34.0655 33.8364H45.9372C46.2112 33.8364 46.4733 33.7867 46.718 33.6998V35.2214C46.718 35.6519 46.3677 36.0022 45.9372 36.0022H34.0655C33.635 36.0022 33.2847 35.6519 33.2847 35.2214V33.6998C33.5292 33.7867 33.7914 33.8364 34.0655 33.8364ZM28.2039 18.8664H31.7222V21.0322H28.2039C27.7331 21.0322 27.4542 20.6597 27.4253 20.3028L27.4231 18.7362C27.6677 18.8205 27.93 18.8664 28.2039 18.8664Z" fill="#1A8917"/>
<path d="M72.3816 26.1513L70.7248 24.4944C70.2375 24.0071 69.4447 24.0071 68.9572 24.4944L57.0819 36.3699C56.6392 36.8125 56.3955 37.401 56.3955 38.0269V40.6499C56.3955 41.0813 56.7453 41.4311 57.1767 41.4311L59.6758 41.431L59.6761 73.3199L20.3261 73.32L20.3258 41.4311H51.8642C52.2956 41.4311 52.6455 41.0813 52.6455 40.6499C52.6455 40.2185 52.2956 39.8686 51.8642 39.8686H23.6064V38.0269C23.6064 37.401 23.3627 36.8125 22.92 36.37L11.0445 24.4944C10.557 24.0071 9.76422 24.0071 9.27688 24.4944L7.62 26.1513C7.38391 26.3874 7.25391 26.7013 7.25391 27.035C7.25391 27.3689 7.38391 27.6829 7.62 27.9188L18.7634 39.0622V73.3202C18.7634 74.1816 19.4642 74.8825 20.3256 74.8825H59.6759C60.5373 74.8825 61.2381 74.1818 61.2381 73.3202V39.0622L72.3814 27.9189C72.6177 27.6829 72.7477 27.3689 72.7477 27.035C72.7477 26.7013 72.6177 26.3874 72.3816 26.1513ZM8.94594 27.035L10.1606 25.8204L21.815 37.475C21.9625 37.6224 22.0436 37.8185 22.0436 38.0271V39.8688H20.3258V38.7388C20.3258 38.5316 20.2434 38.3328 20.097 38.1863L8.94594 27.035ZM59.9045 38.1861C59.758 38.3327 59.6758 38.5313 59.6758 38.7386V39.8686H57.958V38.0269C57.958 37.8183 58.0392 37.6224 58.1867 37.4749L69.8411 25.8204L71.0558 27.035L59.9045 38.1861Z" fill="#1A8917"/>
<path d="M16.2121 11.7064C16.0121 11.7064 15.8122 11.6302 15.6596 11.4777L14.6499 10.4681L13.6404 11.4777C13.3352 11.7827 12.8407 11.7827 12.5355 11.4777C12.2304 11.1725 12.2304 10.6778 12.5355 10.3728L14.0975 8.81078C14.4027 8.50578 14.8972 8.50578 15.2024 8.81078L16.7644 10.3728C17.0696 10.678 17.0696 11.1727 16.7644 11.4777C16.6119 11.6302 16.4119 11.7064 16.2121 11.7064Z" fill="#1A8917"/>
</g>
<defs>
<linearGradient id="paint0_linear" x1="-1.40828" y1="19.291" x2="76.6242" y2="51.5467" gradientUnits="userSpaceOnUse">
<stop stop-color="#4CAF50" stop-opacity="0.5"/>
<stop offset="1" stop-color="#FFA500"/>
</linearGradient>
<clipPath id="clip0">
<rect width="80" height="80" fill="white"/>
</clipPath>
</defs>
</svg>
