<svg width="130" height="40" viewBox="0 0 130 40" fill="none" xmlns="http://www.w3.org/2000/svg">
<path d="M121.431 0.673706H30.7095C26.7943 0.673706 23.2504 1.88374 21.6543 3.76564L0 29.3066H121.431C125.809 29.3066 129.359 27.4384 129.359 25.1349V4.84541C129.366 2.54189 125.815 0.673706 121.431 0.673706Z" fill="url(#paint0_linear_5105_66582)"/>
<path d="M47.1326 29.3066H0L47.1326 39.3263V29.3066Z" fill="#10570F"/>
<path d="M51.4168 7.73385H49.7746L50.0841 6.27221H55.0365L54.727 7.73385H53.0934L52.1046 12.3767H50.428L51.4168 7.73385ZM55.6608 6.27221H57.3374L56.0391 12.3767H54.3625L55.6608 6.27221ZM58.3896 6.27221H59.6965L61.2441 9.37605L61.8975 6.27221H63.5741L62.2758 12.3767H60.9518L59.4041 9.37605L58.7679 12.3767H57.0913L58.3896 6.27221ZM67.2103 7.73385H65.5681L65.8777 6.27221H70.83L70.5205 7.73385H68.8869L67.8982 12.3767H66.2216L67.2103 7.73385ZM72.6838 12.4283C72.1851 12.4283 71.781 12.3366 71.4715 12.1532C71.1677 11.9697 70.9442 11.7204 70.8009 11.4051C70.6633 11.0842 70.5945 10.7259 70.5945 10.3304C70.5945 10.1814 70.6031 10.0324 70.6203 9.88332C70.6375 9.72856 70.6633 9.57093 70.6977 9.41044L71.3684 6.27221H73.0449L72.3743 9.41044C72.3514 9.51935 72.3342 9.62539 72.3227 9.72856C72.3113 9.826 72.3055 9.92345 72.3055 10.0209C72.3055 10.1986 72.3284 10.3562 72.3743 10.4938C72.4202 10.6313 72.4947 10.7402 72.5978 10.8205C72.701 10.9007 72.8357 10.9409 73.0019 10.9409C73.1739 10.9409 73.3287 10.9007 73.4662 10.8205C73.6038 10.7345 73.727 10.6199 73.8359 10.4766C73.9448 10.3275 74.0366 10.1613 74.1111 9.9779C74.1856 9.79448 74.2429 9.60533 74.283 9.41044L74.9537 6.27221H76.6303L75.9596 9.41044C75.8679 9.8346 75.7303 10.2301 75.5469 10.5969C75.3635 10.9638 75.1342 11.2848 74.8591 11.5599C74.584 11.835 74.263 12.05 73.8961 12.2048C73.535 12.3538 73.1309 12.4283 72.6838 12.4283ZM75.375 7.37274L75.6071 6.27221C75.8077 6.27221 75.9825 6.26075 76.1316 6.23782C76.2806 6.20916 76.4038 6.15471 76.5013 6.07446C76.5987 5.99422 76.6589 5.89964 76.6818 5.79073C76.7105 5.68183 76.7392 5.57292 76.7678 5.46401H77.8769C77.8483 5.61304 77.811 5.77067 77.7652 5.9369C77.7193 6.10312 77.6477 6.26935 77.5502 6.43557C77.4585 6.59607 77.3238 6.74796 77.1461 6.89126C77.0315 6.98297 76.8767 7.06609 76.6818 7.1406C76.487 7.20938 76.2749 7.2667 76.0456 7.31256C75.8221 7.35268 75.5985 7.37274 75.375 7.37274ZM74.6269 5.82513L73.5264 5.72195L74.1885 4.50105H75.6329L74.6269 5.82513ZM78.882 12.4283C78.5151 12.4283 78.1855 12.3566 77.8932 12.2133C77.6066 12.0701 77.363 11.8752 77.1624 11.6287C76.9618 11.3765 76.8099 11.0956 76.7067 10.7861C76.6035 10.4708 76.5519 10.147 76.5519 9.81454C76.5519 9.47636 76.6121 9.13817 76.7325 8.79999C76.8529 8.45608 77.0219 8.13222 77.2398 7.82843C77.4633 7.51891 77.727 7.24664 78.0308 7.01163C78.3346 6.77089 78.6727 6.58174 79.0453 6.44417C79.4236 6.30661 79.8249 6.23782 80.249 6.23782C80.8107 6.23782 81.275 6.36106 81.6419 6.60753C82.0087 6.84827 82.2495 7.16926 82.3641 7.57049L80.8939 8.48187C80.8652 8.28125 80.7964 8.12649 80.6875 8.01758C80.5843 7.90868 80.4611 7.83416 80.3178 7.79404C80.1802 7.74818 80.0398 7.72526 79.8965 7.72526C79.6328 7.72526 79.3978 7.78831 79.1915 7.91441C78.9909 8.03478 78.8218 8.19527 78.6842 8.39589C78.5466 8.59651 78.4406 8.81146 78.3661 9.04073C78.2973 9.27001 78.2629 9.49069 78.2629 9.70277C78.2629 9.92631 78.2973 10.1327 78.3661 10.3218C78.4406 10.5052 78.5495 10.6543 78.6928 10.7689C78.8361 10.8835 79.0167 10.9409 79.2345 10.9409C79.372 10.9409 79.5182 10.9179 79.673 10.8721C79.8335 10.8205 79.9853 10.7402 80.1286 10.6313C80.2719 10.5224 80.3923 10.3763 80.4898 10.1928L81.6849 11.0096C81.5072 11.3077 81.2607 11.5628 80.9454 11.7749C80.6359 11.9869 80.2977 12.1503 79.9309 12.2649C79.5641 12.3738 79.2144 12.4283 78.882 12.4283Z" fill="white"/>
<path d="M33.8183 21.0728C33.3291 21.0728 32.8897 20.9773 32.4999 20.7862C32.1178 20.5952 31.793 20.3353 31.5255 20.0067C31.258 19.6704 31.0555 19.2959 30.9179 18.8832C30.7803 18.4629 30.7116 18.0311 30.7116 17.5878C30.7116 17.1369 30.7918 16.686 30.9523 16.2351C31.1128 15.7765 31.3383 15.3447 31.6287 14.9397C31.9267 14.527 32.2783 14.1639 32.6833 13.8506C33.0884 13.5296 33.5393 13.2774 34.0361 13.094C34.5405 12.9106 35.0755 12.8188 35.641 12.8188C36.39 12.8188 37.009 12.9832 37.4982 13.3118C37.9873 13.6328 38.3083 14.0608 38.4611 14.5957L36.5008 15.8109C36.4626 15.5434 36.3709 15.3371 36.2257 15.1919C36.0881 15.0467 35.9238 14.9473 35.7327 14.8938C35.5493 14.8327 35.3621 14.8021 35.171 14.8021C34.8194 14.8021 34.5061 14.8862 34.231 15.0543C33.9635 15.2148 33.738 15.4288 33.5546 15.6963C33.3712 15.9638 33.2298 16.2504 33.1304 16.5561C33.0387 16.8618 32.9929 17.156 32.9929 17.4388C32.9929 17.7368 33.0387 18.012 33.1304 18.2642C33.2298 18.5087 33.375 18.7074 33.5661 18.8603C33.7571 19.0131 33.9979 19.0896 34.2883 19.0896C34.4717 19.0896 34.6666 19.059 34.8729 18.9979C35.0869 18.9291 35.2895 18.8221 35.4805 18.6769C35.6716 18.5317 35.8321 18.3368 35.962 18.0922L37.5555 19.1813C37.3186 19.5787 36.9899 19.9188 36.5696 20.2016C36.1569 20.4843 35.706 20.7021 35.2169 20.855C34.7277 21.0002 34.2615 21.0728 33.8183 21.0728ZM41.6717 12.8647H43.7237L44.6294 21.004H42.3595L42.2793 19.4106H40.3304L39.5853 21.004H37.304L41.6717 12.8647ZM42.2449 17.9203L42.1532 15.3982L40.9724 17.9203H42.2449ZM39.5165 23.4458L39.8834 21.7263H41.8322L41.4654 23.4458H39.5165ZM40.9036 11.8444L42.4283 10.5261H43.9874L44.9504 11.8444L43.7467 12.3259L42.9786 11.6037L41.901 12.3259L40.9036 11.8444ZM46.988 12.8647H50.3354C50.771 12.8647 51.1455 12.9793 51.4589 13.2086C51.7722 13.4303 52.0091 13.7207 52.1696 14.0799C52.3378 14.4391 52.4218 14.8174 52.4218 15.2148C52.4218 15.6122 52.3378 16.0058 52.1696 16.3956C52.0015 16.7853 51.7684 17.1407 51.4703 17.4617C51.1723 17.775 50.8284 18.0273 50.4386 18.2183C50.0488 18.4094 49.6323 18.5049 49.189 18.5049H48.0197L47.4924 21.004H45.2569L46.988 12.8647ZM49.4527 16.5561C49.5215 16.5561 49.5941 16.5331 49.6705 16.4873C49.7469 16.4414 49.8195 16.3726 49.8883 16.2809C49.9648 16.1816 50.0221 16.0593 50.0603 15.9141C50.1061 15.7689 50.1291 15.5969 50.1291 15.3982C50.1291 15.2454 50.11 15.1269 50.0718 15.0428C50.0335 14.9588 49.9877 14.9014 49.9342 14.8709C49.8807 14.8327 49.8234 14.8136 49.7622 14.8136H48.8107L48.4439 16.5561H49.4527ZM56.112 12.8647H57.8545L59.918 17.0031L60.7893 12.8647H63.0247L61.2937 21.004H59.5283L57.4648 17.0031L56.6164 21.004H54.381L56.112 12.8647ZM64.4188 12.8647H66.6543L66.0123 15.8682H68.4426L69.0846 12.8647H71.3201L69.589 21.004H67.3536L68.0299 17.8171H65.5996L64.9232 21.004H62.6878L64.4188 12.8647ZM74.6862 12.8647H76.7383L77.6439 21.004H75.3741L75.2938 19.4106H73.345L72.5998 21.004H70.3185L74.6862 12.8647ZM75.2594 17.9203L75.1677 15.3982L73.9869 17.9203H75.2594ZM72.531 23.4458L72.8979 21.7263H74.8467L74.4799 23.4458H72.531ZM73.9181 11.8444L75.4428 10.5261H77.0019L77.9649 11.8444L76.7612 12.3259L75.9931 11.6037L74.9155 12.3259L73.9181 11.8444ZM81.2177 14.8136H79.0281L79.4408 12.8647H86.0439L85.6312 14.8136H83.4531L82.1348 21.004H79.8993L81.2177 14.8136Z" fill="white"/>
<defs>
<linearGradient id="paint0_linear_5105_66582" x1="77.6154" y1="5.44582" x2="15.8302" y2="24.7895" gradientUnits="userSpaceOnUse">
<stop stop-color="#1A8917"/>
<stop offset="1" stop-color="#076007"/>
</linearGradient>
</defs>
</svg>
