<svg width="220" height="42" viewBox="0 0 220 42" fill="none" xmlns="http://www.w3.org/2000/svg">
<path d="M46.3011 14.9831C47.1124 13.8947 46.8474 12.3488 45.7199 11.5928L45.2575 11.2826C44.2067 10.578 42.7879 10.8212 42.0319 11.8357L29.0269 29.2852V7.50057C29.0269 6.18949 30.0897 5.12664 31.4008 5.12664H39.6297C40.1006 5.12664 40.5608 5.26668 40.9519 5.52895L47.3393 9.81249C48.3898 10.517 49.8083 10.2741 50.5645 9.26011L50.8432 8.88639C51.6549 7.79801 51.3901 6.2518 50.2625 5.49556L42.668 0.40233C42.2769 0.140047 41.8166 0 41.3457 0H10.9896C10.5187 0 10.0584 0.140046 9.66733 0.40233L2.0719 5.49619C0.944625 6.25219 0.67957 7.79776 1.49054 8.88616L1.76831 9.25896C2.52422 10.2735 3.94295 10.5169 4.99382 9.8124L11.3836 5.52874C11.7746 5.26661 12.2347 5.12664 12.7055 5.12664H20.9345C22.2456 5.12664 23.3085 6.18949 23.3085 7.50057V29.2852L10.3034 11.8357C9.54738 10.8212 8.12862 10.578 7.07784 11.2826L6.61538 11.5928C5.4879 12.3488 5.2229 13.8947 6.03418 14.9831L11.5808 22.4245L2.78563 32.5113C1.89247 33.5356 2.03992 35.0993 3.10881 35.9386L3.53055 36.2697C4.52444 37.0501 5.95547 36.9152 6.78593 35.9627L14.8102 26.7595L24.2642 39.4457C25.2135 40.7196 27.1219 40.7196 28.0712 39.4457L37.5251 26.7595L45.547 35.9628C46.3772 36.9153 47.808 37.0505 48.802 36.2706L49.2253 35.9384C50.2947 35.0993 50.4425 33.5352 49.5491 32.5107L40.7546 22.4245L46.3011 14.9831Z" fill="#076007"/>
<path d="M59.584 16.0359H61.4061C61.5757 16.0286 61.7432 16.0738 61.8834 16.1645C62.0024 16.2522 62.0958 16.3673 62.1545 16.4989L64.0526 21.4611C64.1421 21.6772 64.2316 21.9113 64.3238 22.1659C64.416 22.4206 64.4892 22.6804 64.5651 22.9685C64.6284 22.6873 64.6989 22.4198 64.7766 22.1659C64.8552 21.9087 64.9366 21.6772 65.0261 21.4611L66.9052 16.4989C66.9632 16.3704 67.0569 16.2593 67.1763 16.1774C67.3128 16.0801 67.4803 16.0302 67.6509 16.0359H69.4622L65.5467 25.2966H63.4968L59.584 16.0359Z" fill="#010101"/>
<path d="M79.4697 20.6668C79.4751 21.3064 79.3518 21.9411 79.1063 22.5369C78.8723 23.1033 78.5181 23.6179 78.0656 24.049C77.6132 24.48 77.0721 24.8181 76.4761 25.0424C75.1393 25.5261 73.6615 25.5261 72.3247 25.0424C71.7221 24.8158 71.1748 24.4743 70.7168 24.0392C70.2689 23.6104 69.9182 23.0991 69.6864 22.5369C69.1983 21.3331 69.1983 20.0004 69.6864 18.7966C69.9182 18.2344 70.2689 17.7232 70.7168 17.2944C71.1758 16.8616 71.7229 16.522 72.3247 16.2963C73.6612 15.8108 75.1396 15.8108 76.4761 16.2963C77.0752 16.5249 77.6194 16.8662 78.0759 17.2995C78.522 17.7287 78.8724 18.2388 79.1063 18.7992C79.3519 19.394 79.4752 20.028 79.4697 20.6668ZM77.1513 20.6668C77.1574 20.2476 77.0943 19.8301 76.9642 19.4294C76.8512 19.0876 76.6668 18.7709 76.4219 18.4982C76.1852 18.243 75.8903 18.0424 75.5596 17.9117C75.1911 17.7706 74.7964 17.7015 74.3991 17.7085C73.9991 17.7012 73.6016 17.7703 73.2304 17.9117C72.8981 18.0411 72.602 18.2419 72.3654 18.4982C72.1185 18.7696 71.9338 19.0867 71.8231 19.4294C71.5699 20.2386 71.5699 21.1001 71.8231 21.9092C71.9338 22.252 72.1185 22.5691 72.3654 22.8404C72.6013 23.0969 72.8977 23.2969 73.2304 23.4244C73.6023 23.5634 73.9994 23.6316 74.3991 23.625C74.7961 23.6316 75.1905 23.5634 75.5596 23.4244C75.8907 23.2955 76.1858 23.0956 76.4219 22.8404C76.6668 22.5678 76.8512 22.2511 76.9642 21.9092C77.0945 21.5069 77.1576 21.0877 77.1513 20.6668ZM75.2532 14.3052C75.339 14.3078 75.424 14.2892 75.4999 14.2512C75.5652 14.217 75.6216 14.1696 75.6653 14.1123C75.7063 14.0556 75.7374 13.9931 75.7575 13.9271C75.7775 13.8663 75.7875 13.803 75.7874 13.7393H77.0564C77.0576 13.9674 77.0238 14.1944 76.956 14.4133C76.8936 14.6202 76.7936 14.8152 76.6605 14.9895C76.5332 15.1558 76.3683 15.2929 76.1778 15.3908C75.9742 15.493 75.7465 15.5444 75.5162 15.54C75.2978 15.5441 75.0803 15.5119 74.8736 15.4448C74.7113 15.386 74.5544 15.3146 74.4045 15.2313L74.033 15.0178C73.9307 14.9564 73.8124 14.9234 73.6913 14.9226C73.6051 14.9192 73.5196 14.9388 73.4446 14.9792C73.3799 15.0154 73.3244 15.0646 73.2819 15.1232C73.2421 15.1808 73.2128 15.2443 73.1951 15.311C73.1787 15.3733 73.1696 15.4372 73.168 15.5014H71.8936C71.8932 15.2732 71.9279 15.0461 71.9966 14.8274C72.0582 14.6189 72.1593 14.4228 72.2949 14.2486C72.4218 14.0807 72.5867 13.9419 72.7775 13.8422C72.979 13.7365 73.2063 13.6832 73.4365 13.6878C73.6549 13.6837 73.8724 13.7159 74.0791 13.783C74.2427 13.8408 74.4006 13.9122 74.5509 13.9965C74.6838 14.0763 74.8058 14.1457 74.9197 14.21C75.018 14.2692 75.1314 14.302 75.2478 14.3052H75.2532Z" fill="#010101"/>
<path d="M89.1531 21.5684C89.2345 21.7407 89.3158 21.9208 89.3917 22.1034C89.4676 21.9157 89.5463 21.733 89.6303 21.5555C89.7144 21.378 89.8012 21.2083 89.9015 21.041L92.4097 16.3593C92.4453 16.2903 92.492 16.227 92.548 16.1715C92.5921 16.1283 92.6458 16.0949 92.7052 16.0737C92.7689 16.0518 92.8356 16.0388 92.9032 16.0352H93.1608H94.8908V25.2958H92.8923V19.9709C92.8923 19.7137 92.9059 19.4333 92.933 19.1323L90.3408 23.8964C90.2698 24.0368 90.1566 24.1541 90.0154 24.2334C89.8748 24.311 89.7143 24.3502 89.5517 24.3466H89.2426C89.0791 24.3501 88.9178 24.311 88.7762 24.2334C88.6363 24.1526 88.5235 24.0357 88.4508 23.8964L85.8504 19.1246C85.8667 19.2738 85.8803 19.4204 85.8911 19.5671C85.902 19.7137 85.9047 19.8474 85.9047 19.9709V25.3009H83.9062V16.0403H85.6362H85.9074C85.9749 16.0444 86.0415 16.0574 86.1053 16.0789C86.1644 16.1007 86.218 16.134 86.2626 16.1766C86.3168 16.2335 86.3633 16.2966 86.4009 16.3644L88.9145 21.0668C88.985 21.2263 89.069 21.3935 89.1531 21.5684Z" fill="#010101"/>
<path d="M99.0539 25.3017H96.7734V16.041H99.0539V25.3017Z" fill="#010101"/>
<path d="M102.386 16.0484C102.448 16.0552 102.508 16.0708 102.565 16.0947C102.622 16.1197 102.674 16.1536 102.719 16.195C102.78 16.2474 102.836 16.3042 102.888 16.3648L107.527 21.9314C107.508 21.754 107.494 21.579 107.486 21.417C107.478 21.2549 107.473 21.0928 107.473 20.9436V16.0355H109.471V25.2962H108.292C108.141 25.3011 107.991 25.2738 107.852 25.2164C107.715 25.1503 107.595 25.0563 107.5 24.9412L102.89 19.4208C102.89 19.5803 102.915 19.7398 102.926 19.8941C102.936 20.0485 102.939 20.1925 102.939 20.3288V25.2962H100.943V16.0355H102.136C102.22 16.0338 102.303 16.0381 102.386 16.0484Z" fill="#010101"/>
<path d="M119.897 25.3009H117.62V21.3832H113.642V25.3009H111.361V16.0403H113.642V19.9092H117.611V16.0352H119.897V25.3009Z" fill="#010101"/>
<path d="M131.49 16.0352V17.7381H128.74V25.3009H126.473V17.7381H123.727V16.0352H131.49Z" fill="#010101"/>
<path d="M141.165 25.3009H138.879V21.3832H134.915V25.3009H132.643V16.0403H134.92V19.9092H138.879V16.0352H141.16L141.165 25.3009Z" fill="#010101"/>
<path d="M145.335 25.3017H143.055V16.041H145.335V25.3017Z" fill="#010101"/>
<path d="M153.521 16.0365V17.6983H149.505V19.8591H152.574V21.4489H149.505V23.656H153.521V25.31H147.225V16.0494L153.521 16.0365ZM153.106 15.4372H151.596C151.496 15.4351 151.396 15.4212 151.3 15.396C151.154 15.3486 151.028 15.2585 150.939 15.1388L150.603 14.6423L150.541 14.56C150.52 14.5355 150.501 14.5097 150.484 14.4828L150.362 14.6423L150.026 15.1388C149.937 15.2585 149.811 15.3486 149.665 15.396C149.569 15.4212 149.469 15.4351 149.369 15.4372H147.935L149.562 13.6699H151.46L153.106 15.4372Z" fill="#010101"/>
<path d="M156.351 16.0484C156.413 16.0549 156.475 16.0705 156.532 16.0947C156.59 16.1197 156.642 16.1536 156.687 16.195C156.747 16.2481 156.803 16.3048 156.855 16.3648L161.495 21.9315C161.476 21.754 161.462 21.5791 161.454 21.417C161.446 21.2549 161.44 21.0929 161.44 20.9437V16.0355H163.439V25.2962H162.257C162.106 25.3009 161.956 25.2736 161.817 25.2164C161.681 25.1496 161.562 25.0557 161.467 24.9412L156.858 19.4208C156.871 19.5803 156.882 19.7398 156.89 19.8941C156.898 20.0485 156.904 20.1925 156.904 20.3289V25.2962H154.908V16.0355H156.101C156.185 16.0338 156.268 16.0381 156.351 16.0484Z" fill="#010101"/>
<path d="M175.007 22.9048C175.063 22.9054 175.118 22.915 175.17 22.9331C175.227 22.956 175.279 22.9901 175.322 23.0334L176.222 23.9286C175.837 24.4106 175.328 24.7906 174.744 25.0321C174.078 25.2949 173.361 25.4219 172.64 25.4051C171.957 25.4152 171.278 25.2926 170.647 25.045C170.079 24.819 169.569 24.4805 169.15 24.0521C168.734 23.6167 168.414 23.1068 168.209 22.5523C167.985 21.9466 167.874 21.3086 167.881 20.6668C167.874 20.016 167.994 19.3696 168.236 18.7606C168.459 18.2027 168.798 17.6934 169.234 17.2635C169.672 16.8395 170.197 16.5058 170.777 16.2834C171.736 15.9325 172.78 15.8433 173.79 16.0262C174.101 16.0848 174.406 16.1709 174.701 16.2834C174.975 16.3857 175.238 16.515 175.484 16.6693C175.712 16.814 175.924 16.9804 176.116 17.1657L175.352 18.1381C175.301 18.1984 175.242 18.2528 175.178 18.3002C175.098 18.3515 175.003 18.3776 174.907 18.3748C174.828 18.3748 174.75 18.3572 174.679 18.3233C174.6 18.2869 174.524 18.2457 174.451 18.1998L174.18 18.0403C174.072 17.9775 173.957 17.9242 173.838 17.8809C173.688 17.8272 173.533 17.7859 173.375 17.7574C173.171 17.7211 172.964 17.7039 172.757 17.7059C172.402 17.7022 172.051 17.7697 171.726 17.904C171.413 18.034 171.134 18.2302 170.913 18.4777C170.676 18.7518 170.498 19.0673 170.389 19.4063C170.261 19.8143 170.199 20.2384 170.205 20.6642C170.199 21.094 170.269 21.5218 170.411 21.9298C170.531 22.2713 170.72 22.5875 170.967 22.861C171.191 23.1063 171.469 23.3028 171.78 23.4372C172.097 23.5689 172.44 23.6355 172.786 23.6328C172.975 23.6345 173.163 23.625 173.35 23.6045C173.512 23.5884 173.671 23.5565 173.825 23.5093C173.97 23.4665 174.11 23.4069 174.24 23.3318C174.381 23.2494 174.513 23.1546 174.636 23.0488C174.689 23.006 174.748 22.9705 174.812 22.9434C174.873 22.9165 174.94 22.9033 175.007 22.9048Z" fill="#939598"/>
<path d="M186.571 20.6662C186.577 21.3058 186.453 21.9406 186.208 22.5363C185.974 23.1027 185.62 23.6174 185.167 24.0484C184.715 24.4794 184.174 24.8176 183.578 25.0419C182.241 25.5256 180.763 25.5256 179.426 25.0419C178.828 24.8194 178.285 24.482 177.831 24.0508C177.377 23.6196 177.022 23.104 176.788 22.5363C176.3 21.3326 176.3 19.9998 176.788 18.7961C177.021 18.2344 177.371 17.7233 177.818 17.2938C178.277 16.8611 178.824 16.5215 179.426 16.2957C180.763 15.8103 182.241 15.8103 183.578 16.2957C184.177 16.5244 184.721 16.8656 185.177 17.2989C185.624 17.7282 185.974 18.2382 186.208 18.7987C186.453 19.3935 186.577 20.0274 186.571 20.6662ZM184.253 20.6662C184.259 20.247 184.196 19.8295 184.066 19.4289C183.953 19.0871 183.768 18.7703 183.523 18.4977C183.287 18.2425 182.992 18.0419 182.661 17.9112C182.293 17.77 181.898 17.7009 181.501 17.708C181.101 17.7007 180.703 17.7698 180.332 17.9112C180 18.0405 179.704 18.2413 179.467 18.4977C179.22 18.7691 179.035 19.0862 178.925 19.4289C178.671 20.238 178.671 21.0995 178.925 21.9087C179.035 22.2514 179.22 22.5685 179.467 22.8399C179.703 23.0963 179.999 23.2964 180.332 23.4238C180.704 23.5628 181.101 23.631 181.501 23.6245C181.898 23.6311 182.292 23.5629 182.661 23.4238C182.992 23.2949 183.287 23.0951 183.523 22.8399C183.768 22.5672 183.953 22.2505 184.066 21.9087C184.196 21.5063 184.259 21.0871 184.253 20.6662Z" fill="#939598"/>
<path d="M187.164 24.3048C187.163 24.1582 187.194 24.0129 187.254 23.8778C187.385 23.6105 187.619 23.4015 187.909 23.2946C188.199 23.1876 188.521 23.1911 188.808 23.3042C188.947 23.358 189.074 23.4366 189.182 23.5357C189.29 23.6322 189.376 23.7486 189.435 23.8778C189.495 24.0129 189.525 24.1582 189.524 24.3048C189.525 24.4523 189.495 24.5984 189.435 24.7344C189.377 24.8655 189.291 24.9837 189.182 25.0817C189.074 25.1801 188.947 25.2578 188.808 25.3106C188.66 25.3658 188.503 25.3937 188.344 25.393C188.184 25.394 188.024 25.366 187.875 25.3106C187.663 25.2306 187.482 25.0917 187.355 24.9122C187.228 24.7327 187.162 24.5209 187.164 24.3048Z" fill="#939598"/>
<path d="M190.398 24.1824C190.398 24.0526 190.424 23.924 190.477 23.8043C190.532 23.6881 190.611 23.5839 190.71 23.4981C190.814 23.4096 190.935 23.3398 191.066 23.2924C191.212 23.239 191.367 23.2128 191.524 23.2152C191.704 23.211 191.883 23.2452 192.047 23.3155C192.188 23.3746 192.314 23.4624 192.416 23.5728C192.515 23.6872 192.589 23.8192 192.633 23.9612C192.681 24.1103 192.705 24.2656 192.703 24.4216C192.701 24.6515 192.665 24.88 192.598 25.1008C192.52 25.3514 192.412 25.593 192.278 25.821C192.129 26.0753 191.953 26.3141 191.752 26.5336C191.538 26.7726 191.295 26.9868 191.028 27.1715L190.67 26.8731C190.623 26.8408 190.586 26.7986 190.56 26.7499C190.534 26.7011 190.52 26.6473 190.52 26.5927C190.523 26.5438 190.54 26.4965 190.569 26.4564C190.599 26.407 190.638 26.3627 190.683 26.3252C190.735 26.2763 190.8 26.212 190.87 26.1374C190.945 26.0597 191.016 25.9781 191.082 25.8931C191.153 25.8006 191.219 25.7044 191.28 25.6049C191.342 25.4997 191.389 25.3873 191.421 25.2705C191.274 25.2603 191.13 25.2237 190.998 25.1625C190.875 25.1052 190.766 25.0246 190.678 24.9258C190.59 24.8271 190.522 24.7149 190.474 24.594C190.423 24.4622 190.398 24.3228 190.398 24.1824Z" fill="#939598"/>
<path d="M196.364 23.5859H199.984V25.3017H194.1V16.041H196.364V23.5859Z" fill="#939598"/>
<path d="M207.027 16.0352V17.7381H204.277V25.3009H202.013V17.7381H199.264V16.0352H207.027Z" fill="#939598"/>
<path d="M217.039 20.6667C217.045 21.3017 216.921 21.9317 216.673 22.5214C216.439 23.073 216.088 23.573 215.642 23.9902C215.185 24.4125 214.642 24.7408 214.045 24.9549C213.382 25.1932 212.677 25.311 211.968 25.3022H208.172V16.0415H211.968C212.678 16.0322 213.382 16.1509 214.045 16.3914C214.641 16.6073 215.185 16.9364 215.642 17.3586C216.09 17.773 216.441 18.2716 216.673 18.8223C216.92 19.4086 217.044 20.0352 217.039 20.6667ZM214.718 20.6667C214.723 20.2467 214.66 19.8284 214.53 19.4268C214.42 19.0818 214.235 18.7621 213.988 18.4879C213.752 18.2311 213.457 18.0288 213.126 17.8962C212.758 17.753 212.363 17.6829 211.965 17.6904H210.463V23.6481H211.976C212.374 23.6556 212.769 23.5856 213.137 23.4423C213.465 23.3062 213.756 23.1012 213.988 22.843C214.235 22.5687 214.42 22.2491 214.53 21.904C214.66 21.5032 214.723 21.0858 214.718 20.6667Z" fill="#939598"/>
<path d="M217.641 24.305C217.639 24.158 217.67 24.0124 217.733 23.878C217.79 23.7495 217.874 23.6332 217.98 23.5359C218.087 23.4373 218.213 23.3588 218.351 23.3043C218.5 23.2448 218.66 23.2151 218.821 23.2169C218.98 23.2153 219.138 23.2451 219.285 23.3043C219.424 23.3581 219.551 23.4367 219.659 23.5359C219.767 23.6323 219.853 23.7488 219.911 23.878C219.971 24.0131 220.002 24.1584 220.001 24.305C220.002 24.4524 219.971 24.5986 219.911 24.7346C219.853 24.8656 219.767 24.9839 219.659 25.0819C219.551 25.1802 219.424 25.2579 219.285 25.3108C219.137 25.366 218.979 25.3939 218.821 25.3931C218.66 25.3941 218.501 25.3662 218.351 25.3108C218.213 25.2573 218.087 25.1796 217.98 25.0819C217.764 24.8771 217.642 24.5997 217.641 24.3101V24.305Z" fill="#939598"/>
</svg>
